<?xml version="1.0" encoding="utf-8"?>
<!-- Generator: Adobe Illustrator 18.0.0, SVG Export Plug-In . SVG Version: 6.00 Build 0)  -->
<!DOCTYPE svg PUBLIC "-//W3C//DTD SVG 1.1//EN" "http://www.w3.org/Graphics/SVG/1.1/DTD/svg11.dtd">
<svg version="1.1" id="Layer_1" xmlns="http://www.w3.org/2000/svg" xmlns:xlink="http://www.w3.org/1999/xlink" x="0px" y="0px"
	 viewBox="0 0 250 134.3" enable-background="new 0 0 250 134.3" xml:space="preserve">
<path fill="#333333" d="M133.8,53.8c-0.8-0.1-1.5-0.1-2.3-0.2c0.2-0.2,0.4-0.5,0.7-0.7C132.7,53.2,133.2,53.5,133.8,53.8z"/>
<g id="EOJERY.tif_1_">
	<g>
		<path fill="#333333" d="M11.6,17.1c2,0.1,3.9,0.3,5.9,0.3c61.8,0,123.5,0,185.3,0c1.9,0,3.9,0,6,0c0,5.5,0,10.4,0,16
			c2.7,0,5.2,0,7.7,0c14.4,0.2,23.3,6.4,26.9,18.5C246.8,64,241.6,77.8,231,85c-10.6,7.2-22.6,9.8-35,11.1c-1.9,0.2-4.3,1.4-5.5,2.9
			c-10.5,13.1-24.4,20.4-40.2,24.9c-1.4,0.4-3,0.2-4.5,0.2c-22.9,0-45.7,0-68.6,0c-12.2,0-22.5-5.4-32.2-11.8
			C26.1,100.1,18,81.2,14.5,60c-1.2-7.3-1.9-14.6-2.9-21.9C11.6,31,11.6,24.1,11.6,17.1z M201.6,81c5.7-1.9,11.6-3.1,16.7-5.8
			c3.7-1.9,7.2-5.2,9.4-8.7c4.2-6.7,1.8-15.4-4.4-17.1c-4-1.1-8.3-1.1-12.5-1c-1.1,0-3,1.9-3.3,3.2C205.5,61,203.7,70.5,201.6,81z"
			/>
		<path fill="#333333" d="M197.1,120c-0.5,6.4-4.1,9.5-11.3,9.5c-8.6,0.1-17.2-0.1-25.9,0.1c-1.6,0-3.2,1.4-4.8,2.2
			c-1.7,0.8-3.4,2.3-5.1,2.3c-23.6,0.2-47.2,0.1-70.8,0c-1.5,0-3.9-0.6-4.4-1.6c-1.7-3.7-4.8-3-7.7-3.1c-8,0-16,0.1-24,0
			c-7-0.1-10.3-3-11.2-9.5C86.9,120,142,120,197.1,120z"/>
	</g>
</g>
</svg>
