<?xml version="1.0" encoding="utf-8"?>
<!-- Generator: Adobe Illustrator 18.0.0, SVG Export Plug-In . SVG Version: 6.00 Build 0)  -->
<!DOCTYPE svg PUBLIC "-//W3C//DTD SVG 1.1//EN" "http://www.w3.org/Graphics/SVG/1.1/DTD/svg11.dtd">
<svg version="1.1" id="Layer_1" xmlns="http://www.w3.org/2000/svg" xmlns:xlink="http://www.w3.org/1999/xlink" x="0px" y="0px"
	 viewBox="0 0 100 100" enable-background="new 0 0 100 100" xml:space="preserve">
<g>
	
		<circle fill="none" stroke="#FF8D8D" stroke-width="0.5" stroke-miterlimit="10" stroke-dasharray="1.9906,1.9906" cx="48" cy="48.1" r="45"/>
</g>
<circle fill="none" stroke="#C7B299" stroke-miterlimit="10" cx="48" cy="48.1" r="41.7"/>
<path fill="#FFFFFF" d="M52,51.2c-0.1,0-0.3,0-0.4,0c0,0,0.1-0.1,0.1-0.1C51.8,51.1,51.9,51.2,52,51.2z"/>
<g>
	<path fill="#C7B299" d="M176.2-4.8c-0.5-3.3-6-5.8-12.6-5.8c-7,0-12.6,2.8-12.6,6.3c0,0.1,0,0.3,0,0.4c-4.3,0.4-7.6,2.8-7.6,5.8
		c0,1.9,1.4,3.7,3.7,4.7c0,0,0,0,0,0c-0.1,0-0.2-0.1-0.2-0.1c0,0.1,0,0.2,0,0.2c2.4,4.7,4.8,9.4,7.3,14.1c0.2,0.3,0.9,0.6,1.3,0.6
		c5.9,0,11.8,0,17.7,0c0.8,0,1.2-0.3,1.5-0.9c1.2-2.4,2.5-4.8,3.7-7.2c1.1-2.1,2.2-4.2,3.2-6.3c3.7-1.1,6.2-3.2,6.2-5.6
		C187.8-1.9,182.6-4.7,176.2-4.8z M157.1,20.8c-0.5-0.2-1.2-0.3-1.3-0.5c-1.8-4.1-3.4-8.3-5.1-12.4c0.1-0.1,0.1-0.1,0.2-0.2
		c0,0,0.1-0.1,0.1-0.1c0.1,0,0.2,0.1,0.3,0.1c0.4,0.2,0.8,0.3,1,0.6c1.7,4,3.3,8,5,12C157.2,20.4,157.2,20.5,157.1,20.8z
		 M160.2,20.9c-0.5-0.3-1.1-0.5-1.1-0.8c-0.9-4.1-1.7-8.1-2.6-12.2c0.1-0.1,0.2-0.2,0.3-0.3c0.3,0.2,0.9,0.4,1,0.7
		c0.9,4,1.8,8,2.6,12C160.5,20.4,160.4,20.5,160.2,20.9z M163.1,20.7c-0.2,0-0.6-0.6-0.6-0.9c-0.3-3.1-0.5-6.3-0.7-9.4
		c-0.1-0.8,0-1.6,0-2.5c0.1-0.1,0.3-0.2,0.4-0.3c0.3,0.3,0.7,0.6,0.7,0.9c0.2,1.6,0.3,3.1,0.4,4.7c0.2,2.2,0.3,4.3,0.5,6.5
		C163.8,20.1,163.9,20.7,163.1,20.7z M167.5,8.5c-0.2,3.8-0.4,7.6-0.7,11.3c0,0.3-0.4,0.6-0.6,0.9c-0.2-0.2-0.6-0.5-0.6-0.7
		c0.2-4,0.5-8.1,0.7-12.1C167.2,7.6,167.6,7.8,167.5,8.5z M169,20.9c-0.1-0.1-0.3-0.2-0.4-0.2c0.3-1.5,0.6-3.1,1-4.6
		c0.6-2.5,1.2-5,1.7-7.5c0.2-0.9,0.6-1.1,1.5-0.7c-0.9,4.1-1.9,8.2-2.9,12.2C169.8,20.4,169.3,20.6,169,20.9z M177.8,7.9
		c-0.9,2.2-1.7,4.3-2.6,6.5c-0.7,1.8-1.5,3.7-2.2,5.5c-0.3,0.7-0.6,1-1.6,0.6c1.2-3.1,2.5-6.2,3.7-9.2c0.4-1,0.8-1.9,1.2-2.9
		c0.1-0.2,0.1-0.4,0.2-0.5C176.8,7.7,177.2,7.7,177.8,7.9C177.8,7.9,177.8,7.9,177.8,7.9z"/>
	<g id="EOJERY.tif">
		<g>
			<path fill="#C7B299" d="M181.1,23c-0.1,1.3-0.8,1.9-2.3,1.9c-1.7,0-3.5,0-5.2,0c-0.3,0-0.6,0.3-1,0.4c-0.3,0.2-0.7,0.5-1,0.5
				c-4.7,0-9.5,0-14.2,0c-0.3,0-0.8-0.1-0.9-0.3c-0.4-0.7-1-0.6-1.6-0.6c-1.6,0-3.2,0-4.8,0c-1.4,0-2.1-0.6-2.3-1.9
				C159,23,170,23,181.1,23z"/>
		</g>
	</g>
</g>
<ellipse fill="#80BDB6" cx="-215.7" cy="-41.4" rx="20.3" ry="16.6"/>
<g>
	
		<ellipse fill="none" stroke="#FF8D8D" stroke-width="0.5" stroke-miterlimit="10" stroke-dasharray="1.9998,1.9998" cx="-199.7" cy="14.6" rx="20.3" ry="16.6"/>
</g>
<ellipse fill="#FF8D8D" cx="-172.7" cy="-12.4" rx="20.3" ry="16.6"/>
<g id="EOJERY.tif_1_">
	<g>
		<path fill="#FF8D8D" d="M30.2,42.9c0.3,0,0.7,0.1,1,0.1c11,0,22.1,0,33.1,0c0.3,0,0.7,0,1.1,0c0,1,0,1.9,0,2.9c0.5,0,0.9,0,1.4,0
			c2.6,0,4.2,1.1,4.8,3.3c0.6,2.2-0.3,4.6-2.2,5.9c-1.9,1.3-4,1.8-6.3,2c-0.3,0-0.8,0.2-1,0.5c-1.9,2.3-4.4,3.6-7.2,4.5
			c-0.3,0.1-0.5,0-0.8,0c-4.1,0-8.2,0-12.2,0c-2.2,0-4-1-5.8-2.1c-3.4-2.2-4.8-5.6-5.4-9.4c-0.2-1.3-0.3-2.6-0.5-3.9
			C30.2,45.4,30.2,44.1,30.2,42.9z M64.2,54.3c1-0.3,2.1-0.6,3-1c0.7-0.3,1.3-0.9,1.7-1.6c0.8-1.2,0.3-2.8-0.8-3.1
			c-0.7-0.2-1.5-0.2-2.2-0.2c-0.2,0-0.5,0.3-0.6,0.6C64.8,50.7,64.5,52.4,64.2,54.3z"/>
		<path fill="#FF8D8D" d="M63.3,63.1c-0.1,1.1-0.7,1.7-2,1.7c-1.5,0-3.1,0-4.6,0c-0.3,0-0.6,0.3-0.9,0.4c-0.3,0.1-0.6,0.4-0.9,0.4
			c-4.2,0-8.4,0-12.6,0c-0.3,0-0.7-0.1-0.8-0.3c-0.3-0.7-0.9-0.5-1.4-0.5c-1.4,0-2.9,0-4.3,0c-1.2,0-1.8-0.5-2-1.7
			C43.7,63.1,53.5,63.1,63.3,63.1z"/>
		<path fill="#FF8D8D" d="M49.2,26.1c-1,0.9-1.9,1.8-2.3,3.2c-0.5,1.8,0,3.4,0.7,4.9c0.4,0.9,0.9,1.8,1.2,2.7c0.6,1.8,0,3.2-1.7,3.9
			c-0.7,0.3-1.4,0.5-2.2,0.7c1.4-1.9,1.4-3,0.1-5.1c-0.5-0.9-1.1-1.8-1.4-2.8c-0.8-2.4-0.1-4.3,1.9-5.8c1.1-0.8,2.3-1.4,3.5-2
			C49,25.9,49.1,26,49.2,26.1z"/>
		<path fill="#FF8D8D" d="M51.9,33.1c-1,1-0.7,1.8-0.2,2.7c0,0,0.1,0.1,0.1,0.1c1.8,2.8-0.1,4.5-2.5,5.1c1.8-1.4,1.5-3,0.8-4.7
			c-0.2-0.5-0.5-1.2-0.4-1.8C49.8,33.6,50.8,33.4,51.9,33.1z"/>
	</g>
</g>
<path fill="#8C6239" d="M199.4-34.8c0-5.1-4.2-9.2-9.4-9.2c-3.1,0-5.8,1.4-7.5,3.6c-1.7-2.2-4.4-3.6-7.5-3.6c-5.2,0-9.4,4.1-9.4,9.2
	c0,2.2,0.8,4.2,2.1,5.8l0,0c0.1,0.2,14.8,16.6,14.8,16.6l14.8-16.6C198.6-30.7,199.4-32.7,199.4-34.8z"/>
<rect x="-6" y="-98.8" fill="#A67C52" width="56" height="12.2"/>
</svg>
