<?xml version="1.0" encoding="utf-8"?>
<!-- Generator: Adobe Illustrator 19.0.0, SVG Export Plug-In . SVG Version: 6.00 Build 0)  -->
<!DOCTYPE svg PUBLIC "-//W3C//DTD SVG 1.1//EN" "http://www.w3.org/Graphics/SVG/1.1/DTD/svg11.dtd">
<svg version="1.1" id="Layer_1" xmlns="http://www.w3.org/2000/svg" xmlns:xlink="http://www.w3.org/1999/xlink" x="0px" y="0px"
	 viewBox="0 0 100 100" enable-background="new 0 0 100 100" xml:space="preserve">
<circle id="XMLID_1_" fill="none" stroke="#F15F43" stroke-width="1.5" stroke-miterlimit="10" cx="50" cy="50" r="45.4"/>
<g id="XMLID_15_">
	
		<circle id="XMLID_7_" fill="none" stroke="#B3B3B3" stroke-width="2" stroke-linecap="round" stroke-linejoin="round" stroke-miterlimit="10" cx="196.4" cy="50" r="18.7"/>
	
		<circle id="XMLID_6_" fill="none" stroke="#B3B3B3" stroke-width="2" stroke-linecap="round" stroke-linejoin="round" stroke-miterlimit="10" cx="196.4" cy="50" r="9.2"/>
	
		<line id="XMLID_5_" fill="none" stroke="#B3B3B3" stroke-width="2" stroke-linecap="round" stroke-linejoin="round" stroke-miterlimit="10" x1="196.4" y1="31.3" x2="196.4" y2="24.7"/>
	
		<line id="XMLID_4_" fill="none" stroke="#B3B3B3" stroke-width="2" stroke-linecap="round" stroke-linejoin="round" stroke-miterlimit="10" x1="196.4" y1="75.3" x2="196.4" y2="68.8"/>
	
		<line id="XMLID_3_" fill="none" stroke="#B3B3B3" stroke-width="2" stroke-linecap="round" stroke-linejoin="round" stroke-miterlimit="10" x1="177.6" y1="50" x2="171.1" y2="50"/>
	
		<line id="XMLID_2_" fill="none" stroke="#B3B3B3" stroke-width="2" stroke-linecap="round" stroke-linejoin="round" stroke-miterlimit="10" x1="221.7" y1="50" x2="215.1" y2="50"/>
</g>
<g id="XMLID_9_">
	<path id="XMLID_11_" fill="#B3B3B3" d="M-64.2,64h-30.7v-4.2h2.1c0.6,0,1.1-0.5,1.1-1.1s-0.5-1.1-1.1-1.1h-2.1v-3.2
		c0.6,0,1.1-0.5,1.1-1.1c0-0.6-0.5-1.1-1.1-1.1v-3.2h2.1c0.6,0,1.1-0.5,1.1-1.1s-0.5-1.1-1.1-1.1h-2.1V44c0.6,0,1.1-0.5,1.1-1.1
		c0-0.6-0.5-1.1-1.1-1.1v-3.2h2.1c0.6,0,1.1-0.5,1.1-1.1s-0.5-1.1-1.1-1.1h-2.1v-3.2c0-0.6-0.5-1.1-1.1-1.1c-0.6,0-1.1,0.5-1.1,1.1
		V64c0,1.2,0.9,2.1,2.1,2.1h30.7c0.6,0,1.1-0.5,1.1-1.1S-63.6,64-64.2,64z"/>
	<path id="XMLID_10_" fill="#B3B3B3" d="M-67.3,50.3c0.6,0,1.1-0.5,1.1-1.1V44c0-0.1,0-0.1,0-0.2c0,0,0-0.1,0-0.1c0,0,0-0.1,0-0.1
		c0,0,0-0.1-0.1-0.1c0,0,0-0.1,0-0.1c-0.1-0.1-0.2-0.2-0.3-0.3c0,0-0.1,0-0.1,0c0,0-0.1,0-0.1-0.1c0,0-0.1,0-0.1,0c0,0-0.1,0-0.1,0
		c-0.1,0-0.1,0-0.2,0h-5.3c-0.6,0-1.1,0.5-1.1,1.1s0.5,1.1,1.1,1.1h2.7L-80,55.1l-2.4-2.4c-0.4-0.4-1.1-0.4-1.5,0l-5.3,5.3
		c-0.4,0.4-0.4,1.1,0,1.5c0.2,0.2,0.5,0.3,0.7,0.3c0.3,0,0.5-0.1,0.7-0.3l4.5-4.5l2.4,2.4c0.4,0.4,1.1,0.4,1.5,0l10.9-10.9v2.7
		C-68.4,49.8-67.9,50.3-67.3,50.3z"/>
</g>
<g id="XMLID_12_">
	<path id="XMLID_17_" fill="#B3B3B3" d="M65.6,33.5H34.4c-0.6,0-1,0.5-1,1v31.3c0,0.6,0.5,1,1,1h31.3c0.6,0,1-0.5,1-1V34.6
		C66.7,34,66.2,33.5,65.6,33.5z M64.6,64.8H35.4V35.6h29.2V64.8z"/>
	<path id="XMLID_16_" fill="#B3B3B3" d="M38.5,41.9h2.1v19.8c0,0.6,0.5,1,1,1c0.6,0,1-0.5,1-1V41.9h2.1c0.6,0,1-0.5,1-1s-0.5-1-1-1
		h-2.1v-1c0-0.6-0.5-1-1-1c-0.6,0-1,0.5-1,1v1h-2.1c-0.6,0-1,0.5-1,1S37.9,41.9,38.5,41.9z"/>
	<path id="XMLID_14_" fill="#B3B3B3" d="M55.2,60.7h2.1v1c0,0.6,0.5,1,1,1c0.6,0,1-0.5,1-1v-1h2.1c0.6,0,1-0.5,1-1c0-0.6-0.5-1-1-1
		h-2.1V38.8c0-0.6-0.5-1-1-1c-0.6,0-1,0.5-1,1v19.8h-2.1c-0.6,0-1,0.5-1,1C54.2,60.2,54.6,60.7,55.2,60.7z"/>
	<path id="XMLID_13_" fill="#B3B3B3" d="M46.9,51.3H49v10.4c0,0.6,0.5,1,1,1c0.6,0,1-0.5,1-1V51.3h2.1c0.6,0,1-0.5,1-1s-0.5-1-1-1
		H51V38.8c0-0.6-0.5-1-1-1c-0.6,0-1,0.5-1,1v10.4h-2.1c-0.6,0-1,0.5-1,1S46.3,51.3,46.9,51.3z"/>
</g>
</svg>
