<?xml version="1.0" encoding="utf-8"?>
<!-- Generator: Adobe Illustrator 19.0.0, SVG Export Plug-In . SVG Version: 6.00 Build 0)  -->
<!DOCTYPE svg PUBLIC "-//W3C//DTD SVG 1.1//EN" "http://www.w3.org/Graphics/SVG/1.1/DTD/svg11.dtd">
<svg version="1.1" id="Layer_1" xmlns="http://www.w3.org/2000/svg" xmlns:xlink="http://www.w3.org/1999/xlink" x="0px" y="0px"
	 viewBox="0 0 100 100" enable-background="new 0 0 100 100" xml:space="preserve">
<circle id="XMLID_1_" fill="none" stroke="#F15F43" stroke-width="1.5" stroke-miterlimit="10" cx="50" cy="50" r="45.4"/>
<g id="XMLID_15_">
	
		<circle id="XMLID_7_" fill="none" stroke="#B3B3B3" stroke-width="2" stroke-linecap="round" stroke-linejoin="round" stroke-miterlimit="10" cx="196.4" cy="50" r="18.7"/>
	
		<circle id="XMLID_6_" fill="none" stroke="#B3B3B3" stroke-width="2" stroke-linecap="round" stroke-linejoin="round" stroke-miterlimit="10" cx="196.4" cy="50" r="9.2"/>
	
		<line id="XMLID_5_" fill="none" stroke="#B3B3B3" stroke-width="2" stroke-linecap="round" stroke-linejoin="round" stroke-miterlimit="10" x1="196.4" y1="31.3" x2="196.4" y2="24.7"/>
	
		<line id="XMLID_4_" fill="none" stroke="#B3B3B3" stroke-width="2" stroke-linecap="round" stroke-linejoin="round" stroke-miterlimit="10" x1="196.4" y1="75.3" x2="196.4" y2="68.8"/>
	
		<line id="XMLID_3_" fill="none" stroke="#B3B3B3" stroke-width="2" stroke-linecap="round" stroke-linejoin="round" stroke-miterlimit="10" x1="177.6" y1="50" x2="171.1" y2="50"/>
	
		<line id="XMLID_2_" fill="none" stroke="#B3B3B3" stroke-width="2" stroke-linecap="round" stroke-linejoin="round" stroke-miterlimit="10" x1="221.7" y1="50" x2="215.1" y2="50"/>
</g>
<g id="XMLID_9_">
	<path id="XMLID_11_" fill="#B3B3B3" d="M67,64H36.3v-4.2h2.1c0.6,0,1.1-0.5,1.1-1.1s-0.5-1.1-1.1-1.1h-2.1v-3.2
		c0.6,0,1.1-0.5,1.1-1.1c0-0.6-0.5-1.1-1.1-1.1v-3.2h2.1c0.6,0,1.1-0.5,1.1-1.1s-0.5-1.1-1.1-1.1h-2.1V44c0.6,0,1.1-0.5,1.1-1.1
		c0-0.6-0.5-1.1-1.1-1.1v-3.2h2.1c0.6,0,1.1-0.5,1.1-1.1s-0.5-1.1-1.1-1.1h-2.1v-3.2c0-0.6-0.5-1.1-1.1-1.1c-0.6,0-1.1,0.5-1.1,1.1
		V64c0,1.2,0.9,2.1,2.1,2.1H67c0.6,0,1.1-0.5,1.1-1.1S67.5,64,67,64z"/>
	<path id="XMLID_10_" fill="#B3B3B3" d="M63.8,50.3c0.6,0,1.1-0.5,1.1-1.1V44c0-0.1,0-0.1,0-0.2c0,0,0-0.1,0-0.1c0,0,0-0.1,0-0.1
		c0,0,0-0.1-0.1-0.1c0,0,0-0.1,0-0.1c-0.1-0.1-0.2-0.2-0.3-0.3c0,0-0.1,0-0.1,0c0,0-0.1,0-0.1-0.1c0,0-0.1,0-0.1,0c0,0-0.1,0-0.1,0
		c-0.1,0-0.1,0-0.2,0h-5.3c-0.6,0-1.1,0.5-1.1,1.1s0.5,1.1,1.1,1.1h2.7L51.1,55.1l-2.4-2.4c-0.4-0.4-1.1-0.4-1.5,0L41.9,58
		c-0.4,0.4-0.4,1.1,0,1.5c0.2,0.2,0.5,0.3,0.7,0.3s0.5-0.1,0.7-0.3l4.5-4.5l2.4,2.4c0.4,0.4,1.1,0.4,1.5,0l10.9-10.9v2.7
		C62.7,49.8,63.2,50.3,63.8,50.3z"/>
</g>
</svg>
