<?xml version="1.0" encoding="utf-8"?>
<!-- Generator: Adobe Illustrator 18.0.0, SVG Export Plug-In . SVG Version: 6.00 Build 0)  -->
<!DOCTYPE svg PUBLIC "-//W3C//DTD SVG 1.1//EN" "http://www.w3.org/Graphics/SVG/1.1/DTD/svg11.dtd">
<svg version="1.1" id="Layer_1" xmlns="http://www.w3.org/2000/svg" xmlns:xlink="http://www.w3.org/1999/xlink" x="0px" y="0px"
	 viewBox="0 0 100 100" enable-background="new 0 0 100 100" xml:space="preserve">
<g>
	
		<circle fill="none" stroke="#FF8D8D" stroke-width="0.5" stroke-miterlimit="10" stroke-dasharray="1.9906,1.9906" cx="49" cy="50" r="45"/>
</g>
<circle fill="none" stroke="#C7B299" stroke-miterlimit="10" cx="49" cy="50" r="41.7"/>
<g>
	
		<circle fill="none" stroke="#FF8D8D" stroke-width="0.5" stroke-miterlimit="10" stroke-dasharray="1.9906,1.9906" cx="149.5" cy="165.8" r="45"/>
</g>
<circle fill="#FF8D8D" cx="149.5" cy="165.8" r="41.7"/>
<path fill="#FFFFFF" d="M-31.5,167.4c-0.1,0-0.3,0-0.4,0l0.1-0.1C-31.7,167.4-31.6,167.4-31.5,167.4z"/>
<g>
	<path fill="#FF8D8D" d="M290.6,17.5c-0.5-3.3-6-5.8-12.6-5.8c-7,0-12.6,2.8-12.6,6.3c0,0.1,0,0.3,0,0.4c-4.3,0.4-7.6,2.8-7.6,5.8
		c0,1.9,1.4,3.7,3.7,4.7l0,0c-0.1,0-0.2-0.1-0.2-0.1c0,0.1,0,0.2,0,0.2c2.4,4.7,4.8,9.4,7.3,14.1c0.2,0.3,0.9,0.6,1.3,0.6
		c5.9,0,11.8,0,17.7,0c0.8,0,1.2-0.3,1.5-0.9c1.2-2.4,2.5-4.8,3.7-7.2c1.1-2.1,2.2-4.2,3.2-6.3c3.7-1.1,6.2-3.2,6.2-5.6
		C302.2,20.4,297,17.5,290.6,17.5z M271.5,43.1c-0.5-0.2-1.2-0.3-1.3-0.5c-1.8-4.1-3.4-8.3-5.1-12.4c0.1-0.1,0.1-0.1,0.2-0.2
		l0.1-0.1c0.1,0,0.2,0.1,0.3,0.1c0.4,0.2,0.8,0.3,1,0.6c1.7,4,3.3,8,5,12C271.6,42.6,271.6,42.7,271.5,43.1z M274.7,43.2
		c-0.5-0.3-1.1-0.5-1.1-0.8c-0.9-4.1-1.7-8.1-2.6-12.2c0.1-0.1,0.2-0.2,0.3-0.3c0.3,0.2,0.9,0.4,1,0.7c0.9,4,1.8,8,2.6,12
		C274.9,42.7,274.8,42.7,274.7,43.2z M277.5,42.9c-0.2,0-0.6-0.6-0.6-0.9c-0.3-3.1-0.5-6.3-0.7-9.4c-0.1-0.8,0-1.6,0-2.5
		c0.1-0.1,0.3-0.2,0.4-0.3c0.3,0.3,0.7,0.6,0.7,0.9c0.2,1.6,0.3,3.1,0.4,4.7c0.2,2.2,0.3,4.3,0.5,6.5
		C278.2,42.4,278.3,43,277.5,42.9z M281.9,30.8c-0.2,3.8-0.4,7.6-0.7,11.3c0,0.3-0.4,0.6-0.6,0.9c-0.2-0.2-0.6-0.5-0.6-0.7
		c0.2-4,0.5-8.1,0.7-12.1C281.6,29.9,282,30,281.9,30.8z M283.4,43.1c-0.1-0.1-0.3-0.2-0.4-0.2c0.3-1.5,0.6-3.1,1-4.6
		c0.6-2.5,1.2-5,1.7-7.5c0.2-0.9,0.6-1.1,1.5-0.7c-0.9,4.1-1.9,8.2-2.9,12.2C284.2,42.7,283.7,42.9,283.4,43.1z M292.2,30.2
		c-0.9,2.2-1.7,4.3-2.6,6.5c-0.7,1.8-1.5,3.7-2.2,5.5c-0.3,0.7-0.6,1-1.6,0.6c1.2-3.1,2.5-6.2,3.7-9.2c0.4-1,0.8-1.9,1.2-2.9
		c0.1-0.2,0.1-0.4,0.2-0.5C291.2,29.9,291.6,29.9,292.2,30.2C292.3,30.2,292.2,30.2,292.2,30.2z"/>
	<g id="EOJERY.tif">
		<g>
			<path fill="#FF8D8D" d="M295.5,45.2c-0.1,1.3-0.8,1.9-2.3,1.9c-1.7,0-3.5,0-5.2,0c-0.3,0-0.6,0.3-1,0.4c-0.3,0.2-0.7,0.5-1,0.5
				c-4.7,0-9.5,0-14.2,0c-0.3,0-0.8-0.1-0.9-0.3c-0.4-0.7-1-0.6-1.6-0.6c-1.6,0-3.2,0-4.8,0c-1.4,0-2.1-0.6-2.3-1.9
				C273.4,45.2,284.5,45.2,295.5,45.2z"/>
		</g>
	</g>
</g>
<g>
	<path fill="#FFFFFF" d="M161.1,152.4c-0.5-3.3-6-5.8-12.6-5.8c-7,0-12.6,2.8-12.6,6.3c0,0.1,0,0.3,0,0.4c-4.3,0.4-7.6,2.8-7.6,5.8
		c0,1.9,1.4,3.7,3.7,4.7l0,0c-0.1,0-0.2-0.1-0.2-0.1c0,0.1,0,0.2,0,0.2c2.4,4.7,4.8,9.4,7.3,14.1c0.2,0.3,0.9,0.6,1.3,0.6
		c5.9,0,11.8,0,17.7,0c0.8,0,1.2-0.3,1.5-0.9c1.2-2.4,2.5-4.8,3.7-7.2c1.1-2.1,2.2-4.2,3.2-6.3c3.7-1.1,6.2-3.2,6.2-5.6
		C172.7,155.3,167.5,152.4,161.1,152.4z M142,178c-0.5-0.2-1.2-0.3-1.3-0.5c-1.8-4.1-3.4-8.3-5.1-12.4c0.1-0.1,0.1-0.1,0.2-0.2
		l0.1-0.1c0.1,0,0.2,0.1,0.3,0.1c0.4,0.2,0.8,0.3,1,0.6c1.7,4,3.3,8,5,12C142.1,177.5,142.1,177.6,142,178z M145.2,178.1
		c-0.5-0.3-1.1-0.5-1.1-0.8c-0.9-4.1-1.7-8.1-2.6-12.2c0.1-0.1,0.2-0.2,0.3-0.3c0.3,0.2,0.9,0.4,1,0.7c0.9,4,1.8,8,2.6,12
		C145.4,177.6,145.3,177.6,145.2,178.1z M148,177.8c-0.2,0-0.6-0.6-0.6-0.9c-0.3-3.1-0.5-6.3-0.7-9.4c-0.1-0.8,0-1.6,0-2.5
		c0.1-0.1,0.3-0.2,0.4-0.3c0.3,0.3,0.7,0.6,0.7,0.9c0.2,1.6,0.3,3.1,0.4,4.7c0.2,2.2,0.3,4.3,0.5,6.5
		C148.7,177.3,148.8,177.9,148,177.8z M152.4,165.7c-0.2,3.8-0.4,7.6-0.7,11.3c0,0.3-0.4,0.6-0.6,0.9c-0.2-0.2-0.6-0.5-0.6-0.7
		c0.2-4,0.5-8.1,0.7-12.1C152.1,164.8,152.5,164.9,152.4,165.7z M153.9,178c-0.1-0.1-0.3-0.2-0.4-0.2c0.3-1.5,0.6-3.1,1-4.6
		c0.6-2.5,1.2-5,1.7-7.5c0.2-0.9,0.6-1.1,1.5-0.7c-0.9,4.1-1.9,8.2-2.9,12.2C154.7,177.6,154.2,177.8,153.9,178z M162.7,165.1
		c-0.9,2.2-1.7,4.3-2.6,6.5c-0.7,1.8-1.5,3.7-2.2,5.5c-0.3,0.7-0.6,1-1.6,0.6c1.2-3.1,2.5-6.2,3.7-9.2c0.4-1,0.8-1.9,1.2-2.9
		c0.1-0.2,0.1-0.4,0.2-0.5C161.7,164.8,162.1,164.8,162.7,165.1C162.8,165.1,162.7,165.1,162.7,165.1z"/>
	<g id="EOJERY.tif_3_">
		<g>
			<path fill="#FFFFFF" d="M166,180.1c-0.1,1.3-0.8,1.9-2.3,1.9c-1.7,0-3.5,0-5.2,0c-0.3,0-0.6,0.3-1,0.4c-0.3,0.2-0.7,0.5-1,0.5
				c-4.7,0-9.5,0-14.2,0c-0.3,0-0.8-0.1-0.9-0.3c-0.4-0.7-1-0.6-1.6-0.6c-1.6,0-3.2,0-4.8,0c-1.4,0-2.1-0.6-2.3-1.9
				C143.9,180.1,155,180.1,166,180.1z"/>
		</g>
	</g>
</g>
<g>
	<path fill="#FF8D8D" d="M179.3,40.5c-0.5-3.3-6-5.8-12.6-5.8c-7,0-12.6,2.8-12.6,6.3c0,0.1,0,0.3,0,0.4c-4.3,0.4-7.6,2.8-7.6,5.8
		c0,1.9,1.4,3.7,3.7,4.7l0,0c-0.1,0-0.2-0.1-0.2-0.1c0,0.1,0,0.2,0,0.2c2.4,4.7,4.8,9.4,7.3,14.1c0.2,0.3,0.9,0.6,1.3,0.6
		c5.9,0,11.8,0,17.7,0c0.8,0,1.2-0.3,1.5-0.9c1.2-2.4,2.5-4.8,3.7-7.2c1.1-2.1,2.2-4.2,3.2-6.3c3.7-1.1,6.2-3.2,6.2-5.6
		C190.9,43.4,185.7,40.5,179.3,40.5z M160.2,66.1c-0.5-0.2-1.2-0.3-1.3-0.5c-1.8-4.1-3.4-8.3-5.1-12.4c0.1-0.1,0.1-0.1,0.2-0.2
		l0.1-0.1c0.1,0,0.2,0.1,0.3,0.1c0.4,0.2,0.8,0.3,1,0.6c1.7,4,3.3,8,5,12C160.3,65.6,160.3,65.7,160.2,66.1z M163.4,66.2
		c-0.5-0.3-1.1-0.5-1.1-0.8c-0.9-4.1-1.7-8.1-2.6-12.2c0.1-0.1,0.2-0.2,0.3-0.3c0.3,0.2,0.9,0.4,1,0.7c0.9,4,1.8,8,2.6,12
		C163.6,65.7,163.5,65.7,163.4,66.2z M166.2,65.9c-0.2,0-0.6-0.6-0.6-0.9c-0.3-3.1-0.5-6.3-0.7-9.4c-0.1-0.8,0-1.6,0-2.5
		c0.1-0.1,0.3-0.2,0.4-0.3c0.3,0.3,0.7,0.6,0.7,0.9c0.2,1.6,0.3,3.1,0.4,4.7c0.2,2.2,0.3,4.3,0.5,6.5C166.9,65.4,167,66,166.2,65.9z
		 M170.6,53.8c-0.2,3.8-0.4,7.6-0.7,11.3c0,0.3-0.4,0.6-0.6,0.9c-0.2-0.2-0.6-0.5-0.6-0.7c0.2-4,0.5-8.1,0.7-12.1
		C170.3,52.9,170.7,53,170.6,53.8z M172.1,66.1c-0.1-0.1-0.3-0.2-0.4-0.2c0.3-1.5,0.6-3.1,1-4.6c0.6-2.5,1.2-5,1.7-7.5
		c0.2-0.9,0.6-1.1,1.5-0.7c-0.9,4.1-1.9,8.2-2.9,12.2C172.9,65.7,172.4,65.9,172.1,66.1z M180.9,53.2c-0.9,2.2-1.7,4.3-2.6,6.5
		c-0.7,1.8-1.5,3.7-2.2,5.5c-0.3,0.7-0.6,1-1.6,0.6c1.2-3.1,2.5-6.2,3.7-9.2c0.4-1,0.8-1.9,1.2-2.9c0.1-0.2,0.1-0.4,0.2-0.5
		C179.9,52.9,180.3,52.9,180.9,53.2C181,53.2,180.9,53.2,180.9,53.2z"/>
	<g id="EOJERY.tif_2_">
		<g>
			<path fill="#FF8D8D" d="M184.2,68.2c-0.1,1.3-0.8,1.9-2.3,1.9c-1.7,0-3.5,0-5.2,0c-0.3,0-0.6,0.3-1,0.4c-0.3,0.2-0.7,0.5-1,0.5
				c-4.7,0-9.5,0-14.2,0c-0.3,0-0.8-0.1-0.9-0.3c-0.4-0.7-1-0.6-1.6-0.6c-1.6,0-3.2,0-4.8,0c-1.4,0-2.1-0.6-2.3-1.9
				C162.1,68.2,173.2,68.2,184.2,68.2z"/>
		</g>
	</g>
</g>
<ellipse fill="#80BDB6" cx="-215.7" cy="-41.4" rx="20.3" ry="16.6"/>
<g>
	
		<ellipse fill="none" stroke="#FF8D8D" stroke-width="0.5" stroke-miterlimit="10" stroke-dasharray="1.9998,1.9998" cx="-199.7" cy="14.6" rx="20.3" ry="16.6"/>
</g>
<ellipse fill="#FF8D8D" cx="-172.7" cy="-12.4" rx="20.3" ry="16.6"/>
<g id="EOJERY.tif_1_">
	<g>
		<path fill="#FF8D8D" d="M221.7,77.3c0.3,0,0.7,0.1,1,0.1c11,0,22.1,0,33.1,0c0.3,0,0.7,0,1.1,0c0,1,0,1.9,0,2.9c0.5,0,0.9,0,1.4,0
			c2.6,0,4.2,1.1,4.8,3.3c0.6,2.2-0.3,4.6-2.2,5.9c-1.9,1.3-4,1.8-6.3,2c-0.3,0-0.8,0.2-1,0.5c-1.9,2.3-4.4,3.6-7.2,4.5
			c-0.3,0.1-0.5,0-0.8,0c-4.1,0-8.2,0-12.2,0c-2.2,0-4-1-5.8-2.1c-3.4-2.2-4.8-5.6-5.4-9.4c-0.2-1.3-0.3-2.6-0.5-3.9
			C221.7,79.8,221.7,78.5,221.7,77.3z M255.7,88.7c1-0.3,2.1-0.6,3-1c0.7-0.3,1.3-0.9,1.7-1.6c0.8-1.2,0.3-2.8-0.8-3.1
			c-0.7-0.2-1.5-0.2-2.2-0.2c-0.2,0-0.5,0.3-0.6,0.6C256.3,85.1,256,86.8,255.7,88.7z"/>
		<path fill="#FF8D8D" d="M254.8,97.5c-0.1,1.1-0.7,1.7-2,1.7c-1.5,0-3.1,0-4.6,0c-0.3,0-0.6,0.3-0.9,0.4c-0.3,0.1-0.6,0.4-0.9,0.4
			c-4.2,0-8.4,0-12.6,0c-0.3,0-0.7-0.1-0.8-0.3c-0.3-0.7-0.9-0.5-1.4-0.5c-1.4,0-2.9,0-4.3,0c-1.2,0-1.8-0.5-2-1.7
			C235.2,97.5,245,97.5,254.8,97.5z"/>
		<path fill="#FF8D8D" d="M240.7,60.5c-1,0.9-1.9,1.8-2.3,3.2c-0.5,1.8,0,3.4,0.7,4.9c0.4,0.9,0.9,1.8,1.2,2.7
			c0.6,1.8,0,3.2-1.7,3.9c-0.7,0.3-1.4,0.5-2.2,0.7c1.4-1.9,1.4-3,0.1-5.1c-0.5-0.9-1.1-1.8-1.4-2.8c-0.8-2.4-0.1-4.3,1.9-5.8
			c1.1-0.8,2.3-1.4,3.5-2C240.5,60.3,240.6,60.4,240.7,60.5z"/>
		<path fill="#FF8D8D" d="M243.4,67.5c-1,1-0.7,1.8-0.2,2.7l0.1,0.1c1.8,2.8-0.1,4.5-2.5,5.1c1.8-1.4,1.5-3,0.8-4.7
			c-0.2-0.5-0.5-1.2-0.4-1.8C241.3,68,242.3,67.7,243.4,67.5z"/>
	</g>
</g>
<path fill="#8C6239" d="M199.4-34.8c0-5.1-4.2-9.2-9.4-9.2c-3.1,0-5.8,1.4-7.5,3.6c-1.7-2.2-4.4-3.6-7.5-3.6c-5.2,0-9.4,4.1-9.4,9.2
	c0,2.2,0.8,4.2,2.1,5.8l0,0c0.1,0.2,14.8,16.6,14.8,16.6L197.3-29C198.6-30.7,199.4-32.7,199.4-34.8z"/>
<path fill="#7F7770" d="M254.6,27.6c0-5.1-4.2-9.2-9.4-9.2c-3.1,0-5.8,1.4-7.5,3.6c-1.7-2.2-4.4-3.6-7.5-3.6c-5.2,0-9.4,4.1-9.4,9.2
	c0,2.2,0.8,4.2,2.1,5.8l0,0C223,33.5,237.7,50,237.7,50l14.8-16.6C253.8,31.7,254.6,29.7,254.6,27.6z"/>
<path fill="#7F7770" d="M167.9-6.6c0-5.1-4.2-9.2-9.4-9.2c-3.1,0-5.8,1.4-7.5,3.6c-1.7-2.2-4.4-3.6-7.5-3.6c-5.2,0-9.4,4.1-9.4,9.2
	c0,2.2,0.8,4.2,2.1,5.8l0,0c0.1,0.1,14.8,16.6,14.8,16.6l14.8-16.6C167.1-2.5,167.9-4.5,167.9-6.6z"/>
<path fill="#FF8D8D" d="M65.9,43.4c0-5.1-4.2-9.2-9.4-9.2c-3.1,0-5.8,1.4-7.5,3.6c-1.7-2.2-4.4-3.6-7.5-3.6c-5.2,0-9.4,4.1-9.4,9.2
	c0,2.2,0.8,4.2,2.1,5.8l0,0C34.3,49.3,49,65.8,49,65.8l14.8-16.6C65.1,47.5,65.9,45.5,65.9,43.4z"/>
<rect x="-6" y="-98.8" fill="#A67C52" width="56" height="12.2"/>
<circle fill="#7F7770" cx="-75" cy="4.1" r="22.7"/>
<rect x="149.5" y="127.2" fill="#FF8D8D" width="64.5" height="26.8"/>
<circle fill="#FF8D8D" cx="162.2" cy="33.8" r="4.5"/>
<path fill="#FF8D8D" d="M161.3,32.6c0,0,0.6,0.6-0.6,0.8c0,0-1.4-0.7-1.8-1.9c0,0-2.3-5,8.2-7.8c0,0,5.8-2.4,4-4.3
	c0,0-0.4,0.3-0.5,0c0,0-0.8-1,0-0.6c0,0,2.5,0.4,0.6,2.9c0,0-0.1,1.4-5.8,3.2c0,0-7.6,2-5.7,6.6c0,0-0.3-0.1,0.2,0.5
	C160,32.1,160.8,31.9,161.3,32.6z"/>
</svg>
