<?xml version="1.0" encoding="utf-8"?>
<!-- Generator: Adobe Illustrator 18.0.0, SVG Export Plug-In . SVG Version: 6.00 Build 0)  -->
<!DOCTYPE svg PUBLIC "-//W3C//DTD SVG 1.1//EN" "http://www.w3.org/Graphics/SVG/1.1/DTD/svg11.dtd">
<svg version="1.1" id="Layer_1" xmlns="http://www.w3.org/2000/svg" xmlns:xlink="http://www.w3.org/1999/xlink" x="0px" y="0px"
	 viewBox="0 0 300 300" enable-background="new 0 0 300 300" xml:space="preserve">
<g>
	<path fill="none" stroke="#FFFFFF" stroke-width="0.75" stroke-miterlimit="10" d="M298.4,150.6c0,2.4-2.9,4.7-3.1,7.1
		c-0.1,2.4,2.6,5,2.3,7.4c-0.2,2.4-3.4,4.4-3.7,6.8c-0.4,2.4,2.1,5.2,1.6,7.6c-0.5,2.4-3.8,4.1-4.4,6.4c-0.6,2.3,1.6,5.4,0.9,7.7
		c-0.7,2.3-4.2,3.7-5,5.9c-0.8,2.3,1,5.5,0.1,7.8c-0.9,2.2-4.5,3.2-5.6,5.4c-1,2.2,0.5,5.6-0.7,7.7c-1.1,2.1-4.8,2.8-6.1,4.8
		c-1.2,2.1-0.1,5.6-1.4,7.6c-1.3,2-5.1,2.3-6.5,4.2c-1.4,1.9-0.6,5.6-2.2,7.4c-1.5,1.9-5.3,1.8-6.9,3.6c-1.6,1.8-1.2,5.5-2.9,7.2
		c-1.7,1.7-5.4,1.3-7.2,2.9c-1.8,1.6-1.7,5.4-3.6,6.9c-1.9,1.5-5.5,0.7-7.4,2.2c-1.9,1.4-2.2,5.2-4.2,6.5c-2,1.3-5.6,0.2-7.6,1.4
		c-2.1,1.2-2.7,4.9-4.8,6.1c-2.1,1.1-5.6-0.4-7.7,0.7c-2.2,1-3.2,4.6-5.4,5.6c-2.2,0.9-5.5-0.9-7.8-0.1c-2.3,0.8-3.6,4.3-5.9,5
		c-2.3,0.7-5.4-1.4-7.7-0.9c-2.3,0.6-4,3.9-6.4,4.4c-2.3,0.5-5.2-2-7.6-1.6c-2.4,0.3-4.4,3.5-6.8,3.7c-2.4,0.2-5-2.5-7.4-2.3
		c-2.4,0.1-4.7,3.1-7.1,3.1c-2.4,0-4.7-2.9-7.1-3.1c-2.4-0.1-5,2.6-7.4,2.3c-2.4-0.2-4.4-3.4-6.8-3.7c-2.4-0.4-5.2,2.1-7.6,1.6
		c-2.4-0.5-4.1-3.8-6.4-4.4c-2.3-0.6-5.4,1.6-7.7,0.9c-2.3-0.7-3.7-4.2-5.9-5c-2.3-0.8-5.5,1-7.8,0.1c-2.2-0.9-3.2-4.5-5.4-5.6
		c-2.2-1-5.6,0.5-7.7-0.7c-2.1-1.1-2.8-4.8-4.8-6.1c-2.1-1.2-5.6-0.1-7.6-1.4c-2-1.3-2.3-5.1-4.2-6.5c-1.9-1.4-5.6-0.6-7.4-2.2
		c-1.9-1.5-1.8-5.3-3.6-6.9c-1.8-1.6-5.5-1.2-7.2-2.9s-1.3-5.4-2.9-7.2c-1.6-1.8-5.4-1.7-6.9-3.6c-1.5-1.9-0.7-5.5-2.2-7.4
		c-1.4-1.9-5.2-2.2-6.5-4.2c-1.3-2-0.2-5.6-1.4-7.6c-1.2-2.1-4.9-2.7-6.1-4.8c-1.1-2.1,0.4-5.6-0.7-7.7c-1-2.2-4.6-3.2-5.6-5.4
		c-0.9-2.2,0.9-5.5,0.1-7.8c-0.8-2.3-4.3-3.6-5-5.9c-0.7-2.3,1.4-5.4,0.9-7.7c-0.6-2.3-3.9-4-4.4-6.4c-0.5-2.3,2-5.2,1.6-7.6
		c-0.3-2.4-3.5-4.4-3.7-6.8c-0.2-2.4,2.5-5,2.3-7.4c-0.1-2.4-3.1-4.7-3.1-7.1c0-2.4,2.9-4.7,3.1-7.1c0.1-2.4-2.6-5-2.3-7.4
		c0.2-2.4,3.4-4.4,3.7-6.8c0.4-2.4-2.1-5.2-1.6-7.6c0.5-2.4,3.8-4.1,4.4-6.4c0.6-2.3-1.6-5.4-0.9-7.7c0.7-2.3,4.2-3.7,5-5.9
		c0.8-2.3-1-5.5-0.1-7.8c0.9-2.2,4.5-3.2,5.6-5.4c1-2.2-0.5-5.6,0.7-7.7c1.1-2.1,4.8-2.8,6.1-4.8c1.2-2.1,0.1-5.6,1.4-7.6
		c1.3-2,5.1-2.3,6.5-4.2c1.4-1.9,0.6-5.6,2.2-7.4c1.5-1.9,5.3-1.8,6.9-3.6c1.6-1.8,1.2-5.5,2.9-7.2c1.7-1.7,5.4-1.3,7.2-2.9
		c1.8-1.6,1.7-5.4,3.6-6.9c1.9-1.5,5.5-0.7,7.4-2.2c1.9-1.4,2.2-5.2,4.2-6.5c2-1.3,5.6-0.2,7.6-1.4c2.1-1.2,2.7-4.9,4.8-6.1
		c2.1-1.1,5.6,0.4,7.7-0.7c2.2-1,3.2-4.6,5.4-5.6c2.2-0.9,5.5,0.9,7.8,0.1c2.3-0.8,3.6-4.3,5.9-5c2.3-0.7,5.4,1.4,7.7,0.9
		c2.3-0.6,4-3.9,6.4-4.4c2.3-0.5,5.2,2,7.6,1.6c2.4-0.3,4.4-3.5,6.8-3.7c2.4-0.2,5,2.5,7.4,2.3c2.4-0.1,4.7-3.1,7.1-3.1
		c2.4,0,4.7,2.9,7.1,3.1c2.4,0.1,5-2.6,7.4-2.3c2.4,0.2,4.4,3.4,6.8,3.7c2.4,0.4,5.2-2.1,7.6-1.6c2.4,0.5,4.1,3.8,6.4,4.4
		c2.3,0.6,5.4-1.6,7.7-0.9c2.3,0.7,3.7,4.2,5.9,5c2.3,0.8,5.5-1,7.8-0.1c2.2,0.9,3.2,4.5,5.4,5.6c2.2,1,5.6-0.5,7.7,0.7
		c2.1,1.1,2.8,4.8,4.8,6.1c2.1,1.2,5.6,0.1,7.6,1.4c2,1.3,2.3,5.1,4.2,6.5c1.9,1.4,5.6,0.6,7.4,2.2c1.9,1.5,1.8,5.3,3.6,6.9
		c1.8,1.6,5.5,1.2,7.2,2.9c1.7,1.7,1.3,5.4,2.9,7.2c1.6,1.8,5.4,1.7,6.9,3.6c1.5,1.9,0.7,5.5,2.2,7.4c1.4,1.9,5.2,2.2,6.5,4.2
		c1.3,2,0.2,5.6,1.4,7.6c1.2,2.1,4.9,2.7,6.1,4.8c1.1,2.1-0.4,5.6,0.7,7.7c1,2.2,4.6,3.2,5.6,5.4c0.9,2.2-0.9,5.5-0.1,7.8
		c0.8,2.3,4.3,3.6,5,5.9c0.7,2.3-1.4,5.4-0.9,7.7c0.6,2.3,3.9,4,4.4,6.4c0.5,2.3-2,5.2-1.6,7.6c0.3,2.4,3.5,4.4,3.7,6.8
		c0.2,2.4-2.5,5-2.3,7.4C295.5,145.9,298.4,148.2,298.4,150.6z"/>
</g>
<g>
	<path fill="#FFFFFF" d="M182.4,213.3c0-1.6,0.2-3,0.7-4.4c0.5-1.4,1.1-2.5,2-3.6c0.9-1,1.9-1.8,3.2-2.4c1.3-0.6,2.7-0.9,4.3-0.9
		c1.3,0,2.3,0.2,3.3,0.5c0.9,0.3,1.7,0.7,2.3,1.2c0.6,0.5,1.1,1,1.5,1.6c0.4,0.6,0.7,1.1,0.9,1.6c0.2,0.5,0.4,0.9,0.4,1.3
		c0.1,0.4,0.1,0.6,0.1,0.6h-1.3c-0.1-0.9-0.4-1.7-0.9-2.4c-0.4-0.7-1-1.3-1.6-1.8c-0.7-0.5-1.4-0.9-2.2-1.1
		c-0.8-0.3-1.7-0.4-2.6-0.4c-1.4,0-2.6,0.3-3.7,0.8c-1.1,0.5-2,1.3-2.8,2.2c-0.8,0.9-1.3,2-1.7,3.2c-0.4,1.2-0.6,2.5-0.6,3.9
		c0,1.4,0.2,2.7,0.6,3.9c0.4,1.2,1,2.3,1.7,3.2c0.8,0.9,1.7,1.6,2.8,2.2c1.1,0.5,2.3,0.8,3.7,0.8c1,0,2-0.2,2.9-0.6
		c0.9-0.4,1.7-1,2.4-1.7c0.7-0.7,1.2-1.5,1.6-2.5c0.4-0.9,0.6-1.9,0.7-2.9h1.3c-0.1,1.3-0.4,2.5-0.9,3.5c-0.5,1.1-1.2,2-1.9,2.8
		c-0.8,0.8-1.7,1.4-2.7,1.8c-1,0.4-2.1,0.7-3.3,0.7c-1.6,0-3-0.3-4.3-0.9c-1.3-0.6-2.3-1.4-3.2-2.4c-0.9-1-1.5-2.2-2-3.6
		C182.6,216.3,182.4,214.9,182.4,213.3z"/>
	<path fill="#FFFFFF" d="M202.7,216.3c0-1.1,0.2-2.1,0.5-3.1c0.3-1,0.8-1.8,1.4-2.6c0.6-0.7,1.3-1.3,2.2-1.7c0.9-0.4,1.9-0.6,3-0.6
		c1.1,0,2.1,0.2,3,0.6c0.9,0.4,1.6,1,2.2,1.7c0.6,0.7,1.1,1.6,1.4,2.6c0.3,1,0.5,2,0.5,3.1c0,1.1-0.2,2.1-0.5,3.1
		c-0.3,1-0.8,1.8-1.4,2.6c-0.6,0.7-1.3,1.3-2.2,1.7c-0.9,0.4-1.9,0.6-3,0.6c-1.1,0-2.1-0.2-3-0.6c-0.9-0.4-1.6-1-2.2-1.7
		c-0.6-0.7-1.1-1.6-1.4-2.6C202.8,218.4,202.7,217.4,202.7,216.3z M203.8,216.3c0,0.9,0.1,1.8,0.4,2.6c0.3,0.8,0.6,1.6,1.1,2.3
		c0.5,0.7,1.1,1.2,1.9,1.6c0.7,0.4,1.6,0.6,2.5,0.6c1,0,1.8-0.2,2.5-0.6c0.7-0.4,1.4-0.9,1.9-1.6c0.5-0.7,0.9-1.4,1.1-2.3
		c0.3-0.8,0.4-1.7,0.4-2.6c0-0.9-0.1-1.8-0.4-2.6c-0.3-0.8-0.6-1.6-1.1-2.3c-0.5-0.7-1.1-1.2-1.9-1.6c-0.7-0.4-1.6-0.6-2.5-0.6
		c-1,0-1.8,0.2-2.5,0.6c-0.7,0.4-1.4,0.9-1.9,1.6c-0.5,0.7-0.9,1.4-1.1,2.3C203.9,214.5,203.8,215.4,203.8,216.3z"/>
	<path fill="#FFFFFF" d="M217.2,209.6v-1h2.7v-3.2c0-0.5,0.1-1,0.3-1.4c0.2-0.4,0.4-0.7,0.7-0.9c0.3-0.2,0.7-0.4,1.1-0.5
		c0.4-0.1,0.8-0.2,1.3-0.2c0.3,0,0.8,0.1,1.3,0.2v1c-0.6-0.1-1-0.1-1.3-0.1c-0.6,0-1.2,0.1-1.6,0.4c-0.4,0.3-0.6,0.9-0.6,1.7v3.1
		h3.2v1h-3.2V224h-1.1v-14.4H217.2z"/>
	<path fill="#FFFFFF" d="M223.8,209.6v-1h2.7v-3.2c0-0.5,0.1-1,0.3-1.4c0.2-0.4,0.4-0.7,0.7-0.9c0.3-0.2,0.7-0.4,1.1-0.5
		c0.4-0.1,0.8-0.2,1.3-0.2c0.3,0,0.8,0.1,1.3,0.2v1c-0.6-0.1-1-0.1-1.3-0.1c-0.6,0-1.2,0.1-1.6,0.4c-0.4,0.3-0.6,0.9-0.6,1.7v3.1
		h3.2v1h-3.2V224h-1.1v-14.4H223.8z"/>
	<path fill="#FFFFFF" d="M232.5,216.4v0.2c0,0.9,0.1,1.8,0.4,2.6s0.6,1.5,1.1,2.2c0.5,0.6,1.1,1.1,1.8,1.5c0.7,0.4,1.5,0.5,2.5,0.5
		c1.5,0,2.8-0.4,3.7-1.2c0.9-0.8,1.5-1.9,1.9-3.4h1.1c-0.3,1.8-1.1,3.2-2.2,4.1c-1.1,1-2.6,1.4-4.5,1.4c-1.1,0-2.1-0.2-3-0.6
		c-0.8-0.4-1.6-1-2.1-1.7c-0.6-0.7-1-1.5-1.3-2.5c-0.3-1-0.4-2-0.4-3.1c0-1.1,0.1-2.1,0.4-3.1c0.3-1,0.7-1.9,1.3-2.6
		c0.6-0.7,1.3-1.3,2.2-1.8c0.9-0.4,1.9-0.7,3.1-0.7c1.1,0,2,0.2,2.9,0.6c0.8,0.4,1.5,0.9,2.1,1.6c0.6,0.7,1,1.5,1.3,2.4
		c0.3,0.9,0.4,1.9,0.4,2.9c0,0.1,0,0.2,0,0.3c0,0.1,0,0.2,0,0.3H232.5z M243.8,215.5c0-0.8-0.2-1.6-0.4-2.4c-0.2-0.7-0.6-1.4-1.1-2
		c-0.5-0.6-1-1-1.7-1.4c-0.7-0.3-1.4-0.5-2.3-0.5c-0.9,0-1.7,0.2-2.4,0.5c-0.7,0.3-1.3,0.8-1.8,1.4c-0.5,0.6-0.8,1.2-1.1,2
		c-0.3,0.8-0.4,1.5-0.5,2.3H243.8z"/>
	<path fill="#FFFFFF" d="M247.4,216.4v0.2c0,0.9,0.1,1.8,0.4,2.6s0.6,1.5,1.1,2.2c0.5,0.6,1.1,1.1,1.8,1.5c0.7,0.4,1.5,0.5,2.5,0.5
		c1.5,0,2.8-0.4,3.7-1.2c0.9-0.8,1.5-1.9,1.9-3.4h1.1c-0.3,1.8-1.1,3.2-2.2,4.1c-1.1,1-2.6,1.4-4.5,1.4c-1.1,0-2.1-0.2-3-0.6
		c-0.8-0.4-1.6-1-2.1-1.7s-1-1.5-1.3-2.5c-0.3-1-0.4-2-0.4-3.1c0-1.1,0.1-2.1,0.4-3.1c0.3-1,0.7-1.9,1.3-2.6
		c0.6-0.7,1.3-1.3,2.2-1.8c0.9-0.4,1.9-0.7,3.1-0.7c1.1,0,2,0.2,2.9,0.6c0.8,0.4,1.5,0.9,2.1,1.6c0.6,0.7,1,1.5,1.3,2.4
		c0.3,0.9,0.4,1.9,0.4,2.9c0,0.1,0,0.2,0,0.3c0,0.1,0,0.2,0,0.3H247.4z M258.7,215.5c0-0.8-0.2-1.6-0.4-2.4c-0.2-0.7-0.6-1.4-1.1-2
		c-0.5-0.6-1-1-1.7-1.4c-0.7-0.3-1.4-0.5-2.3-0.5c-0.9,0-1.7,0.2-2.4,0.5c-0.7,0.3-1.3,0.8-1.8,1.4c-0.5,0.6-0.8,1.2-1.1,2
		c-0.3,0.8-0.4,1.5-0.5,2.3H258.7z"/>
</g>
<g>
	<path fill="#FFFFFF" d="M147.7,206.6l4.7-1.5c2-0.6,3.4-0.5,4.3,0.1c0.4,0.3,0.7,0.6,0.8,1c0.1,0.4,0.1,0.7-0.1,1.1
		c-0.4,0.9-1.3,1.5-2.9,2c-2.7,0.8-5.3,0.5-8-1c-5,2.4-8.2,6.3-9.5,11.9c-0.8,3.6-0.8,6.9,0.1,9.8c0.5,1.6,1.2,3.2,2.2,4.6
		c2.9,4,6.9,5.3,12.1,3.8c4.6-1.4,8.1-4.1,10.6-8.2c2.5-4.1,3.2-7.7,2.3-10.7c-0.4-1.5-1.4-2.5-2.9-3.1c-1.5-0.6-3-0.8-4.4-0.5
		c-1.4,0.2-2.6,0.5-3.6,0.8c-1,0.3-2.2,0.8-3.6,1.4c-1.5,0.7-2.8,1.7-4,3.2c-1.4,1.7-1.8,3.6-1.2,5.6c0.6,2,2.7,3.4,6.3,4.1
		c0.6,0.1,0.9,0.4,0.9,0.9c0.1,0.5-0.1,0.7-0.5,0.6c-3.4-0.7-6-1.9-7.9-3.6c-1.2-1.1-2-2-2.2-2.9c-0.3-0.9-0.4-1.7-0.3-2.3
		c0.1-1.8,1.1-3.6,3-5.4c1.9-1.8,4.6-3.2,8.1-4.2l12.5-3.7c2.4-0.7,5.2-2.4,8.3-5.1c1.5-1.3,2.5-2.6,3-3.9c0.2-0.7,0.2-1.3,0-2
		c-0.2-0.6-0.5-1.1-0.9-1.5c-0.4-0.4-0.6-0.7-0.6-0.9c0-0.2,0.1-0.3,0.3-0.4c0.2-0.1,0.4,0,0.6,0.2c1,0.9,1.6,1.9,1.9,2.9
		c0.3,1,0.3,2-0.1,3c-0.6,2.1-2.2,4.1-4.7,6.1c-2.5,1.9-5.2,3.3-8.2,4.2c-0.1,0-0.2,0.1-0.4,0.1c2.2,0.9,3.7,2.5,4.3,4.8
		c0.9,3.1,0.1,6.9-2.6,11.3c-1.3,2.2-3.1,4.1-5.5,6c-2.4,1.8-5.1,3.2-8.1,4.1c-7.3,2.1-13,1.6-17.3-1.8c-2.1-1.7-3.5-3.5-4.1-5.5
		c-0.6-2-0.8-3.9-0.7-5.8c0.3-4.9,2.6-9.4,6.9-13.3c2.4-2.3,5.4-4.1,8.8-5.5c-1.9-1.4-3.2-3.5-4-6.3c-0.8-2.8-0.4-5.7,1.3-8.9
		c1.7-3.1,3.9-5.7,6.7-7.8c2.8-2,5.7-3.5,8.6-4.3c2.4-0.7,4.7-0.8,6.7-0.4c2,0.5,3.3,1.8,4,4c0.4,1.4,0.3,2.7-0.2,4
		c-0.5,1.3-1.3,2.1-2.4,2.4c-1.1,0.3-2,0.2-2.8-0.2c-0.8-0.4-1.4-1.1-1.6-2.1c-0.3-0.9-0.2-1.8,0.3-2.6c0.5-0.8,1.1-1.3,1.9-1.6
		c0.6-0.2,1.1-0.2,1.7-0.1c0.6,0.1,1,0.3,1.2,0.6c0-0.3-0.1-0.6-0.2-0.9c-0.3-1-1-1.7-2-2c-1.1-0.4-2.5-0.3-4.3,0.2
		c-1.8,0.5-3.7,1.6-5.8,3.3c-2.1,1.7-3.9,3.7-5.5,6.2c-1.6,2.5-2.6,5.2-3,8.2c-0.2,1.7-0.1,3.1,0.2,4.3
		C146.5,204.8,147,205.8,147.7,206.6z M156.3,206.4c-0.2-0.8-2.1-0.8-5.6,0.3c-0.7,0.2-1.4,0.4-2.2,0.7c1.5,1.1,3.3,1.3,5.2,0.8
		C155.6,207.6,156.5,207,156.3,206.4z"/>
</g>
<g>
	<path fill="#FFFFFF" d="M46.8,204.6v-1.1h16.3v1.1h-7.5v20.2h-1.3v-20.2H46.8z"/>
	<path fill="#FFFFFF" d="M62.1,212.9L62.1,212.9c0.2-0.5,0.5-1,0.9-1.4c0.4-0.4,0.8-0.8,1.3-1.1c0.5-0.3,1.1-0.6,1.8-0.7
		c0.6-0.2,1.3-0.2,2-0.2v1.1c-0.6-0.1-1.3,0-2,0.2c-0.8,0.2-1.5,0.6-2.2,1.3c-0.3,0.3-0.5,0.6-0.7,0.9c-0.2,0.3-0.4,0.6-0.5,0.9
		c-0.1,0.3-0.2,0.7-0.3,1.1c-0.1,0.4-0.1,0.9-0.1,1.5v8.4h-1.1v-15.4h1.1V212.9z"/>
	<path fill="#FFFFFF" d="M68.7,217.3v0.2c0,0.9,0.1,1.8,0.4,2.6c0.2,0.8,0.6,1.5,1.1,2.2c0.5,0.6,1.1,1.1,1.8,1.5
		c0.7,0.4,1.5,0.5,2.5,0.5c1.5,0,2.8-0.4,3.7-1.2c0.9-0.8,1.5-1.9,1.9-3.4H81c-0.3,1.8-1.1,3.2-2.2,4.1c-1.1,1-2.6,1.4-4.5,1.4
		c-1.1,0-2.1-0.2-3-0.6c-0.8-0.4-1.6-1-2.1-1.7c-0.6-0.7-1-1.5-1.3-2.5c-0.3-1-0.4-2-0.4-3.1c0-1.1,0.1-2.1,0.4-3.1
		c0.3-1,0.7-1.9,1.3-2.6c0.6-0.7,1.3-1.3,2.2-1.8c0.9-0.4,1.9-0.7,3.1-0.7c1.1,0,2,0.2,2.9,0.6c0.8,0.4,1.5,0.9,2.1,1.6
		c0.6,0.7,1,1.5,1.3,2.4c0.3,0.9,0.4,1.9,0.4,2.9c0,0.1,0,0.2,0,0.3c0,0.1,0,0.2,0,0.3H68.7z M80,216.3c0-0.8-0.2-1.6-0.4-2.4
		c-0.2-0.7-0.6-1.4-1.1-2c-0.5-0.6-1-1-1.7-1.4c-0.7-0.3-1.4-0.5-2.3-0.5c-0.9,0-1.7,0.2-2.4,0.5c-0.7,0.3-1.3,0.8-1.8,1.4
		s-0.8,1.2-1.1,2c-0.3,0.8-0.4,1.5-0.5,2.3H80z"/>
	<path fill="#FFFFFF" d="M93.4,221.8L93.4,221.8c-0.2,0.5-0.5,0.9-0.8,1.3c-0.3,0.4-0.8,0.8-1.2,1.1c-0.5,0.3-1,0.6-1.7,0.7
		c-0.6,0.2-1.3,0.3-2,0.3c-1.6,0-2.9-0.4-3.8-1.1c-0.9-0.7-1.3-1.8-1.3-3.3c0-0.9,0.2-1.6,0.5-2.2c0.4-0.6,0.8-1,1.4-1.3
		c0.5-0.3,1.2-0.6,1.8-0.7c0.7-0.1,1.3-0.2,1.9-0.3l1.8-0.1c0.8-0.1,1.5-0.2,1.9-0.3c0.5-0.1,0.8-0.3,1.1-0.5
		c0.2-0.2,0.4-0.5,0.4-0.9c0.1-0.4,0.1-0.8,0.1-1.3c0-0.4-0.1-0.8-0.2-1.2c-0.2-0.4-0.4-0.7-0.7-1c-0.3-0.3-0.8-0.5-1.3-0.7
		c-0.5-0.2-1.2-0.2-2-0.2c-1.4,0-2.5,0.3-3.3,1c-0.8,0.7-1.3,1.7-1.4,3.1h-1.1c0.1-1.7,0.6-3,1.6-3.8c1-0.8,2.4-1.3,4.3-1.3
		s3.2,0.4,4,1.1c0.8,0.7,1.3,1.7,1.3,2.9v8.9c0,0.2,0,0.4,0,0.7c0,0.2,0,0.4,0.1,0.6c0.1,0.2,0.2,0.3,0.3,0.4
		c0.1,0.1,0.3,0.2,0.6,0.2c0.2,0,0.5,0,0.8-0.1v1c-0.3,0.1-0.6,0.1-0.9,0.1c-0.5,0-0.8-0.1-1.1-0.2c-0.3-0.1-0.5-0.3-0.6-0.5
		c-0.1-0.2-0.2-0.4-0.3-0.7c-0.1-0.3-0.1-0.6-0.1-0.9V221.8z M93.4,216.1c-0.3,0.3-0.7,0.6-1.3,0.7c-0.6,0.1-1.2,0.2-1.9,0.3
		l-1.9,0.2c-0.6,0.1-1.1,0.1-1.7,0.3c-0.6,0.1-1.1,0.3-1.5,0.6c-0.4,0.3-0.8,0.6-1.1,1.1c-0.3,0.4-0.4,1-0.4,1.7
		c0,1.1,0.4,2,1.1,2.5s1.7,0.8,3,0.8c1.3,0,2.3-0.2,3.1-0.7c0.8-0.5,1.3-1,1.7-1.6c0.4-0.6,0.7-1.2,0.8-1.8c0.1-0.6,0.2-1,0.2-1.2
		V216.1z"/>
	<path fill="#FFFFFF" d="M103.2,210.5h-3.3v10.7c0,0.6,0.1,1.1,0.2,1.5c0.1,0.4,0.4,0.6,0.6,0.8c0.3,0.2,0.6,0.3,1,0.3
		c0.4,0,0.9,0,1.4,0v1c-0.6,0-1.1,0-1.7,0c-0.5,0-1-0.2-1.4-0.4c-0.4-0.2-0.8-0.6-1-1.1c-0.2-0.5-0.4-1.2-0.3-2.1v-10.7h-2.8v-1h2.8
		v-4.8h1.1v4.8h3.3V210.5z"/>
	<path fill="#FFFFFF" d="M105.2,219.7c0,0.7,0.2,1.3,0.5,1.9c0.3,0.5,0.6,1,1.1,1.4c0.4,0.4,1,0.7,1.6,0.9c0.6,0.2,1.2,0.3,1.9,0.3
		c0.5,0,1,0,1.6-0.1c0.6-0.1,1.1-0.3,1.6-0.5c0.5-0.2,0.9-0.6,1.2-1c0.3-0.4,0.5-1,0.5-1.6c0-0.9-0.3-1.5-0.8-1.9
		c-0.5-0.4-1.2-0.8-2-1c-0.8-0.2-1.6-0.4-2.5-0.6c-0.9-0.1-1.8-0.4-2.5-0.7c-0.8-0.3-1.4-0.7-2-1.3c-0.5-0.5-0.8-1.3-0.8-2.4
		c0-0.8,0.2-1.4,0.5-1.9c0.3-0.5,0.8-0.9,1.3-1.2c0.5-0.3,1.1-0.5,1.8-0.6c0.7-0.1,1.3-0.2,2-0.2c0.8,0,1.5,0.1,2.2,0.3
		c0.7,0.2,1.3,0.5,1.8,0.9c0.5,0.4,0.9,0.9,1.2,1.5c0.3,0.6,0.4,1.4,0.4,2.2h-1.1c0-0.7-0.1-1.3-0.3-1.8c-0.2-0.5-0.5-0.9-1-1.2
		c-0.4-0.3-0.9-0.5-1.4-0.7c-0.6-0.2-1.2-0.2-1.8-0.2c-0.5,0-1,0.1-1.6,0.2c-0.5,0.1-1,0.3-1.4,0.5c-0.4,0.2-0.8,0.5-1,0.9
		c-0.3,0.4-0.4,0.8-0.4,1.4c0,0.6,0.1,1.1,0.4,1.5c0.3,0.4,0.7,0.7,1.2,0.9c0.5,0.2,1,0.4,1.6,0.6c0.6,0.1,1.2,0.3,1.8,0.4
		c0.8,0.1,1.5,0.3,2.1,0.5c0.7,0.2,1.2,0.4,1.7,0.8c0.5,0.3,0.9,0.8,1.2,1.3c0.3,0.5,0.4,1.2,0.4,2c0,0.8-0.2,1.5-0.6,2.1
		c-0.4,0.5-0.9,1-1.4,1.3c-0.6,0.3-1.2,0.6-1.9,0.7c-0.7,0.1-1.4,0.2-2.1,0.2c-0.9,0-1.7-0.1-2.4-0.3c-0.7-0.2-1.4-0.6-2-1
		c-0.6-0.5-1-1-1.3-1.7c-0.3-0.7-0.5-1.5-0.5-2.4H105.2z"/>
</g>
<g>
	<path fill="#FFFFFF" d="M86.8,160c-0.1-2.5,0.8-5.6,2.8-9.3c-0.9,0-1.2-0.4-0.9-1.4l1.4-3.1c1.8-3.9,3.3-7.2,4.5-9.9
		c0.5-1.3,1.6-1.9,3.3-2l5.3-0.2c-2,1.6-4,4.6-6,9.1c-1.9,4.5-3.4,7.9-4.5,10.5c-1.1,2.5-1.6,4.5-1.5,5.7c0.1,1.3,0.3,2.2,0.8,2.7
		c0.5,0.5,1.1,0.7,1.8,0.7c1.1-0.1,2.6-1.3,4.5-3.7c2.9-3.8,6.9-11.6,12-23.5c0.6-1.3,1.7-1.9,3.3-2l4.7-0.2
		c-1.2,1.1-2.2,2.1-2.9,3.2c-0.7,1.1-1.6,3-2.8,5.7c-3.2,7.2-4.9,11.9-5.2,14.2c-0.1,0.8-0.2,1.6-0.2,2.3c0.1,1.9,0.8,2.8,2.1,2.9
		c3.2-0.1,6.8-5.2,11-15.2c0.3-0.8,0.6-1.2,1-1c0.4,0.2,0.5,0.4,0.6,0.7c0,0.3-0.2,1-0.7,2.1s-0.9,2.1-1.4,3.1
		c-0.5,1-1.2,2.4-2.1,4.2c-0.9,1.8-1.8,3.2-2.7,4.2c-2.2,2.7-4.3,4.1-6.5,4.2c-2.2,0.1-3.7-0.8-4.6-2.7c-0.4-0.9-0.6-2-0.7-3.3
		c-0.1-1.3,0.2-3,0.7-5c-3.9,7.7-7.7,11.6-11.3,11.8c-3.2,0.1-5.1-1.1-5.7-3.7C86.9,160.7,86.8,160.4,86.8,160z"/>
	<path fill="#FFFFFF" d="M162.6,141.5c1.9-2.5,2.9-4.7,2.8-6.4c-0.1-1.7-0.8-2.5-2.2-2.4c-2.7,0.1-5.8,2.8-9,8c-1,1.6-2,3.8-3,6.4
		c-0.9,2.6-1.4,5-1.3,7c0.1,2.1,0.6,3.7,1.5,5c0.9,1.2,2.2,1.8,4,1.8c1.8-0.1,3.4-0.6,4.9-1.5c1.5-0.9,2.9-2.3,4.2-4.2
		c1.3-1.9,2.3-3.5,2.9-4.7c0.6-1.3,1.5-3.1,2.6-5.7c0.4-0.8,0.7-1.2,1-1.1c0.3,0.1,0.5,0.3,0.5,0.6c0,0.3-0.3,1.2-1.1,2.9
		c-0.7,1.7-1.4,3.3-2.2,4.8c-0.7,1.5-1.8,3.2-3.2,5.1c-2.5,3.4-6,5.2-10.6,5.4c-3.3,0.1-5.7-0.5-7.2-2.1c-1.5-1.5-2.3-3.4-2.4-5.5
		c-0.1-2.6,0.4-5.4,1.5-8.5c1.1-3.1,2.4-5.8,4-8.1c3.2-4.8,7-7.3,11.4-7.5c2.2-0.1,3.8,0.3,4.8,1.3c1,1,1.5,2.1,1.6,3.5
		c0.1,2-0.7,3.7-2.2,5.2c-0.8,0.8-1.5,1.2-2,1.2C163.5,142,163,141.8,162.6,141.5z"/>
	<path fill="#FFFFFF" d="M188.1,143.9c-1.8,3.8-2.8,6.6-3.1,8.5c-0.3,1.9-0.4,3.4-0.4,4.5c0.1,1.1,0.5,1.7,1.4,1.7
		c1.1-0.1,2.4-1.1,4-3.3c2.3-3.1,4.5-7.1,6.6-12c0.2-0.5,0.5-0.8,0.7-0.9c0.5-0.2,0.7,0,0.7,0.5c0,0.3-0.1,0.6-0.2,1.1
		c-4.9,11.1-9.2,16.8-12.9,16.9c-1.7,0.1-3.1-0.7-4.2-2.3c-0.6-0.9-0.9-2-0.9-3.5c-0.1-1.5,0.1-3.3,0.6-5.4
		c-4.3,7.8-8.2,11.7-11.6,11.9c-0.9,0-1.8-0.2-2.6-0.8c-1.8-1.1-2.8-3.2-2.9-6.2c-0.3-5.7,2-11.7,6.7-17.8c2.7-3.4,6-5.7,10.1-6.9
		c1.1-0.3,2.1-0.5,3.1-0.6c2.7-0.1,5,0.7,7,2.5c0.6,0.6,0.8,1.2,0.6,1.8c-0.2,0.6-0.7,0.9-1.5,0.8c-0.7-2.1-2.2-3.1-4.4-3
		c-2.5,0.1-5.5,2.2-9,6.4c-2,2.4-3.8,5.3-5.5,8.5c-2.1,3.9-3.1,7-3,9.3c0.1,2.3,0.9,3.4,2.3,3.3c3.5-0.2,7.9-5.7,13-16.8
		c1-2.2,1.9-3.7,2.6-4.6c0.7-0.8,1.7-1.3,2.8-1.3c0.2,0,0.8,0.1,1.8,0.2c1,0.1,1.7,0.1,2.2,0C191.2,137.6,189.8,140.1,188.1,143.9z"
		/>
	<path fill="#FFFFFF" d="M218.9,135.4c-0.1-1.6-0.9-2.3-2.5-2.3c-2.3,0.1-5,1.6-7.9,4.4c-2.9,2.8-5.4,5.7-7.3,8.7
		c-0.8,1.7-1.4,3.9-1.9,6.5c-0.4,2.6-0.6,4.4-0.6,5.4c0,1,0.2,1.6,0.6,1.9l-5.5,0.2c-0.9,0-1.1-0.7-0.8-2.3c0.4-1.6,0.9-3.3,1.6-5.1
		c0.7-1.8,1.5-4,2.6-6.4s1.8-4.3,2.3-5.5c-4.4,9.3-7.2,14.6-8.6,16c-0.6,0.6-0.9,0.4-0.9-0.5c0-0.2,0-0.4,0.1-0.6
		c1.9-2.8,5.7-10.3,11.2-22.5c5.6-12.2,9.5-20.2,11.8-24c1.9-3,3.7-4.5,5.6-4.6l0.1,0l0.4,0c0.1,0,0.6,0.1,1.5,0.2
		c1,0.1,1.7,0.1,2.2,0c-2.1,1.7-4.9,5.6-8.4,11.7c-3.5,6-6.3,11.3-8.3,15.8c-2,4.5-3.4,7.9-4,10.2c5-6.8,9.6-11.2,13.7-12.9
		c2-0.7,3.5-1.1,4.7-1.2c2.6-0.1,3.9,0.9,4,3.1c0,0.7-0.1,1.5-0.3,2.4c-0.7,2.3-2.3,4.3-4.8,6.2c-2.5,1.9-5.2,3.1-8.2,3.5
		c-0.6,1.7-0.9,3.2-0.8,4.6c0.1,1.4,0.3,2.6,0.6,3.7c0.8,2.8,2.2,4.4,4.2,5c0.4,0.1,0.8,0.1,1.2,0.1c1.6-0.1,3.5-1.2,5.6-3.3
		c1.7-2.1,3.9-6.2,6.6-12.3c0.4-0.8,0.7-1,0.9-0.8c0.2,0.3,0.4,0.5,0.4,0.7c0,0.2-0.4,1.4-1.2,3.5c-0.8,2.1-1.9,4.4-3.4,6.9
		c-3.1,5.2-6.7,7.9-10.7,8c-2.5,0.1-4.4-0.5-5.8-1.8c-2-1.9-3.1-4.5-3.2-7.7c-0.1-1.6,0.3-3.3,1.1-5.1c0.8-1.7,1.8-2.7,2.9-2.9
		c0.2,0,0.4,0,0.5,0c2-0.1,4-1,5.9-2.6C218,138.2,219,136.7,218.9,135.4z"/>
	<path fill="#FFFFFF" d="M232.4,145c-0.7,2-1,4.3-0.9,6.7c0.1,1.6,0.5,2.9,1.3,3.9c0.8,0.9,1.8,1.4,3.2,1.3
		c5.3-0.2,9.9-5.5,13.8-15.6c0.4-1,0.8-1.4,1.4-1.3c0.2,0,0.4,0.2,0.4,0.4c0,0.2-0.6,1.8-1.8,4.7c-1.2,2.9-2.4,5.3-3.7,7.1
		c-2.8,4.2-6.4,6.4-10.8,6.6c-2.3,0.1-4.4-0.6-6.1-2c-1.7-1.4-2.6-3.5-2.7-6.1c-0.1-2.6,0.4-5.5,1.5-8.5c1.1-3,2.7-5.8,4.8-8.5
		c2-2.6,4.5-4.6,7.2-5.9c1.3-0.6,2.6-1,3.8-1.1c1.2-0.1,2.4,0.2,3.5,0.9c1,0.8,1.6,1.7,1.6,2.7c0.2,3.5-1.8,7-5.9,10.4
		c-1.2,1.1-3,2-5.3,2.9C235.4,144.5,233.7,144.9,232.4,145z M246.5,130.3c-0.1-1.2-0.5-1.7-1.5-1.7c-1.6,0.1-4,2.2-7.2,6.4
		c-1.9,2.5-3.5,5.4-4.9,8.5c1,0,2.4-0.5,4.3-1.2c1.9-0.8,3.5-1.8,4.8-3C245.2,136.3,246.7,133.3,246.5,130.3z"/>
	<g>
		<path fill="#FFFFFF" d="M129.7,75.8v-0.9h13.6v0.9H137v16.8h-1.1V75.8H129.7z"/>
		<path fill="#FFFFFF" d="M144.8,74.8v7.7h0c0.2-0.5,0.4-0.9,0.7-1.3c0.3-0.4,0.7-0.7,1.1-1c0.4-0.3,0.9-0.5,1.3-0.6
			c0.5-0.1,1-0.2,1.5-0.2c0.7,0,1.4,0.1,1.9,0.3c0.5,0.2,1,0.4,1.3,0.7c0.3,0.3,0.6,0.6,0.8,1c0.2,0.4,0.3,0.8,0.4,1.1
			c0.1,0.4,0.1,0.8,0.1,1.1c0,0.4,0,0.7,0,0.9v7.9H153v-8.1c0-0.3,0-0.7-0.1-1.2c0-0.5-0.2-0.9-0.4-1.4c-0.2-0.4-0.6-0.8-1.1-1.1
			c-0.5-0.3-1.2-0.5-2-0.5c-0.7,0-1.4,0.1-1.9,0.4c-0.6,0.3-1,0.6-1.4,1.1c-0.4,0.5-0.7,1-0.9,1.7c-0.2,0.7-0.3,1.4-0.3,2.2v6.9
			h-0.9V74.8H144.8z"/>
		<path fill="#FFFFFF" d="M156.6,86.3v0.1c0,0.7,0.1,1.5,0.3,2.1c0.2,0.7,0.5,1.3,0.9,1.8c0.4,0.5,0.9,0.9,1.5,1.2
			c0.6,0.3,1.3,0.4,2.1,0.4c1.3,0,2.3-0.3,3-1c0.7-0.7,1.3-1.6,1.5-2.8h0.9c-0.3,1.5-0.9,2.6-1.8,3.4c-0.9,0.8-2.2,1.2-3.7,1.2
			c-0.9,0-1.8-0.2-2.5-0.5c-0.7-0.3-1.3-0.8-1.8-1.4c-0.5-0.6-0.8-1.3-1.1-2.1c-0.2-0.8-0.3-1.7-0.3-2.6c0-0.9,0.1-1.8,0.4-2.6
			c0.2-0.8,0.6-1.5,1.1-2.2c0.5-0.6,1.1-1.1,1.8-1.5c0.7-0.4,1.6-0.6,2.6-0.6c0.9,0,1.7,0.2,2.4,0.5c0.7,0.3,1.3,0.8,1.7,1.4
			c0.5,0.6,0.8,1.2,1.1,2c0.2,0.8,0.4,1.6,0.4,2.4c0,0.1,0,0.2,0,0.3c0,0.1,0,0.2,0,0.3H156.6z M166,85.5c0-0.7-0.1-1.4-0.3-2
			c-0.2-0.6-0.5-1.2-0.9-1.6c-0.4-0.5-0.9-0.9-1.4-1.1c-0.6-0.3-1.2-0.4-1.9-0.4c-0.8,0-1.4,0.1-2,0.4c-0.6,0.3-1.1,0.7-1.5,1.1
			s-0.7,1-0.9,1.7c-0.2,0.6-0.3,1.3-0.4,1.9H166z"/>
	</g>
	<g>
		<path fill="#FFFFFF" d="M104.5,97.5h10.7c0.7,0,1.5,0.1,2.3,0.2c0.9,0.2,1.6,0.5,2.4,1c0.7,0.5,1.3,1.2,1.8,2.1
			c0.5,0.9,0.7,2.1,0.7,3.6c0,2.2-0.7,3.9-2,5.1c-1.4,1.2-3.3,1.8-5.8,1.8h-8.6v11.2h-1.5V97.5z M106.1,110.1h8.8
			c1.1,0,2.1-0.2,2.9-0.5c0.8-0.3,1.4-0.8,1.9-1.3c0.5-0.5,0.8-1.1,1-1.8c0.2-0.7,0.3-1.3,0.3-2c0-0.5-0.1-1-0.2-1.7
			c-0.1-0.6-0.4-1.3-0.8-1.9c-0.4-0.6-1-1.1-1.8-1.5c-0.8-0.4-1.8-0.6-3-0.6h-9V110.1z"/>
		<path fill="#FFFFFF" d="M123.3,113.7v0.2c0,1.1,0.1,2.1,0.4,3c0.3,1,0.7,1.8,1.2,2.5c0.6,0.7,1.2,1.3,2.1,1.7
			c0.8,0.4,1.8,0.6,2.9,0.6c1.8,0,3.2-0.5,4.3-1.4c1.1-0.9,1.8-2.3,2.2-3.9h1.3c-0.4,2.1-1.3,3.7-2.6,4.8c-1.3,1.1-3.1,1.7-5.2,1.7
			c-1.3,0-2.5-0.2-3.5-0.7c-1-0.5-1.8-1.1-2.5-2c-0.7-0.8-1.2-1.8-1.5-2.9c-0.3-1.1-0.5-2.4-0.5-3.7c0-1.3,0.2-2.5,0.5-3.6
			c0.3-1.2,0.8-2.2,1.5-3.1c0.7-0.9,1.5-1.6,2.5-2.1c1-0.5,2.2-0.8,3.6-0.8c1.3,0,2.4,0.2,3.3,0.7c1,0.5,1.8,1.1,2.4,1.9
			c0.7,0.8,1.2,1.7,1.5,2.8c0.3,1.1,0.5,2.2,0.5,3.4c0,0.1,0,0.3,0,0.4c0,0.2,0,0.3,0,0.4H123.3z M136.6,112.6c0-1-0.2-1.9-0.5-2.8
			c-0.3-0.9-0.7-1.6-1.2-2.3c-0.6-0.7-1.2-1.2-2-1.6c-0.8-0.4-1.7-0.6-2.7-0.6c-1.1,0-2,0.2-2.8,0.6c-0.8,0.4-1.5,0.9-2.1,1.6
			c-0.6,0.7-1,1.4-1.3,2.3c-0.3,0.9-0.5,1.8-0.6,2.7H136.6z"/>
		<path fill="#FFFFFF" d="M141.7,108.5h0.1c0.2-0.6,0.5-1.1,0.9-1.6c0.4-0.5,1-1,1.6-1.3c0.6-0.4,1.3-0.7,2.1-0.9
			c0.8-0.2,1.5-0.3,2.4-0.3v1.3c-0.7-0.1-1.5,0-2.4,0.2c-0.9,0.2-1.8,0.7-2.6,1.5c-0.3,0.4-0.6,0.7-0.9,1c-0.2,0.3-0.5,0.7-0.6,1.1
			c-0.2,0.4-0.3,0.8-0.4,1.3c-0.1,0.5-0.2,1.1-0.2,1.8v9.9h-1.3v-18h1.3V108.5z"/>
		<path fill="#FFFFFF" d="M148.3,105.7v-1.2h3.2v-3.7c0-0.6,0.1-1.2,0.3-1.6c0.2-0.5,0.5-0.8,0.9-1.1c0.4-0.3,0.8-0.5,1.3-0.6
			c0.5-0.1,1-0.2,1.5-0.2c0.4,0,0.9,0.1,1.6,0.2v1.2c-0.7-0.1-1.2-0.2-1.6-0.2c-0.7,0-1.4,0.2-1.9,0.5c-0.5,0.3-0.8,1-0.8,2v3.6h3.8
			v1.2h-3.8v16.9h-1.3v-16.9H148.3z"/>
		<path fill="#FFFFFF" d="M158.5,113.7v0.2c0,1.1,0.1,2.1,0.4,3c0.3,1,0.7,1.8,1.2,2.5c0.6,0.7,1.2,1.3,2.1,1.7
			c0.8,0.4,1.8,0.6,2.9,0.6c1.8,0,3.2-0.5,4.3-1.4c1.1-0.9,1.8-2.3,2.2-3.9h1.3c-0.4,2.1-1.3,3.7-2.6,4.8c-1.3,1.1-3.1,1.7-5.2,1.7
			c-1.3,0-2.5-0.2-3.5-0.7c-1-0.5-1.8-1.1-2.5-2c-0.7-0.8-1.2-1.8-1.5-2.9c-0.3-1.1-0.5-2.4-0.5-3.7c0-1.3,0.2-2.5,0.5-3.6
			c0.3-1.2,0.8-2.2,1.5-3.1c0.7-0.9,1.5-1.6,2.5-2.1c1-0.5,2.2-0.8,3.6-0.8c1.3,0,2.4,0.2,3.3,0.7c1,0.5,1.8,1.1,2.4,1.9
			c0.7,0.8,1.2,1.7,1.5,2.8c0.3,1.1,0.5,2.2,0.5,3.4c0,0.1,0,0.3,0,0.4c0,0.2,0,0.3,0,0.4H158.5z M171.8,112.6c0-1-0.2-1.9-0.5-2.8
			c-0.3-0.9-0.7-1.6-1.2-2.3c-0.6-0.7-1.2-1.2-2-1.6c-0.8-0.4-1.7-0.6-2.7-0.6c-1.1,0-2,0.2-2.8,0.6c-0.8,0.4-1.5,0.9-2.1,1.6
			c-0.6,0.7-1,1.4-1.3,2.3c-0.3,0.9-0.5,1.8-0.6,2.7H171.8z"/>
		<path fill="#FFFFFF" d="M189.1,110.1c-0.1-0.8-0.3-1.5-0.6-2.1c-0.3-0.6-0.8-1.1-1.3-1.5c-0.5-0.4-1.2-0.7-1.9-0.9
			c-0.7-0.2-1.5-0.3-2.3-0.3c-1.1,0-2.1,0.2-3,0.7c-0.9,0.5-1.6,1.1-2.2,1.8c-0.6,0.8-1,1.6-1.3,2.6c-0.3,1-0.5,2-0.5,3
			c0,1.2,0.1,2.3,0.4,3.4c0.3,1,0.7,1.9,1.3,2.7c0.6,0.8,1.3,1.4,2.2,1.8c0.9,0.4,1.9,0.6,3.1,0.6c0.8,0,1.6-0.1,2.3-0.4
			c0.7-0.3,1.3-0.7,1.9-1.2c0.5-0.5,1-1.1,1.4-1.8c0.4-0.7,0.6-1.4,0.7-2.3h1.3c-0.1,1.1-0.4,2-0.9,2.9c-0.4,0.8-1,1.5-1.7,2.1
			c-0.7,0.6-1.4,1-2.3,1.3c-0.9,0.3-1.8,0.5-2.7,0.5c-1.5,0-2.7-0.3-3.8-0.8c-1-0.5-1.9-1.2-2.6-2.1c-0.7-0.9-1.2-1.9-1.5-3.1
			c-0.3-1.2-0.5-2.4-0.5-3.6c0-1.3,0.2-2.5,0.5-3.6c0.4-1.1,0.9-2.1,1.6-2.9c0.7-0.8,1.6-1.5,2.6-2c1-0.5,2.2-0.7,3.5-0.7
			c1,0,1.9,0.1,2.8,0.4c0.9,0.2,1.6,0.6,2.3,1.1c0.7,0.5,1.2,1.1,1.6,1.9c0.4,0.8,0.7,1.6,0.8,2.6H189.1z"/>
		<path fill="#FFFFFF" d="M199.7,105.7h-3.9v12.6c0,0.7,0.1,1.3,0.2,1.7s0.4,0.7,0.8,1c0.3,0.2,0.7,0.4,1.2,0.4c0.5,0,1,0.1,1.7,0
			v1.2c-0.7,0-1.3,0-2,0c-0.6-0.1-1.2-0.2-1.7-0.5c-0.5-0.3-0.9-0.7-1.2-1.3c-0.3-0.6-0.4-1.4-0.4-2.4v-12.6h-3.3v-1.2h3.3v-5.6h1.3
			v5.6h3.9V105.7z"/>
	</g>
	<path fill="#FFFFFF" d="M141.6,171.6c0.1,0,0.2,0,0.3,0c-2.3,0.7-4.5,1.7-6.5,2.8c-0.1,0-0.3,0-0.4,0.1c-1.4,0.2-2.7,0.6-4,1.2
		c-1.3,0.6-2.6,1.3-4,2c-1.4,0.7-3,1.4-4.7,1.8c-0.8,0.3-1.7,0.4-2.6,0.6c-0.8,0.1-1.8,0.2-2.6,0.2l-1.2,0h-1l-0.3,0
		c-0.8,0-1.7,0-2.5-0.2c-1.7-0.1-3.4-0.6-5-1.1c-1.6-0.5-3-1.2-4.3-1.9c-2.6-1.4-4.8-2.5-7.4-3c-0.6-0.2-1.3-0.2-1.9-0.3l-0.5-0.1
		l-0.5,0l-1.1,0c-1.2,0-2.6,0-3.9,0.1c-2.5,0.3-4.7,1.1-6.9,2.1c-1.1,0.5-2.2,1.1-3.4,1.6c-1.2,0.5-2.4,1-3.6,1.2
		c-0.6,0.2-1.2,0.3-1.9,0.4c-0.6,0.1-1.2,0.2-1.9,0.2c-0.3,0-0.6,0.1-0.9,0.1h-0.8l-0.8,0c-0.2,0-0.2,0-0.5,0l-0.4,0
		c-2.3-0.1-4.5-0.4-6.4-1c-1.9-0.6-3.6-1.5-5-2.3c-1.4-0.8-0.8-1.5,0.7-0.9c1.5,0.7,3,1.4,4.8,1.8c1.8,0.4,3.8,0.7,5.9,0.6h0.4
		c0.1,0,0.3,0,0.4,0l0.8,0l0.9,0c0.3,0,0.5-0.1,0.8-0.1c0.5-0.1,1.1-0.1,1.6-0.3c0.5-0.1,1.1-0.2,1.6-0.4c1.1-0.3,2.1-0.7,3.1-1.2
		c0.7-0.3,1.3-0.7,2-1.1c0.4-0.2,0.8-0.4,1.1-0.6c2.1-1.2,4.7-2.2,7.5-2.7c0.3,0,0.6-0.1,0.9-0.1c1.2-0.1,2.6-0.2,3.9-0.1l1.1,0
		l0.5,0l0.5,0.1c0.6,0.1,1.3,0.1,1.9,0.3c2.6,0.5,4.8,1.6,7.4,3c1.3,0.7,2.7,1.4,4.3,1.9c1.6,0.5,3.3,0.9,5,1.1
		c0.9,0.1,1.7,0.1,2.5,0.2l0.3,0h1l1.2,0c0.8,0,1.8-0.1,2.6-0.2c0.9-0.2,1.7-0.3,2.6-0.6c1.7-0.4,3.3-1.1,4.7-1.8
		c1.4-0.7,2.7-1.4,4-2c1.3-0.6,2.6-1,4-1.2c0.7-0.2,1.4-0.2,2.1-0.3c0.4,0,0.7,0,1.1,0l0.6,0l0.3,0h0.2c0,0,0,0,0,0
		C140,171.6,140.8,171.6,141.6,171.6z"/>
	<path fill="#FFFFFF" d="M230,173.9c-1.2,1.7-14.2,9.6-28.7,3.8c-1.2-0.5-2.3-1.1-3.4-1.6c-2.2-1.1-4.4-1.9-6.9-2.1l-0.9-0.1
		c-0.3,0-0.6-0.1-1-0.1l-1.1,0h-0.5l-0.4,0c-1.3,0-2.7,0.2-3.9,0.4c-1.3,0.2-2.5,0.7-3.7,1.2c-1.2,0.5-2.4,1.2-3.7,1.9
		c-0.5,0.3-1,0.5-1.6,0.8c-0.7-0.6-1.5-1.2-2.2-1.7c1.4-0.5,2.7-1.1,3.8-1.7c1.3-0.7,2.5-1.4,3.7-1.9c1.2-0.5,2.4-0.9,3.7-1.2
		c1.3-0.3,2.6-0.4,3.9-0.4l0.4,0h0.5l1.1,0c0.4,0,0.7,0,1,0.1l0.9,0.1c2.5,0.2,4.7,1.1,6.9,2.1c0.2,0.1,0.5,0.2,0.7,0.3
		c4.4,2.8,9.9,4.5,15.7,4.5C224.9,178.3,230.2,173.7,230,173.9z"/>
	<path fill="#FFFFFF" d="M55.4,174.7c0,0,7.3,11.3,16.5,25.6h-2.5c-9-14.5-16.1-26-16.1-26L55.4,174.7z"/>
	<path fill="#FFFFFF" d="M215.8,232.9l-5.1,6.5l-5.1,6.4c-3.4,4.3-6.8,8.6-10.2,12.8l-0.2,0.2l-0.2,0.1l-5.3,1.5l-2.7,0.7l-2.7,0.6
		l-5.4,1.1l-5.4,0.8c-1.8,0.3-3.6,0.5-5.4,0.7c-1.8,0.2-3.6,0.4-5.5,0.5l-5.5,0.3c-1.8,0.1-3.7,0.1-5.5,0.1l-2.7,0l-2.7-0.1
		c-1.8-0.1-3.7-0.1-5.5-0.2l-5.5-0.4l-5.5-0.5l-5.4-0.7c-1.8-0.3-3.6-0.5-5.4-0.8c-1.8-0.3-3.6-0.6-5.4-1c-1.8-0.4-3.6-0.8-5.4-1.2
		l-0.5-0.1l-0.3-0.4c-1.8-2.3-9.7-14.8-18.9-29.5h3.2c8.3,12.8,15.5,23.6,17.7,26.7c1.6,0.4,3.2,0.7,4.8,1c1.8,0.4,8.9,1.5,10.7,1.8
		l5.4,0.7l5.4,0.6l5.4,0.4c1.8,0.2,3.6,0.2,5.4,0.2l2.7,0.1l2.7,0c1.8,0,3.6,0.1,5.4,0l5.4-0.2c1.8-0.1,3.6-0.2,5.4-0.4
		c1.8-0.1,3.6-0.2,5.4-0.5l5.4-0.6l5.4-0.9l2.7-0.4l2.7-0.6l5.1-1.2c3.5-4,7.1-8,10.6-12l5.4-6.1L215.8,232.9z"/>
	<path fill="#FFFFFF" d="M124.5,40.7c0,0,0.3-0.1,1-0.3c0.7-0.2,1.6-0.4,2.9-0.7c1.2-0.3,2.8-0.5,4.5-0.8c1.7-0.3,3.7-0.5,5.9-0.7
		c2.2-0.2,4.5-0.3,7-0.3c2.5,0.1,5.2,0.1,7.9,0.5c2.7,0.3,5.5,0.9,8.3,1.7c2.8,0.8,5.5,2,8.1,3.4c1.2,0.8,2.6,1.5,3.7,2.5
		c0.6,0.5,1.2,0.9,1.7,1.4c0.5,0.5,1.1,1,1.6,1.5c0.6,0.5,1,1.1,1.5,1.6c0.4,0.6,1,1.1,1.3,1.7c0.7,1.2,1.6,2.4,2.1,3.7
		c0.3,0.6,0.6,1.3,0.9,1.9c0.3,0.6,0.5,1.3,0.7,1.9c0.2,0.6,0.4,1.3,0.6,1.9c0.1,0.6,0.3,1.3,0.4,1.9c0.1,0.6,0.3,1.2,0.4,1.8
		c0.1,0.6,0.2,1.2,0.2,1.8c0.1,0.6,0.1,1.2,0.2,1.7c0.1,0.6,0.1,1.1,0.1,1.7c0,1.1,0,2.1,0,3.1c0,1-0.1,1.9-0.2,2.8
		c-0.1,1.8-0.3,3.3-0.5,4.5c-0.4,2.5-0.7,3.9-0.7,3.9s0.1-1.4,0.3-4c0.2-1.3,0.1-2.8,0.1-4.5c0.1-1.8-0.1-3.7-0.3-5.9
		c0-0.5-0.1-1.1-0.2-1.6c-0.1-0.5-0.2-1.1-0.3-1.7c-0.1-0.6-0.2-1.1-0.3-1.7c-0.1-0.6-0.3-1.2-0.5-1.7c-0.2-0.6-0.3-1.2-0.5-1.8
		c-0.2-0.6-0.4-1.2-0.7-1.8c-0.2-0.6-0.4-1.2-0.7-1.8c-0.3-0.6-0.6-1.2-0.9-1.7c-0.5-1.2-1.4-2.3-2.1-3.4c-0.4-0.6-0.9-1-1.3-1.6
		c-0.5-0.5-0.8-1.1-1.4-1.5c-0.5-0.5-1-0.9-1.5-1.4c-0.5-0.5-1.1-0.9-1.6-1.3c-1.1-0.9-2.3-1.5-3.5-2.3c-2.5-1.3-5-2.5-7.7-3.3
		c-0.7-0.2-1.3-0.4-2-0.6c-0.7-0.2-1.3-0.4-2-0.5c-1.3-0.3-2.7-0.6-4-0.7c-2.6-0.4-5.2-0.6-7.7-0.8c-2.5-0.1-4.8-0.1-6.9-0.1
		c-4.3,0.1-7.9,0.4-10.4,0.7C125.9,40.5,124.5,40.7,124.5,40.7z"/>
	<path fill="#FFFFFF" d="M146.6,138.5c0.1,2.6-0.4,5.4-1.6,8.6c-1.2,3.2-2.9,6.2-5.2,9.2c-2.2,3-5,5.1-8.4,6.3
		c-1.3,0.4-2.7,0.7-4.4,0.7s-3.5-0.4-5.6-1.3l-7.4,21.2c-0.8,1.9-1.6,3.2-2.3,3.8c-0.7,0.6-1.5,0.9-2.2,1c-0.7,0-1.1,0.1-1.3,0.1
		c-0.1,0-0.7-0.1-1.6-0.2c-0.9-0.1-1.6-0.2-2.1-0.1c1.2-1.3,4.2-7.3,9-17.9c4.8-10.7,7.4-17.8,8-21.5c-0.6,1-1.2,1.5-1.8,1.6
		c-0.4,0-0.4-0.3,0-1c0.3-0.7,0.8-2,1.6-4c0.9-2.6,1.4-4.9,1.3-7c-0.1-2.1-0.6-3.4-1.4-3.7c3.5-0.7,5.5-1.1,6.1-1.1
		c0.6,0,1,0.2,1.1,0.7c0.2,0.5,0.3,1,0.3,1.6c0.2,3.6-0.5,7.6-1.9,12l1.6-2.9c2-3.5,3.4-5.7,4.3-6.8c0.9-1,1.9-2.1,3-3.2
		c1.6-1.7,3.2-2.6,4.8-2.7c0.5,0,0.9,0,1.3,0.1C144.9,132.5,146.5,134.7,146.6,138.5z M142.4,137.8c0-0.9-0.3-1.8-0.7-2.6
		c-0.4-0.8-1-1.1-1.9-1.1c-2,0.1-4.3,2.1-6.9,6c-2.5,3.9-6.2,10.7-10.8,20.4c0.8,0.7,1.9,1.1,3.2,1c1.3-0.1,3.2-1.2,5.6-3.3
		c3.8-3.5,6.9-7.7,9.3-12.6C141.7,142.4,142.5,139.8,142.4,137.8z"/>
	<path fill="#FFFFFF" d="M62.3,168.2c-4.1,0.2-8.2-0.4-12-1.9c-3.9-1.5-7-3.7-9.4-6.7c-2.4-3-3.9-6.4-4.6-10.1
		c-0.3-1.6-0.5-3.3-0.6-5.3c-0.1-1.9,0-4.5,0.4-7.6c0.3-3.2,1.2-6.6,2.7-10.4c1.5-3.7,3.2-7.1,5.3-10c-1.1-3.5-1.7-6.8-1.8-9.8
		c-0.1-3,0.1-5.8,0.7-8.5c0.1-0.4,1.4-4.1,1.6-4.3c0.2-0.2,3.6-1.6,3.5-0.3c-0.2,1.3-1.4,3-1.9,6.1c-0.1,0.6-1.1,10.3-0.3,14
		c4-5.7,8.8-9.9,14.5-12.6c4.3-2.1,8.9-3.3,13.8-3.5c1.4-0.1,2.8,0,4.3,0c8.2,0.5,13.9,3.4,17,8.7c1.3,2.2,2,4.5,2.1,6.9
		c0.1,2.4-0.3,4.9-1.3,7.5c-2.1,5.2-6,9.2-11.5,11.9C81,134,77,135,72.7,135.2c-1.9,0.1-3.8,0-5.7-0.1c-9.6-1-16.4-5.2-20.4-12.7
		c-1.2,1.9-2.4,5-3.5,9.3c-1.2,4.3-1.8,7.6-1.9,9.9c-0.1,2.3-0.1,4.2-0.1,5.8c0.1,1.5,0.2,3.1,0.5,4.8c0.5,2.9,1.7,5.5,3.7,7.8
		c2,2.3,4.5,3.8,7.7,4.6c3.2,0.8,5.9,1.1,8.2,1c7.4-0.3,13.6-2.2,18.7-5.5c3.1-2,5.4-4.2,7.1-6.7c1.7-2.4,3.4-5.8,5.3-10
		c0.3-0.7,0.6-1,1-0.8c0.4,0.2,0.4,0.7,0,1.5c-1.8,4.2-3.6,7.5-5.2,10c-1.6,2.5-3.9,4.8-6.8,7C75.5,165.5,69.2,167.9,62.3,168.2z
		 M48.1,119.7c4.2,9.5,12.3,13.9,24.3,13.4c6.8-0.3,12.1-2.4,16-6.4c3.9-4,5.7-8.3,5.5-13.1c-0.2-4.8-2.5-8.4-6.7-10.9
		c-3.2-1.8-7-2.6-11.5-2.4c-4.5,0.2-9,1.7-13.5,4.5C56.5,108.4,51.8,113.4,48.1,119.7z"/>
	<path fill="#FFFFFF" d="M42.7,99.8c0,0,0-0.1,0.1-0.4c0.1-0.3,0.1-0.7,0.3-1.2c0.3-1,0.7-2.4,1.3-4.2c1.3-3.5,3.6-8.5,7.7-13.6
		c2.1-2.5,4.6-5,7.7-7.1c3-2.2,6.6-4,10.4-5.3c3.8-1.3,7.9-2.1,12.1-2.4c4.2-0.3,8.4-0.2,12.7,0.3c4.2,0.5,8.4,1.3,12.4,2.3
		c2,0.5,3.9,1.1,5.9,1.3c2,0.3,3.9,0.4,5.8,0.3c3.8-0.2,7.5-1.2,10.4-3.1c1.4-1,2.8-2.1,3.7-3.4c0.9-1.3,1.4-2.9,1.7-4.4
		c0.6-3,0.4-6-0.3-8.4c-0.7-2.4-1.9-4.3-3.2-5.6c-1.3-1.3-2.5-2.1-3.4-2.5c-0.4-0.2-0.8-0.4-1-0.5c-0.2-0.1-0.4-0.2-0.4-0.2
		s0.1,0,0.4,0.1c0.2,0.1,0.6,0.2,1,0.5c0.9,0.4,2.2,1.1,3.5,2.4c1.3,1.3,2.6,3.2,3.4,5.6c0.8,2.5,1,5.4,0.5,8.6
		c-0.3,1.6-0.7,3.2-1.7,4.7c-1,1.4-2.3,2.7-3.8,3.7c-3,2.1-6.8,3.4-10.8,3.7c-2,0.2-4,0.2-6.1-0.1c-1-0.1-2.1-0.2-3.1-0.5
		c-1.1-0.2-2-0.5-3-0.7c-4-0.9-8.1-1.6-12.2-2c-8.2-0.8-16.6-0.1-23.7,2.5c-3.6,1.3-6.8,3.1-9.6,5.1c-2.8,2.1-5.1,4.4-7,6.8
		c-3.8,4.7-5.8,9.5-6.9,12.8c-0.6,1.7-0.9,3-1.1,3.9c-0.1,0.4-0.2,0.8-0.2,1c0,0.2-0.1,0.3-0.1,0.3L42.7,99.8z"/>
	<path fill="#FFFFFF" d="M204.7,101.3c0,0,0.4-0.2,1.3-0.6c0.4-0.2,0.9-0.4,1.5-0.7c0.3-0.1,0.6-0.3,1-0.4c0.4-0.1,0.7-0.2,1.1-0.4
		c0.8-0.3,1.7-0.6,2.7-0.9c1-0.2,2.1-0.5,3.2-0.7c1.2-0.2,2.4-0.3,3.7-0.5c1.3-0.1,2.7,0,4.2-0.1c0.7,0,1.5,0.1,2.2,0.2
		c0.8,0.1,1.5,0.1,2.3,0.3c1.5,0.3,3.2,0.5,4.8,1.1c3.3,0.9,6.5,2.4,9.7,4.3c0.8,0.5,1.5,1,2.3,1.5c0.8,0.5,1.5,1.2,2.2,1.7l1.1,0.9
		l1,1c0.7,0.7,1.4,1.3,2,2.1c0.6,0.7,1.2,1.5,1.9,2.2c0.6,0.7,1.1,1.6,1.7,2.4c0.6,0.8,1.1,1.6,1.5,2.5l1.4,2.7
		c1.5,3.4,2.8,7.4,3.3,11.2c0.2,1,0.2,1.9,0.3,2.9l0.1,1.4l0,1.4c0,0.9,0,1.9-0.1,2.8c-0.1,0.9-0.2,1.9-0.3,2.8
		c-0.6,3.6-1.5,7.1-2.9,10.1c-0.6,1.6-1.5,3-2.2,4.4c-0.4,0.7-0.9,1.3-1.3,1.9c-0.4,0.6-0.8,1.2-1.3,1.8c-1,1.1-1.8,2.2-2.8,3.2
		c-1,0.9-1.8,1.8-2.8,2.6c-0.9,0.7-1.8,1.4-2.6,2c-0.8,0.6-1.7,1-2.4,1.5c-0.4,0.2-0.7,0.4-1,0.6c-0.3,0.2-0.7,0.3-0.9,0.5
		c-0.6,0.3-1.1,0.5-1.5,0.7c-0.8,0.4-1.2,0.6-1.2,0.6s0.4-0.2,1.2-0.7c0.4-0.2,0.9-0.5,1.4-0.8c0.3-0.2,0.6-0.3,0.9-0.5
		c0.3-0.2,0.6-0.4,1-0.7c0.7-0.5,1.4-1,2.2-1.6c0.8-0.7,1.6-1.4,2.4-2.1c0.8-0.8,1.6-1.7,2.5-2.7c0.9-1,1.6-2.1,2.5-3.2
		c0.4-0.6,0.8-1.2,1.2-1.8c0.4-0.6,0.8-1.2,1.1-1.9c0.7-1.4,1.5-2.7,2-4.3c1.3-3,2-6.3,2.5-9.8c0.5-3.5,0.3-7.1-0.1-10.8
		c-0.6-3.7-1.7-7.1-3.2-10.7c-1.6-3.2-3.6-6.5-6.1-9.2c-2.5-2.7-5.2-5.2-8.2-7c-3-1.8-6-3.4-9.1-4.3c-1.5-0.6-3.1-0.8-4.5-1.2
		c-0.7-0.2-1.5-0.2-2.2-0.4c-0.7-0.1-1.4-0.2-2.1-0.3c-1.4,0-2.8-0.1-4.1-0.1c-1.3,0.1-2.5,0.1-3.7,0.2c-1.1,0.2-2.2,0.3-3.2,0.5
		c-1,0.2-1.9,0.5-2.7,0.7c-0.4,0.1-0.8,0.2-1.1,0.3c-0.4,0.1-0.7,0.2-1,0.3c-0.6,0.2-1.1,0.4-1.6,0.6
		C205.1,101.2,204.7,101.3,204.7,101.3z"/>
</g>
</svg>
