<?xml version="1.0" encoding="utf-8"?>
<!-- Generator: Adobe Illustrator 19.0.0, SVG Export Plug-In . SVG Version: 6.00 Build 0)  -->
<!DOCTYPE svg PUBLIC "-//W3C//DTD SVG 1.1//EN" "http://www.w3.org/Graphics/SVG/1.1/DTD/svg11.dtd">
<svg version="1.1" id="Layer_1" xmlns="http://www.w3.org/2000/svg" xmlns:xlink="http://www.w3.org/1999/xlink" x="0px" y="0px"
	 viewBox="0 0 50 50" enable-background="new 0 0 50 50" xml:space="preserve">
<g id="XMLID_802_">
	<path id="XMLID_810_" fill="#F15F43" d="M24.6,46.8c12.3,0,22.2-10,22.2-22.2c0-12.3-9.9-22.2-22.2-22.2c-12.3,0-22.2,10-22.2,22.2
		C2.4,36.8,12.3,46.8,24.6,46.8L24.6,46.8z"/>
	<path id="XMLID_803_" fill="#FFFFFF" d="M23.7,19c0.4,0.6,0.6,1.3,0.6,2.1c0,0.8-0.2,1.5-0.6,2c-0.2,0.3-0.6,0.5-1,0.8
		c0.7,0.3,1.2,0.7,1.6,1.2c0.4,0.6,0.5,1.2,0.5,2c0,0.8-0.2,1.5-0.6,2.2c-0.3,0.4-0.6,0.8-1,1.1c-0.4,0.3-1,0.6-1.6,0.7
		c-0.6,0.1-1.2,0.2-1.9,0.2h-6.2V17.5h6.6C21.8,17.5,23,18,23.7,19z M16.2,19.9v3h3.3c0.6,0,1.1-0.1,1.5-0.3
		c0.4-0.2,0.6-0.6,0.6-1.2c0-0.6-0.2-1.1-0.7-1.3c-0.4-0.1-1-0.2-1.6-0.2H16.2z M16.2,25.2v3.7h3.3c0.6,0,1.1-0.1,1.4-0.2
		c0.6-0.3,0.9-0.9,0.9-1.7c0-0.7-0.3-1.2-0.9-1.5c-0.3-0.1-0.8-0.2-1.4-0.2H16.2z M33.1,21.3c0.7,0.3,1.3,0.8,1.8,1.5
		c0.4,0.6,0.7,1.3,0.8,2.1c0.1,0.5,0.1,1.1,0.1,2h-7.4c0,1,0.4,1.7,1.1,2.1c0.4,0.3,0.9,0.4,1.5,0.4c0.6,0,1.1-0.2,1.5-0.5
		c0.2-0.2,0.4-0.4,0.5-0.7h2.7c-0.1,0.6-0.4,1.2-1,1.8c-0.9,1-2.2,1.5-3.8,1.5c-1.4,0-2.5-0.4-3.6-1.2c-1-0.8-1.6-2.2-1.6-4.1
		c0-1.8,0.5-3.1,1.4-4c0.9-0.9,2.1-1.4,3.6-1.4C31.6,20.8,32.4,21,33.1,21.3z M29.1,23.6c-0.4,0.4-0.6,0.9-0.7,1.6H33
		c0-0.7-0.3-1.2-0.7-1.6c-0.4-0.4-1-0.5-1.6-0.5C30,23,29.5,23.2,29.1,23.6z M33.6,18.1h-5.9v1.7h5.9V18.1z"/>
</g>
<g id="XMLID_799_">
	<path id="XMLID_801_" fill="#F15F43" d="M95.8,46.8c12.3,0,22.2-9.9,22.2-22.2c0-12.3-10-22.2-22.2-22.2c-12.3,0-22.2,10-22.2,22.2
		C73.5,36.8,83.5,46.8,95.8,46.8L95.8,46.8z"/>
	<path id="XMLID_800_" fill="#FFFFFF" d="M90.4,20.8h2.3v-2.2c0-1,0-2.5,0.7-3.4c0.8-1,1.8-1.7,3.6-1.7c2.9,0,4.1,0.4,4.1,0.4
		l-0.6,3.4c0,0-1-0.3-1.9-0.3c-0.9,0-1.7,0.3-1.7,1.2v2.6h3.7l-0.3,3.3H97v11.6h-4.3V24.1h-2.3V20.8z"/>
</g>
<g id="XMLID_811_">
	<path id="XMLID_832_" fill="#F15F43" d="M164.7,46.8c12.3,0,22.2-10,22.2-22.2c0-12.3-9.9-22.2-22.2-22.2
		c-12.3,0-22.2,10-22.2,22.2C142.4,36.8,152.4,46.8,164.7,46.8L164.7,46.8z"/>
	<path id="XMLID_812_" fill="#FFFFFF" d="M171,14.1V20c-0.1,0.2-0.3,0.3-0.5,0.4c-0.2,0.1-0.3,0.2-0.5,0.2c-0.1,0-0.2,0-0.3-0.1
		c-0.1-0.1-0.1-0.2-0.1-0.4v-5.9H168v6.5c0,0.5,0.1,0.8,0.3,1c0.2,0.2,0.5,0.3,0.8,0.3c0.3,0,0.6-0.1,0.9-0.2
		c0.3-0.2,0.6-0.4,0.9-0.7v0.9h1.6v-7.8H171z M166.1,14.5c-0.4-0.4-1-0.6-1.6-0.6c-0.7,0-1.3,0.2-1.7,0.5c-0.4,0.4-0.6,0.8-0.6,1.4
		v4c0,0.7,0.2,1.2,0.6,1.6c0.4,0.4,1,0.6,1.7,0.6c0.7,0,1.3-0.2,1.7-0.6c0.4-0.4,0.6-0.9,0.6-1.6v-4
		C166.8,15.3,166.5,14.9,166.1,14.5z M165.1,20.1c0,0.2-0.1,0.4-0.2,0.5c-0.1,0.1-0.3,0.2-0.5,0.2c-0.2,0-0.4-0.1-0.5-0.2
		c-0.1-0.1-0.2-0.3-0.2-0.5v-4.2c0-0.2,0.1-0.3,0.2-0.4c0.1-0.1,0.3-0.2,0.5-0.2c0.2,0,0.4,0,0.5,0.2c0.1,0.1,0.2,0.2,0.2,0.4V20.1z
		 M160.2,11.4l-1.1,4.2H159l-1.2-4.2H156l2.1,6.4v4.2h1.8v-4.4l2.1-6.1H160.2z M172.6,29.9c0.1,0.1,0.1,0.3,0.1,0.6v0.7h-1.2v-0.7
		c0-0.3,0-0.5,0.1-0.6c0.1-0.1,0.2-0.2,0.5-0.2C172.3,29.7,172.5,29.7,172.6,29.9z M167.7,29.8c-0.1-0.1-0.2-0.2-0.4-0.2
		c-0.1,0-0.2,0-0.3,0.1c-0.1,0-0.2,0.1-0.3,0.2v4.4c0.1,0.1,0.2,0.2,0.3,0.2c0.1,0,0.2,0.1,0.3,0.1c0.2,0,0.3,0,0.4-0.2
		c0.1-0.1,0.1-0.2,0.1-0.5v-3.6C167.9,30.1,167.8,30,167.7,29.8z M167.7,29.8c-0.1-0.1-0.2-0.2-0.4-0.2c-0.1,0-0.2,0-0.3,0.1
		c-0.1,0-0.2,0.1-0.3,0.2v4.4c0.1,0.1,0.2,0.2,0.3,0.2c0.1,0,0.2,0.1,0.3,0.1c0.2,0,0.3,0,0.4-0.2c0.1-0.1,0.1-0.2,0.1-0.5v-3.6
		C167.9,30.1,167.8,30,167.7,29.8z M175.7,24.4h-22.1c-2.4,0-4.4,2-4.4,4.4v4.5c0,2.4,2,4.4,4.4,4.4h22.1c2.4,0,4.4-2,4.4-4.4v-4.5
		C180.1,26.4,178.1,24.4,175.7,24.4z M159.6,27.5h-1.6v8.2h-1.6v-8.2h-1.6v-1.4h4.9V27.5z M164.2,35.7h-1.4v-0.8
		c-0.2,0.3-0.5,0.5-0.8,0.7c-0.3,0.2-0.5,0.2-0.8,0.2c-0.3,0-0.6-0.1-0.7-0.3c-0.2-0.2-0.2-0.5-0.2-0.9v-5.9h1.4V34
		c0,0.2,0,0.3,0.1,0.4c0,0.1,0.2,0.1,0.3,0.1c0.1,0,0.2,0,0.4-0.2c0.2-0.1,0.3-0.2,0.4-0.4v-5.4h1.4V35.7z M169.3,34.2
		c0,0.5-0.1,0.9-0.3,1.2c-0.2,0.3-0.5,0.4-1,0.4c-0.3,0-0.5,0-0.7-0.2c-0.2-0.1-0.4-0.3-0.6-0.5v0.5h-1.4v-9.5h1.4v3.1
		c0.2-0.2,0.4-0.4,0.6-0.5c0.2-0.1,0.4-0.2,0.7-0.2c0.4,0,0.8,0.2,1,0.5c0.2,0.3,0.4,0.7,0.4,1.3V34.2z M174.2,32.3h-2.7v1.3
		c0,0.4,0,0.6,0.1,0.8c0.1,0.2,0.3,0.2,0.5,0.2c0.2,0,0.4-0.1,0.5-0.2c0.1-0.1,0.1-0.4,0.1-0.8v-0.3h1.5v0.4c0,0.7-0.2,1.3-0.5,1.6
		c-0.3,0.4-0.9,0.5-1.6,0.5c-0.6,0-1.1-0.2-1.5-0.6c-0.4-0.4-0.5-0.9-0.5-1.6v-3.2c0-0.6,0.2-1.1,0.6-1.5c0.4-0.4,0.9-0.6,1.5-0.6
		c0.6,0,1.1,0.2,1.5,0.5c0.3,0.4,0.5,0.9,0.5,1.5V32.3z M167.3,29.6c-0.1,0-0.2,0-0.3,0.1c-0.1,0-0.2,0.1-0.3,0.2v4.4
		c0.1,0.1,0.2,0.2,0.3,0.2c0.1,0,0.2,0.1,0.3,0.1c0.2,0,0.3,0,0.4-0.2c0.1-0.1,0.1-0.2,0.1-0.5v-3.6c0-0.2,0-0.4-0.2-0.5
		C167.6,29.7,167.5,29.6,167.3,29.6z M167.7,29.8c-0.1-0.1-0.2-0.2-0.4-0.2c-0.1,0-0.2,0-0.3,0.1c-0.1,0-0.2,0.1-0.3,0.2v4.4
		c0.1,0.1,0.2,0.2,0.3,0.2c0.1,0,0.2,0.1,0.3,0.1c0.2,0,0.3,0,0.4-0.2c0.1-0.1,0.1-0.2,0.1-0.5v-3.6C167.9,30.1,167.8,30,167.7,29.8
		z M167.7,29.8c-0.1-0.1-0.2-0.2-0.4-0.2c-0.1,0-0.2,0-0.3,0.1c-0.1,0-0.2,0.1-0.3,0.2v4.4c0.1,0.1,0.2,0.2,0.3,0.2
		c0.1,0,0.2,0.1,0.3,0.1c0.2,0,0.3,0,0.4-0.2c0.1-0.1,0.1-0.2,0.1-0.5v-3.6C167.9,30.1,167.8,30,167.7,29.8z"/>
</g>
</svg>
