<?xml version="1.0" encoding="utf-8"?>
<!-- Generator: Adobe Illustrator 18.0.0, SVG Export Plug-In . SVG Version: 6.00 Build 0)  -->
<!DOCTYPE svg PUBLIC "-//W3C//DTD SVG 1.1//EN" "http://www.w3.org/Graphics/SVG/1.1/DTD/svg11.dtd">
<svg version="1.1" id="Layer_1" xmlns="http://www.w3.org/2000/svg" xmlns:xlink="http://www.w3.org/1999/xlink" x="0px" y="0px"
	 viewBox="0 0 50 50" enable-background="new 0 0 50 50" xml:space="preserve">
<path fill="#333333" d="M-60,68.8c-0.2,0.6-0.5,1.1-0.7,1.5c-0.1,0.1-0.3,0.2-0.3,0.3v0c-1,1.4-3.1,1.4-5.2,1.5
	c-0.1,0.4-0.2,0.9-0.3,0.9h0.1c0,1-0.1,0.3-0.1,0.4c-1.4,4.9-2.7,9.6-4.1,14.6h-22.6c-1.4-5-2.8-9.4-4.4-14.6c0,0,0-0.1,0-0.1
	c0,0,0,0-0.1,0c0-0.1-0.1-0.2-0.1-0.3c0,0.1,0.1,0.2,0.1,0.3c-0.1-0.1-0.3-0.6-0.3-0.9c0,0,0,0,0,0c-1,0-1.3-0.1-2.1-0.2
	c-1-0.2-2.1-0.6-2.7-1.3c-0.3-0.3-0.6-0.7-0.9-1.2c-0.2-0.3-0.3-0.7-0.4-1.1c-1.1-3.3,0.5-7.7,3.9-9.6c0.2-0.1,0.5-0.3,0.8-0.4
	c0.8-0.4,1.4-0.6,2.2-0.9c1.1-0.4,3.3-0.7,3.3-1.1v0c1,0,0.2-0.1,0.2-0.1c0.1-3.3,1.5-10.3,9.7-8.7c0,0,10.6,1,8.3-2.7
	c-0.2,0-0.6-0.7-1.2-1.2c0.2,0,2.1,0,4,1.2c3.6,1.2,7.7,4.9,3,11.4c2.7,1.1,5.1,1.8,7,3.1C-59.8,61.7-58.8,65.1-60,68.8z"/>
<path fill="#F4B3CE" d="M25,46.7c12,0,21.7-9.7,21.7-21.7C46.7,13,37,3.3,25,3.3C13,3.3,3.3,13,3.3,25C3.3,37,13,46.7,25,46.7
	L25,46.7z"/>
<path fill="#F4B3CE" d="M-124.7-38.2c12,0,21.7-9.7,21.7-21.7c0-12-9.7-21.7-21.7-21.7c-12,0-21.7,9.7-21.7,21.7
	C-146.3-47.9-136.6-38.2-124.7-38.2L-124.7-38.2z"/>
<path fill="#333333" d="M-113.8-65.6c-0.8,0.4-1.7,0.6-2.6,0.7c0.9-0.6,1.6-1.4,2-2.5c-0.9,0.5-1.8,0.9-2.8,1.1
	c-0.8-0.9-2-1.4-3.3-1.4c-2.5,0-4.5,2-4.5,4.5c0,0.3,0,0.7,0.1,1c-3.7-0.2-7-2-9.2-4.7c-0.4,0.7-0.6,1.4-0.6,2.2
	c0,1.5,0.8,2.9,2,3.7c-0.7,0-1.4-0.2-2-0.6v0.1c0,2.2,1.5,4,3.6,4.4c-0.4,0.1-0.8,0.2-1.2,0.2c-0.3,0-0.6,0-0.8-0.1
	c0.6,1.8,2.2,3.1,4.2,3.1c-1.5,1.2-3.4,1.9-5.5,1.9c-0.4,0-0.7,0-1.1-0.1c2,1.3,4.3,2,6.8,2c8.2,0,12.7-6.8,12.7-12.7
	c0-0.2,0-0.4,0-0.6C-115.1-63.9-114.4-64.7-113.8-65.6L-113.8-65.6z"/>
<path fill="#F4B3CE" d="M-215.9-21.7c-0.9,0.4-1.8,0.7-2.8,0.8c1-0.6,1.8-1.6,2.2-2.7c-1,0.6-2,1-3.2,1.2c-0.9-1-2.2-1.6-3.6-1.6
	c-2.7,0-5,2.2-5,5c0,0.4,0,0.8,0.1,1.1c-4.1-0.2-7.8-2.2-10.2-5.2c-0.4,0.7-0.7,1.6-0.7,2.5c0,1.7,0.9,3.2,2.2,4.1
	c-0.8,0-1.6-0.3-2.2-0.6v0.1c0,2.4,1.7,4.4,4,4.9c-0.4,0.1-0.9,0.2-1.3,0.2c-0.3,0-0.6,0-0.9-0.1c0.6,2,2.5,3.4,4.6,3.4
	c-1.7,1.3-3.8,2.1-6.2,2.1c-0.4,0-0.8,0-1.2-0.1c2.2,1.4,4.8,2.2,7.6,2.2c9.1,0,14.1-7.6,14.1-14.1c0-0.2,0-0.4,0-0.6
	C-217.4-19.8-216.6-20.7-215.9-21.7L-215.9-21.7z"/>
<path fill="#7F807E" d="M-16.6-64.5c9.4,0,17-7.6,17-17c0-9.4-7.6-17-17-17c-9.4,0-17,7.6-17,17C-33.6-72.1-26-64.5-16.6-64.5
	L-16.6-64.5z"/>
<path fill="#FFFFFF" d="M-16.6-90.1c-4.7,0-8.5,3.8-8.5,8.5c0,3.5,2.1,6.5,5.1,7.8c0-0.6,0-1.3,0.1-2c0.2-0.7,1.1-4.6,1.1-4.6
	s-0.3-0.5-0.3-1.3c0-1.3,0.7-2.2,1.6-2.2c0.8,0,1.1,0.6,1.1,1.3c0,0.8-0.5,1.9-0.8,3c-0.2,0.9,0.5,1.6,1.3,1.6
	c1.6,0,2.7-2.1,2.7-4.5c0-1.9-1.3-3.3-3.5-3.3c-2.6,0-4.2,1.9-4.2,4.1c0,0.7,0.2,1.3,0.6,1.7c0.2,0.2,0.2,0.3,0.1,0.5
	c0,0.2-0.1,0.5-0.2,0.7c-0.1,0.2-0.2,0.3-0.4,0.2c-1.2-0.5-1.7-1.8-1.7-3.2c0-2.4,2-5.3,6.1-5.3c3.2,0,5.4,2.4,5.4,4.9
	c0,3.3-1.9,5.8-4.6,5.8c-0.9,0-1.8-0.5-2.1-1.1c0,0-0.5,2-0.6,2.3c-0.2,0.7-0.5,1.3-0.9,1.8c0.8,0.2,1.6,0.3,2.4,0.3
	c4.7,0,8.5-3.8,8.5-8.5C-8.1-86.3-11.9-90.1-16.6-90.1L-16.6-90.1z"/>
<path fill="#F4B3CE" d="M-135.5,17.4c12,0,21.7-9.7,21.7-21.7c0-12-9.7-21.7-21.7-21.7c-12,0-21.7,9.7-21.7,21.7
	C-157.2,7.7-147.5,17.4-135.5,17.4L-135.5,17.4z"/>
<path fill="#333333" d="M-135.5-18.8c-8,0-14.5,6.5-14.5,14.5c0,5.9,3.6,11,8.7,13.3c0-1,0-2.2,0.3-3.3c0.3-1.2,1.9-7.9,1.9-7.9
	s-0.5-0.9-0.5-2.3c0-2.1,1.2-3.8,2.8-3.8c1.3,0,2,1,2,2.2c0,1.3-0.8,3.3-1.3,5.1c-0.4,1.5,0.8,2.8,2.3,2.8c2.7,0,4.6-3.5,4.6-7.7
	c0-3.2-2.1-5.6-6-5.6c-4.4,0-7.1,3.3-7.1,6.9c0,1.3,0.4,2.2,1,2.8c0.3,0.3,0.3,0.4,0.2,0.8c-0.1,0.3-0.2,0.9-0.3,1.2
	c-0.1,0.4-0.4,0.5-0.7,0.4c-2-0.8-3-3-3-5.5c0-4.1,3.5-9.1,10.4-9.1c5.5,0,9.2,4,9.2,8.3c0,5.7-3.2,9.9-7.8,9.9
	c-1.6,0-3-0.8-3.5-1.8c0,0-0.8,3.3-1,4c-0.3,1.1-0.9,2.2-1.5,3.1c1.3,0.4,2.7,0.6,4.1,0.6c8,0,14.5-6.5,14.5-14.5
	C-121-12.3-127.5-18.8-135.5-18.8L-135.5-18.8z"/>
<path fill="#F4B3CE" d="M-213.8-77c-6.9,0-12.5,5.6-12.5,12.5c0,5.1,3.1,9.5,7.5,11.5c0-0.9,0-1.9,0.2-2.9c0.2-1,1.6-6.8,1.6-6.8
	s-0.4-0.8-0.4-2c0-1.9,1.1-3.2,2.4-3.2c1.1,0,1.7,0.9,1.7,1.9c0,1.1-0.7,2.9-1.1,4.4c-0.3,1.3,0.7,2.4,2,2.4c2.4,0,4-3,4-6.6
	c0-2.7-1.8-4.8-5.2-4.8c-3.8,0-6.2,2.8-6.2,6c0,1.1,0.3,1.9,0.8,2.5c0.2,0.3,0.3,0.4,0.2,0.7c-0.1,0.2-0.2,0.8-0.3,1
	c-0.1,0.3-0.3,0.4-0.6,0.3c-1.7-0.7-2.6-2.6-2.6-4.8c0-3.6,3-7.8,8.9-7.8c4.8,0,7.9,3.5,7.9,7.2c0,4.9-2.7,8.6-6.7,8.6
	c-1.3,0-2.6-0.7-3.1-1.6c0,0-0.7,2.9-0.9,3.4c-0.3,1-0.8,1.9-1.3,2.7c1.1,0.3,2.3,0.5,3.5,0.5c6.9,0,12.5-5.6,12.5-12.5
	C-201.3-71.4-206.9-77-213.8-77L-213.8-77z"/>
<path fill="#7F807E" d="M34.4-64.5c9.4,0,17-7.6,17-17c0-9.4-7.6-17-17-17c-9.4,0-17,7.6-17,17C17.4-72.1,25-64.5,34.4-64.5
	L34.4-64.5z"/>
<path fill="#FFFFFF" d="M30.3-84.4h1.8v-1.7c0-0.8,0-1.9,0.6-2.6c0.6-0.8,1.4-1.3,2.7-1.3c2.2,0,3.2,0.3,3.2,0.3l-0.4,2.6
	c0,0-0.7-0.2-1.4-0.2c-0.7,0-1.3,0.2-1.3,0.9v2h2.8L38-81.9h-2.6v8.8h-3.3v-8.8h-1.8V-84.4z"/>
<path fill="#333333" d="M17.8,20h3.1v-3c0-1.3,0-3.3,1-4.6c1-1.3,2.4-2.2,4.8-2.2c3.9,0,5.5,0.6,5.5,0.6l-0.8,4.5
	c0,0-1.3-0.4-2.5-0.4c-1.2,0-2.3,0.4-2.3,1.6V20h4.9l-0.3,4.4h-4.6v15.4h-5.8V24.4h-3.1V20z"/>
<path fill="#F4B3CE" d="M-175.9-22.2h2.8v-2.7c0-1.2,0-3,0.9-4.1c0.9-1.2,2.1-2,4.3-2c3.5,0,5,0.5,5,0.5l-0.7,4.1
	c0,0-1.2-0.3-2.2-0.3c-1.1,0-2,0.4-2,1.5v3.1h4.4l-0.3,4h-4.1v13.9h-5.2v-13.9h-2.8V-22.2z"/>
<path fill="#7F807E" d="M85.5-64.5c9.4,0,17-7.6,17-17c0-9.4-7.6-17-17-17c-9.4,0-17,7.6-17,17C68.4-72.1,76.1-64.5,85.5-64.5
	L85.5-64.5z"/>
<path fill="#FFFFFF" d="M82.6-73.9c-2,0-3.5-1.3-3.5-2.8c0-1.5,1.8-2.8,3.8-2.7c0.5,0,0.9,0.1,1.3,0.2c1.1,0.8,1.9,1.2,2.1,2.1
	c0,0.2,0.1,0.4,0.1,0.5C86.5-75.1,85.5-73.9,82.6-73.9L82.6-73.9z M83.2-82.9c-1.4,0-2.6-1.5-2.9-3.3c-0.2-1.8,0.7-3.1,2-3.1
	c1.4,0,2.6,1.5,2.9,3.3C85.4-84.3,84.5-82.9,83.2-82.9L83.2-82.9z M86-80.3c-0.5-0.3-1.4-1.2-1.4-1.6c0-0.6,0.2-0.8,1-1.5
	c0.9-0.7,1.5-1.6,1.5-2.8c0-1.3-0.6-2.6-1.7-3h1.7l1.2-0.9H83c-2.4,0-4.6,1.8-4.6,3.9c0,2.1,1.6,3.8,4,3.8c0.2,0,0.3,0,0.5,0
	c-0.2,0.3-0.3,0.6-0.3,1c0,0.6,0.3,1.1,0.7,1.5c-0.3,0-0.6,0-0.9,0c-2.9,0-5.2,1.9-5.2,3.8c0,1.9,2.5,3.1,5.4,3.1
	c3.3,0,5.2-1.9,5.2-3.8C87.8-78.4,87.4-79.3,86-80.3L86-80.3z M93.7-82.8h-2.1v-2.1h-1.7v2.1h-2.1v1.7h2.1v2.1h1.7v-2.1h2.1V-82.8z"
	/>
<path fill="#F4B3CE" d="M-85.4,81.5c-2.9,0-4.9-1.8-4.9-4c0-2.1,2.6-3.9,5.4-3.9c0.7,0,1.3,0.1,1.8,0.3c1.5,1.1,2.7,1.7,3,2.9
	c0.1,0.2,0.1,0.5,0.1,0.8C-79.9,79.8-81.3,81.5-85.4,81.5L-85.4,81.5z M-84.6,68.8c-1.9-0.1-3.7-2.1-4.1-4.7c-0.3-2.5,1-4.4,2.9-4.4
	c1.9,0.1,3.7,2.1,4.1,4.6C-81.4,66.9-82.7,68.8-84.6,68.8L-84.6,68.8z M-80.6,72.5c-0.7-0.5-2-1.6-2-2.3c0-0.8,0.2-1.2,1.4-2.1
	c1.2-1,2.1-2.3,2.1-3.9c0-1.9-0.8-3.7-2.4-4.3h2.4l1.7-1.2h-7.4c-3.3,0-6.5,2.5-6.5,5.4c0,3,2.3,5.4,5.7,5.4c0.2,0,0.5,0,0.7,0
	c-0.2,0.4-0.4,0.9-0.4,1.4c0,0.8,0.4,1.5,1,2.1c-0.4,0-0.8,0-1.3,0c-4.1,0-7.3,2.6-7.3,5.4c0,2.7,3.5,4.4,7.6,4.4
	c4.7,0,7.3-2.7,7.3-5.4C-78,75.2-78.7,73.9-80.6,72.5L-80.6,72.5z M-69.8,69h-2.9v-2.9H-75V69h-2.9v2.3h2.9v2.9h2.3v-2.9h2.9V69z"/>
<circle fill="#F4B3CE" cx="-65.1" cy="0.2" r="17.9"/>
</svg>
