<?xml version="1.0" encoding="utf-8"?>
<!-- Generator: Adobe Illustrator 19.0.0, SVG Export Plug-In . SVG Version: 6.00 Build 0)  -->
<!DOCTYPE svg PUBLIC "-//W3C//DTD SVG 1.1//EN" "http://www.w3.org/Graphics/SVG/1.1/DTD/svg11.dtd">
<svg version="1.1" id="Layer_1" xmlns="http://www.w3.org/2000/svg" xmlns:xlink="http://www.w3.org/1999/xlink" x="0px" y="0px"
	 viewBox="0 0 50 50" enable-background="new 0 0 50 50" xml:space="preserve">
<path id="XMLID_810_" fill="none" stroke="#F15F43" stroke-miterlimit="10" d="M-114.9,46.8c12.3,0,22.2-10,22.2-22.2
	c0-12.3-9.9-22.2-22.2-22.2c-12.3,0-22.2,10-22.2,22.2C-137.1,36.8-127.1,46.8-114.9,46.8L-114.9,46.8z"/>
<path id="XMLID_803_" fill="#CCCCCC" d="M-115.8,19c0.4,0.6,0.6,1.3,0.6,2.1c0,0.8-0.2,1.5-0.6,2c-0.2,0.3-0.6,0.5-1,0.8
	c0.7,0.3,1.2,0.7,1.6,1.2c0.4,0.6,0.5,1.2,0.5,2c0,0.8-0.2,1.5-0.6,2.2c-0.3,0.4-0.6,0.8-1,1.1c-0.4,0.3-1,0.6-1.6,0.7
	c-0.6,0.1-1.2,0.2-1.9,0.2h-6.2V17.5h6.6C-117.7,17.5-116.5,18-115.8,19z M-123.2,19.9v3h3.3c0.6,0,1.1-0.1,1.5-0.3
	c0.4-0.2,0.6-0.6,0.6-1.2c0-0.6-0.2-1.1-0.7-1.3c-0.4-0.1-1-0.2-1.6-0.2H-123.2z M-123.2,25.2v3.7h3.3c0.6,0,1.1-0.1,1.4-0.2
	c0.6-0.3,0.9-0.9,0.9-1.7c0-0.7-0.3-1.2-0.9-1.5c-0.3-0.1-0.8-0.2-1.4-0.2H-123.2z M-106.4,21.3c0.7,0.3,1.3,0.8,1.8,1.5
	c0.4,0.6,0.7,1.3,0.8,2.1c0.1,0.5,0.1,1.1,0.1,2h-7.4c0,1,0.4,1.7,1.1,2.1c0.4,0.3,0.9,0.4,1.5,0.4c0.6,0,1.1-0.2,1.5-0.5
	c0.2-0.2,0.4-0.4,0.5-0.7h2.7c-0.1,0.6-0.4,1.2-1,1.8c-0.9,1-2.2,1.5-3.8,1.5c-1.4,0-2.5-0.4-3.6-1.2c-1-0.8-1.6-2.2-1.6-4.1
	c0-1.8,0.5-3.1,1.4-4c0.9-0.9,2.1-1.4,3.6-1.4C-107.9,20.8-107.1,21-106.4,21.3z M-110.4,23.6c-0.4,0.4-0.6,0.9-0.7,1.6h4.6
	c0-0.7-0.3-1.2-0.7-1.6c-0.4-0.4-1-0.5-1.6-0.5C-109.5,23-110,23.2-110.4,23.6z M-105.9,18.1h-5.9v1.7h5.9V18.1z"/>
<path id="XMLID_801_" fill="none" stroke="#F15F43" stroke-miterlimit="10" d="M-43.7,46.8c12.3,0,22.2-9.9,22.2-22.2
	c0-12.3-10-22.2-22.2-22.2c-12.3,0-22.2,10-22.2,22.2C-65.9,36.8-56,46.8-43.7,46.8L-43.7,46.8z"/>
<path id="XMLID_800_" fill="#CCCCCC" d="M-49.1,20.8h2.3v-2.2c0-1,0-2.5,0.7-3.4c0.8-1,1.8-1.7,3.6-1.7c2.9,0,4.1,0.4,4.1,0.4
	l-0.6,3.4c0,0-1-0.3-1.9-0.3c-0.9,0-1.7,0.3-1.7,1.2v2.6h3.7l-0.3,3.3h-3.4v11.6h-4.3V24.1h-2.3V20.8z"/>
<path id="XMLID_832_" fill="none" stroke="#F15F43" stroke-miterlimit="10" d="M25.2,46.8c12.3,0,22.2-10,22.2-22.2
	c0-12.3-9.9-22.2-22.2-22.2C12.9,2.3,3,12.3,3,24.5C3,36.8,12.9,46.8,25.2,46.8L25.2,46.8z"/>
<path id="XMLID_812_" fill="#CCCCCC" d="M31.5,14.1V20c-0.1,0.2-0.3,0.3-0.5,0.4c-0.2,0.1-0.3,0.2-0.5,0.2c-0.1,0-0.2,0-0.3-0.1
	c-0.1-0.1-0.1-0.2-0.1-0.4v-5.9h-1.6v6.5c0,0.5,0.1,0.8,0.3,1c0.2,0.2,0.5,0.3,0.8,0.3c0.3,0,0.6-0.1,0.9-0.2
	c0.3-0.2,0.6-0.4,0.9-0.7v0.9h1.6v-7.8H31.5z M26.7,14.5c-0.4-0.4-1-0.6-1.6-0.6c-0.7,0-1.3,0.2-1.7,0.5c-0.4,0.4-0.6,0.8-0.6,1.4v4
	c0,0.7,0.2,1.2,0.6,1.6c0.4,0.4,1,0.6,1.7,0.6c0.7,0,1.3-0.2,1.7-0.6c0.4-0.4,0.6-0.9,0.6-1.6v-4C27.3,15.3,27.1,14.9,26.7,14.5z
	 M25.7,20.1c0,0.2-0.1,0.4-0.2,0.5c-0.1,0.1-0.3,0.2-0.5,0.2c-0.2,0-0.4-0.1-0.5-0.2c-0.1-0.1-0.2-0.3-0.2-0.5v-4.2
	c0-0.2,0.1-0.3,0.2-0.4c0.1-0.1,0.3-0.2,0.5-0.2c0.2,0,0.4,0,0.5,0.2c0.1,0.1,0.2,0.2,0.2,0.4V20.1z M20.8,11.4l-1.1,4.2h-0.1
	l-1.2-4.2h-1.8l2.1,6.4v4.2h1.8v-4.4l2.1-6.1H20.8z M33.1,29.9c0.1,0.1,0.1,0.3,0.1,0.6v0.7H32v-0.7c0-0.3,0-0.5,0.1-0.6
	c0.1-0.1,0.2-0.2,0.5-0.2C32.9,29.7,33,29.7,33.1,29.9z M28.2,29.8c-0.1-0.1-0.2-0.2-0.4-0.2c-0.1,0-0.2,0-0.3,0.1
	c-0.1,0-0.2,0.1-0.3,0.2v4.4c0.1,0.1,0.2,0.2,0.3,0.2c0.1,0,0.2,0.1,0.3,0.1c0.2,0,0.3,0,0.4-0.2c0.1-0.1,0.1-0.2,0.1-0.5v-3.6
	C28.4,30.1,28.3,30,28.2,29.8z M28.2,29.8c-0.1-0.1-0.2-0.2-0.4-0.2c-0.1,0-0.2,0-0.3,0.1c-0.1,0-0.2,0.1-0.3,0.2v4.4
	c0.1,0.1,0.2,0.2,0.3,0.2c0.1,0,0.2,0.1,0.3,0.1c0.2,0,0.3,0,0.4-0.2c0.1-0.1,0.1-0.2,0.1-0.5v-3.6C28.4,30.1,28.3,30,28.2,29.8z
	 M36.2,24.4H14.2c-2.4,0-4.4,2-4.4,4.4v4.5c0,2.4,2,4.4,4.4,4.4h22.1c2.4,0,4.4-2,4.4-4.4v-4.5C40.6,26.4,38.6,24.4,36.2,24.4z
	 M20.1,27.5h-1.6v8.2h-1.6v-8.2h-1.6v-1.4h4.9V27.5z M24.7,35.7h-1.4v-0.8c-0.2,0.3-0.5,0.5-0.8,0.7c-0.3,0.2-0.5,0.2-0.8,0.2
	c-0.3,0-0.6-0.1-0.7-0.3c-0.2-0.2-0.2-0.5-0.2-0.9v-5.9h1.4V34c0,0.2,0,0.3,0.1,0.4c0,0.1,0.2,0.1,0.3,0.1c0.1,0,0.2,0,0.4-0.2
	c0.2-0.1,0.3-0.2,0.4-0.4v-5.4h1.4V35.7z M29.8,34.2c0,0.5-0.1,0.9-0.3,1.2c-0.2,0.3-0.5,0.4-1,0.4c-0.3,0-0.5,0-0.7-0.2
	c-0.2-0.1-0.4-0.3-0.6-0.5v0.5h-1.4v-9.5h1.4v3.1c0.2-0.2,0.4-0.4,0.6-0.5c0.2-0.1,0.4-0.2,0.7-0.2c0.4,0,0.8,0.2,1,0.5
	c0.2,0.3,0.4,0.7,0.4,1.3V34.2z M34.7,32.3H32v1.3c0,0.4,0,0.6,0.1,0.8c0.1,0.2,0.3,0.2,0.5,0.2c0.2,0,0.4-0.1,0.5-0.2
	c0.1-0.1,0.1-0.4,0.1-0.8v-0.3h1.5v0.4c0,0.7-0.2,1.3-0.5,1.6c-0.3,0.4-0.9,0.5-1.6,0.5c-0.6,0-1.1-0.2-1.5-0.6
	c-0.4-0.4-0.5-0.9-0.5-1.6v-3.2c0-0.6,0.2-1.1,0.6-1.5c0.4-0.4,0.9-0.6,1.5-0.6c0.6,0,1.1,0.2,1.5,0.5c0.3,0.4,0.5,0.9,0.5,1.5V32.3
	z M27.8,29.6c-0.1,0-0.2,0-0.3,0.1c-0.1,0-0.2,0.1-0.3,0.2v4.4c0.1,0.1,0.2,0.2,0.3,0.2c0.1,0,0.2,0.1,0.3,0.1c0.2,0,0.3,0,0.4-0.2
	c0.1-0.1,0.1-0.2,0.1-0.5v-3.6c0-0.2,0-0.4-0.2-0.5C28.1,29.7,28,29.6,27.8,29.6z M28.2,29.8c-0.1-0.1-0.2-0.2-0.4-0.2
	c-0.1,0-0.2,0-0.3,0.1c-0.1,0-0.2,0.1-0.3,0.2v4.4c0.1,0.1,0.2,0.2,0.3,0.2c0.1,0,0.2,0.1,0.3,0.1c0.2,0,0.3,0,0.4-0.2
	c0.1-0.1,0.1-0.2,0.1-0.5v-3.6C28.4,30.1,28.3,30,28.2,29.8z M28.2,29.8c-0.1-0.1-0.2-0.2-0.4-0.2c-0.1,0-0.2,0-0.3,0.1
	c-0.1,0-0.2,0.1-0.3,0.2v4.4c0.1,0.1,0.2,0.2,0.3,0.2c0.1,0,0.2,0.1,0.3,0.1c0.2,0,0.3,0,0.4-0.2c0.1-0.1,0.1-0.2,0.1-0.5v-3.6
	C28.4,30.1,28.3,30,28.2,29.8z"/>
</svg>
