<?xml version="1.0" encoding="utf-8"?>
<!-- Generator: Adobe Illustrator 19.0.0, SVG Export Plug-In . SVG Version: 6.00 Build 0)  -->
<!DOCTYPE svg PUBLIC "-//W3C//DTD SVG 1.1//EN" "http://www.w3.org/Graphics/SVG/1.1/DTD/svg11.dtd">
<svg version="1.1" id="Layer_1" xmlns="http://www.w3.org/2000/svg" xmlns:xlink="http://www.w3.org/1999/xlink" x="0px" y="0px"
	 viewBox="0 0 50 50" enable-background="new 0 0 50 50" xml:space="preserve">
<path id="XMLID_810_" fill="none" stroke="#F15F43" stroke-miterlimit="10" d="M24.9,46.8c12.3,0,22.2-10,22.2-22.2
	c0-12.3-9.9-22.2-22.2-22.2c-12.3,0-22.2,10-22.2,22.2C2.7,36.8,12.6,46.8,24.9,46.8L24.9,46.8z"/>
<path id="XMLID_803_" fill="#CCCCCC" d="M24,19c0.4,0.6,0.6,1.3,0.6,2.1c0,0.8-0.2,1.5-0.6,2c-0.2,0.3-0.6,0.5-1,0.8
	c0.7,0.3,1.2,0.7,1.6,1.2c0.4,0.6,0.5,1.2,0.5,2c0,0.8-0.2,1.5-0.6,2.2c-0.3,0.4-0.6,0.8-1,1.1c-0.4,0.3-1,0.6-1.6,0.7
	c-0.6,0.1-1.2,0.2-1.9,0.2h-6.2V17.5h6.6C22.1,17.5,23.3,18,24,19z M16.5,19.9v3h3.3c0.6,0,1.1-0.1,1.5-0.3c0.4-0.2,0.6-0.6,0.6-1.2
	c0-0.6-0.2-1.1-0.7-1.3c-0.4-0.1-1-0.2-1.6-0.2H16.5z M16.5,25.2v3.7h3.3c0.6,0,1.1-0.1,1.4-0.2c0.6-0.3,0.9-0.9,0.9-1.7
	c0-0.7-0.3-1.2-0.9-1.5c-0.3-0.1-0.8-0.2-1.4-0.2H16.5z M33.4,21.3c0.7,0.3,1.3,0.8,1.8,1.5c0.4,0.6,0.7,1.3,0.8,2.1
	c0.1,0.5,0.1,1.1,0.1,2h-7.4c0,1,0.4,1.7,1.1,2.1c0.4,0.3,0.9,0.4,1.5,0.4c0.6,0,1.1-0.2,1.5-0.5c0.2-0.2,0.4-0.4,0.5-0.7h2.7
	c-0.1,0.6-0.4,1.2-1,1.8c-0.9,1-2.2,1.5-3.8,1.5c-1.4,0-2.5-0.4-3.6-1.2c-1-0.8-1.6-2.2-1.6-4.1c0-1.8,0.5-3.1,1.4-4
	c0.9-0.9,2.1-1.4,3.6-1.4C31.8,20.8,32.6,21,33.4,21.3z M29.4,23.6c-0.4,0.4-0.6,0.9-0.7,1.6h4.6c0-0.7-0.3-1.2-0.7-1.6
	c-0.4-0.4-1-0.5-1.6-0.5C30.3,23,29.8,23.2,29.4,23.6z M33.9,18.1H28v1.7h5.9V18.1z"/>
<path id="XMLID_801_" fill="#F15F43" d="M96.1,46.8c12.3,0,22.2-9.9,22.2-22.2c0-12.3-10-22.2-22.2-22.2c-12.3,0-22.2,10-22.2,22.2
	C73.8,36.8,83.8,46.8,96.1,46.8L96.1,46.8z"/>
<path id="XMLID_800_" fill="#FFFFFF" d="M90.7,20.8H93v-2.2c0-1,0-2.5,0.7-3.4c0.8-1,1.8-1.7,3.6-1.7c2.9,0,4.1,0.4,4.1,0.4
	l-0.6,3.4c0,0-1-0.3-1.9-0.3c-0.9,0-1.7,0.3-1.7,1.2v2.6h3.7l-0.3,3.3h-3.4v11.6H93V24.1h-2.3V20.8z"/>
<path id="XMLID_832_" fill="#F15F43" d="M164.9,46.8c12.3,0,22.2-10,22.2-22.2c0-12.3-9.9-22.2-22.2-22.2c-12.3,0-22.2,10-22.2,22.2
	C142.7,36.8,152.7,46.8,164.9,46.8L164.9,46.8z"/>
<path id="XMLID_812_" fill="#FFFFFF" d="M171.3,14.1V20c-0.1,0.2-0.3,0.3-0.5,0.4c-0.2,0.1-0.3,0.2-0.5,0.2c-0.1,0-0.2,0-0.3-0.1
	c-0.1-0.1-0.1-0.2-0.1-0.4v-5.9h-1.6v6.5c0,0.5,0.1,0.8,0.3,1c0.2,0.2,0.5,0.3,0.8,0.3c0.3,0,0.6-0.1,0.9-0.2
	c0.3-0.2,0.6-0.4,0.9-0.7v0.9h1.6v-7.8H171.3z M166.4,14.5c-0.4-0.4-1-0.6-1.6-0.6c-0.7,0-1.3,0.2-1.7,0.5c-0.4,0.4-0.6,0.8-0.6,1.4
	v4c0,0.7,0.2,1.2,0.6,1.6c0.4,0.4,1,0.6,1.7,0.6c0.7,0,1.3-0.2,1.7-0.6c0.4-0.4,0.6-0.9,0.6-1.6v-4C167,15.3,166.8,14.9,166.4,14.5z
	 M165.4,20.1c0,0.2-0.1,0.4-0.2,0.5c-0.1,0.1-0.3,0.2-0.5,0.2c-0.2,0-0.4-0.1-0.5-0.2c-0.1-0.1-0.2-0.3-0.2-0.5v-4.2
	c0-0.2,0.1-0.3,0.2-0.4c0.1-0.1,0.3-0.2,0.5-0.2c0.2,0,0.4,0,0.5,0.2c0.1,0.1,0.2,0.2,0.2,0.4V20.1z M160.5,11.4l-1.1,4.2h-0.1
	l-1.2-4.2h-1.8l2.1,6.4v4.2h1.8v-4.4l2.1-6.1H160.5z M172.9,29.9c0.1,0.1,0.1,0.3,0.1,0.6v0.7h-1.2v-0.7c0-0.3,0-0.5,0.1-0.6
	c0.1-0.1,0.2-0.2,0.5-0.2C172.6,29.7,172.8,29.7,172.9,29.9z M168,29.8c-0.1-0.1-0.2-0.2-0.4-0.2c-0.1,0-0.2,0-0.3,0.1
	c-0.1,0-0.2,0.1-0.3,0.2v4.4c0.1,0.1,0.2,0.2,0.3,0.2c0.1,0,0.2,0.1,0.3,0.1c0.2,0,0.3,0,0.4-0.2c0.1-0.1,0.1-0.2,0.1-0.5v-3.6
	C168.2,30.1,168.1,30,168,29.8z M168,29.8c-0.1-0.1-0.2-0.2-0.4-0.2c-0.1,0-0.2,0-0.3,0.1c-0.1,0-0.2,0.1-0.3,0.2v4.4
	c0.1,0.1,0.2,0.2,0.3,0.2c0.1,0,0.2,0.1,0.3,0.1c0.2,0,0.3,0,0.4-0.2c0.1-0.1,0.1-0.2,0.1-0.5v-3.6C168.2,30.1,168.1,30,168,29.8z
	 M176,24.4h-22.1c-2.4,0-4.4,2-4.4,4.4v4.5c0,2.4,2,4.4,4.4,4.4H176c2.4,0,4.4-2,4.4-4.4v-4.5C180.4,26.4,178.4,24.4,176,24.4z
	 M159.9,27.5h-1.6v8.2h-1.6v-8.2H155v-1.4h4.9V27.5z M164.5,35.7h-1.4v-0.8c-0.2,0.3-0.5,0.5-0.8,0.7c-0.3,0.2-0.5,0.2-0.8,0.2
	c-0.3,0-0.6-0.1-0.7-0.3c-0.2-0.2-0.2-0.5-0.2-0.9v-5.9h1.4V34c0,0.2,0,0.3,0.1,0.4c0,0.1,0.2,0.1,0.3,0.1c0.1,0,0.2,0,0.4-0.2
	c0.2-0.1,0.3-0.2,0.4-0.4v-5.4h1.4V35.7z M169.6,34.2c0,0.5-0.1,0.9-0.3,1.2c-0.2,0.3-0.5,0.4-1,0.4c-0.3,0-0.5,0-0.7-0.2
	c-0.2-0.1-0.4-0.3-0.6-0.5v0.5h-1.4v-9.5h1.4v3.1c0.2-0.2,0.4-0.4,0.6-0.5c0.2-0.1,0.4-0.2,0.7-0.2c0.4,0,0.8,0.2,1,0.5
	c0.2,0.3,0.4,0.7,0.4,1.3V34.2z M174.5,32.3h-2.7v1.3c0,0.4,0,0.6,0.1,0.8c0.1,0.2,0.3,0.2,0.5,0.2c0.2,0,0.4-0.1,0.5-0.2
	c0.1-0.1,0.1-0.4,0.1-0.8v-0.3h1.5v0.4c0,0.7-0.2,1.3-0.5,1.6c-0.3,0.4-0.9,0.5-1.6,0.5c-0.6,0-1.1-0.2-1.5-0.6
	c-0.4-0.4-0.5-0.9-0.5-1.6v-3.2c0-0.6,0.2-1.1,0.6-1.5c0.4-0.4,0.9-0.6,1.5-0.6c0.6,0,1.1,0.2,1.5,0.5c0.3,0.4,0.5,0.9,0.5,1.5V32.3
	z M167.6,29.6c-0.1,0-0.2,0-0.3,0.1c-0.1,0-0.2,0.1-0.3,0.2v4.4c0.1,0.1,0.2,0.2,0.3,0.2c0.1,0,0.2,0.1,0.3,0.1c0.2,0,0.3,0,0.4-0.2
	c0.1-0.1,0.1-0.2,0.1-0.5v-3.6c0-0.2,0-0.4-0.2-0.5C167.9,29.7,167.7,29.6,167.6,29.6z M168,29.8c-0.1-0.1-0.2-0.2-0.4-0.2
	c-0.1,0-0.2,0-0.3,0.1c-0.1,0-0.2,0.1-0.3,0.2v4.4c0.1,0.1,0.2,0.2,0.3,0.2c0.1,0,0.2,0.1,0.3,0.1c0.2,0,0.3,0,0.4-0.2
	c0.1-0.1,0.1-0.2,0.1-0.5v-3.6C168.2,30.1,168.1,30,168,29.8z M168,29.8c-0.1-0.1-0.2-0.2-0.4-0.2c-0.1,0-0.2,0-0.3,0.1
	c-0.1,0-0.2,0.1-0.3,0.2v4.4c0.1,0.1,0.2,0.2,0.3,0.2c0.1,0,0.2,0.1,0.3,0.1c0.2,0,0.3,0,0.4-0.2c0.1-0.1,0.1-0.2,0.1-0.5v-3.6
	C168.2,30.1,168.1,30,168,29.8z"/>
</svg>
