<?xml version="1.0" encoding="utf-8"?>
<!-- Generator: Adobe Illustrator 18.0.0, SVG Export Plug-In . SVG Version: 6.00 Build 0)  -->
<!DOCTYPE svg PUBLIC "-//W3C//DTD SVG 1.1//EN" "http://www.w3.org/Graphics/SVG/1.1/DTD/svg11.dtd">
<svg version="1.1" id="Layer_1" xmlns="http://www.w3.org/2000/svg" xmlns:xlink="http://www.w3.org/1999/xlink" x="0px" y="0px"
	 viewBox="0 0 650 50" enable-background="new 0 0 650 50" xml:space="preserve">
<g>
	<g>
		<line fill="none" stroke="#CCCCCC" stroke-miterlimit="10" x1="14" y1="25.5" x2="16" y2="25.5"/>
		<line fill="none" stroke="#CCCCCC" stroke-miterlimit="10" stroke-dasharray="4,2" x1="18" y1="25.5" x2="633" y2="25.5"/>
		<line fill="none" stroke="#CCCCCC" stroke-miterlimit="10" x1="634" y1="25.5" x2="636" y2="25.5"/>
	</g>
</g>
<g>
	<circle fill="#98D8CF" cx="13.7" cy="25.1" r="12.3"/>
	<g>
		
			<circle fill="none" stroke="#FFFFFF" stroke-width="0.25" stroke-miterlimit="10" stroke-dasharray="2.0204,2.0204" cx="13.7" cy="25.1" r="10.3"/>
	</g>
	<path fill="#FFFFFF" d="M14.9,26c0,0-0.1,0-0.1,0C14.8,26,14.8,26,14.9,26C14.9,26,14.9,26,14.9,26z"/>
</g>
<g>
	<circle fill="#98D8CF" cx="220.9" cy="25.1" r="12.3"/>
	<g>
		
			<circle fill="none" stroke="#FFFFFF" stroke-width="0.25" stroke-miterlimit="10" stroke-dasharray="2.0204,2.0204" cx="220.9" cy="25.1" r="10.3"/>
	</g>
	<path fill="#FFFFFF" d="M222.1,26c0,0-0.1,0-0.1,0C222,26,222,26,222.1,26C222,26,222.1,26,222.1,26z"/>
</g>
<g>
	<circle fill="#98D8CF" cx="428.1" cy="25.1" r="12.3"/>
	<g>
		
			<circle fill="none" stroke="#FFFFFF" stroke-width="0.25" stroke-miterlimit="10" stroke-dasharray="2.0204,2.0204" cx="428.1" cy="25.1" r="10.3"/>
	</g>
	<path fill="#FFFFFF" d="M429.3,26c0,0-0.1,0-0.1,0C429.2,26,429.2,26,429.3,26C429.2,26,429.3,26,429.3,26z"/>
</g>
<g>
	<circle fill="#98D8CF" cx="635.3" cy="25.1" r="12.3"/>
	<g>
		
			<circle fill="none" stroke="#FFFFFF" stroke-width="0.25" stroke-miterlimit="10" stroke-dasharray="2.0204,2.0204" cx="635.3" cy="25.1" r="10.3"/>
	</g>
	<path fill="#FFFFFF" d="M636.5,26c0,0-0.1,0-0.1,0C636.4,26,636.4,26,636.5,26C636.4,26,636.4,26,636.5,26z"/>
</g>
</svg>
