<?xml version="1.0" encoding="utf-8"?>
<!-- Generator: Adobe Illustrator 20.0.0, SVG Export Plug-In . SVG Version: 6.00 Build 0)  -->
<!DOCTYPE svg PUBLIC "-//W3C//DTD SVG 1.1//EN" "http://www.w3.org/Graphics/SVG/1.1/DTD/svg11.dtd">
<svg version="1.1" id="Layer_1" xmlns="http://www.w3.org/2000/svg" xmlns:xlink="http://www.w3.org/1999/xlink" x="0px" y="0px"
	 viewBox="0 0 124.8 348" enable-background="new 0 0 124.8 348" xml:space="preserve">
<g>
	<g>
		<line fill="none" stroke="#CCCCCC" stroke-width="1.4844" stroke-miterlimit="10" x1="59.5" y1="295.9" x2="59.5" y2="297"/>
		
			<line fill="none" stroke="#CCCCCC" stroke-width="1.4844" stroke-miterlimit="10" stroke-dasharray="2.3285,2.3285" x1="59.5" y1="299.4" x2="59.5" y2="340.1"/>
		<line fill="none" stroke="#CCCCCC" stroke-width="1.4844" stroke-miterlimit="10" x1="59.5" y1="341.3" x2="59.5" y2="342.4"/>
	</g>
</g>
<g>
	<g>
		<line fill="none" stroke="#CCCCCC" stroke-width="1.4844" stroke-miterlimit="10" x1="59.5" y1="163" x2="59.5" y2="164.1"/>
		
			<line fill="none" stroke="#CCCCCC" stroke-width="1.4844" stroke-miterlimit="10" stroke-dasharray="2.1244,2.1244" x1="59.5" y1="166.2" x2="59.5" y2="194.9"/>
		<line fill="none" stroke="#CCCCCC" stroke-width="1.4844" stroke-miterlimit="10" x1="59.5" y1="196" x2="59.5" y2="197.1"/>
	</g>
</g>
<g>
	<g>
		<line fill="none" stroke="#CCCCCC" stroke-width="1.4844" stroke-miterlimit="10" x1="59.5" y1="6.3" x2="59.5" y2="7.4"/>
		
			<line fill="none" stroke="#CCCCCC" stroke-width="1.4844" stroke-miterlimit="10" stroke-dasharray="2.1443,2.1443" x1="59.5" y1="9.6" x2="59.5" y2="64.2"/>
		<line fill="none" stroke="#CCCCCC" stroke-width="1.4844" stroke-miterlimit="10" x1="59.5" y1="65.3" x2="59.5" y2="66.4"/>
	</g>
</g>
<circle fill="none" stroke="#C7C6C5" stroke-width="0.6864" stroke-miterlimit="10" cx="61.6" cy="113.3" r="42.1"/>
<rect x="0.1" y="98" fill="#FFFFFF" width="124.8" height="30.7"/>
<circle fill="none" stroke="#C7C6C5" stroke-width="0.6864" stroke-miterlimit="10" cx="61.6" cy="247.9" r="42.1"/>
<rect x="0.4" y="103.3" fill="none" width="124.4" height="16.6"/>
<text transform="matrix(1 0 0 1 3.23 118.6089)" fill="#818181" font-family="'BreeSerif-Regular'" font-size="21.5239px" letter-spacing="1">synthesize</text>
<rect x="0.1" y="232.5" fill="#FFFFFF" width="124.8" height="32.2"/>
<rect x="6.8" y="240.3" fill="none" width="106.9" height="16.6"/>
<text transform="matrix(1 0 0 1 15.8237 255.6338)" fill="#818181" font-family="'BreeSerif-Regular'" font-size="21.5239px" letter-spacing="1">imagine</text>
</svg>
