<?xml version="1.0" encoding="utf-8"?>
<!-- Generator: Adobe Illustrator 20.0.0, SVG Export Plug-In . SVG Version: 6.00 Build 0)  -->
<!DOCTYPE svg PUBLIC "-//W3C//DTD SVG 1.1//EN" "http://www.w3.org/Graphics/SVG/1.1/DTD/svg11.dtd">
<svg version="1.1" id="Layer_1" xmlns="http://www.w3.org/2000/svg" xmlns:xlink="http://www.w3.org/1999/xlink" x="0px" y="0px"
	 viewBox="0 0 100 100" enable-background="new 0 0 100 100" xml:space="preserve">
<g opacity="0.6">
	<path fill="#676767" d="M5.4,61.6c0-0.4,0-0.6,0-0.7c0-5.2,0-10.5,0-15.7c0-0.4,0.1-0.7,0.5-1C9.9,40.6,14,37,18.1,33.5
		c0.4-0.3,0.5-0.6,0.5-1.1c0-7.7,0-15.3,0-23c0-0.3,0-0.5,0-0.8c3.9,0,7.8,0,11.7,0c0,4.7,0,9.4,0,14.3c6.9-6,13.7-11.9,20.5-17.8
		c0.2,0.2,0.4,0.3,0.6,0.4C66.1,18.3,80.9,31.1,95.7,44c0.2,0.2,0.4,0.6,0.4,0.8c0,5.4,0,10.7,0,16.1c0,0.1,0,0.2,0,0.5
		c-3.4-3-6.8-5.9-10.2-8.8c0,13.2,0,26.2,0,39.4c3.4,0,6.7,0,10.2,0c0,1,0,2,0,3c-30.2,0-60.4,0-90.7,0c0-1,0-1.9,0-2.9
		c3.4,0,6.7,0,10.1,0c0-13.1,0-26.1,0-39.2C12.1,55.7,8.8,58.6,5.4,61.6z M66.9,59.8c0,10.8,0,21.4,0,32.1c5.4,0,10.7,0,16.1,0
		c0-0.3,0-0.5,0-0.8c0-13.5,0-27,0-40.5c0-0.5-0.1-0.8-0.5-1.1c-9.1-7.9-18.2-15.7-27.3-23.6c-1.5-1.3-3-2.6-4.5-3.9
		c-0.2,0.1-0.3,0.3-0.5,0.4C39.9,31.5,29.4,40.6,19,49.7c-0.4,0.3-0.5,0.7-0.5,1.1c0,13.4,0,26.9,0,40.3c0,0.2,0,0.5,0,0.8
		c5.4,0,10.7,0,16.1,0c0-10.7,0-21.4,0-32.2C45.4,59.8,56.1,59.8,66.9,59.8z M50.8,8.9c-0.2,0.2-0.3,0.3-0.5,0.4
		c-2,1.8-4.1,3.6-6.1,5.3C32.3,24.9,20.5,35.2,8.7,45.5c-0.2,0.2-0.4,0.6-0.4,0.8c0,2.7,0,5.4,0,8.1c0,0.2,0,0.3,0,0.6
		c14.2-12.4,28.3-24.7,42.4-37C64.9,30.4,79,42.7,93.2,55c0-0.4,0-0.6,0-0.8c0-2.6,0-5.2,0-7.7c0-0.5-0.2-0.9-0.6-1.2
		c-10.7-9.2-21.3-18.5-32-27.7C57.4,14.6,54.1,11.8,50.8,8.9z M37.6,91.9c3.9,0,7.8,0,11.6,0c0-9.8,0-19.5,0-29.2
		c-3.9,0-7.8,0-11.6,0C37.6,72.5,37.6,82.2,37.6,91.9z M63.9,91.9c0-9.8,0-19.5,0-29.2c-3.9,0-7.8,0-11.6,0c0,9.8,0,19.5,0,29.2
		C56.2,91.9,60,91.9,63.9,91.9z M21.5,30.4c0.2-0.1,0.2-0.2,0.3-0.2c1.8-1.5,3.5-3,5.3-4.6c0.2-0.2,0.3-0.5,0.3-0.7
		c0-4.3,0-8.6,0-12.9c0-0.2,0-0.4,0-0.5c-2,0-3.9,0-5.8,0C21.5,17.8,21.5,24.1,21.5,30.4z"/>
</g>
</svg>
