<?xml version="1.0" encoding="utf-8"?>
<!-- Generator: Adobe Illustrator 20.0.0, SVG Export Plug-In . SVG Version: 6.00 Build 0)  -->
<!DOCTYPE svg PUBLIC "-//W3C//DTD SVG 1.1//EN" "http://www.w3.org/Graphics/SVG/1.1/DTD/svg11.dtd">
<svg version="1.1" id="Layer_1" xmlns="http://www.w3.org/2000/svg" xmlns:xlink="http://www.w3.org/1999/xlink" x="0px" y="0px"
	 viewBox="0 0 143 100" enable-background="new 0 0 143 100" xml:space="preserve">
<g opacity="0.6">
	<path fill="#676767" d="M129.5,82.7c3,0,5.9,0.1,8.8,0c2.6-0.1,2.9,1.1,2.4,3.6c-0.1,0.4-0.8,0.7-1.2,0.9c-0.3,0.1-0.7,0-1.1,0
		c-44.1,0-88.3,0-132.4,0c-0.4,0-0.7,0-1.1,0c-0.7-0.1-1.2-0.5-1.3-1.2c0-0.4-0.1-0.7-0.1-1.1c0-1.6,0.5-2.1,2.1-2.1
		c2.7,0,5.3,0,8,0c0.4,0,0.8,0,1.3,0c0-0.5,0-1,0-1.4c0-21.6,0-43.3,0-64.9c0-2.1,0.3-2.4,2.4-2.4c36.6,0,73.2,0,109.7,0
		c2.1,0,2.4,0.3,2.4,2.4c0,21.6,0,43.2,0,64.8C129.5,81.7,129.5,82.1,129.5,82.7z M124.9,18.1c-35.2,0-70.4,0-105.6,0
		c0,19.7,0,39.4,0,59.1c35.2,0,70.4,0,105.6,0C124.9,57.4,124.9,37.8,124.9,18.1z M72.1,84.5c1.7,0,3.4,0,5.1,0
		c0.3,0,0.6-0.4,0.9-0.7c-0.3-0.2-0.6-0.6-0.9-0.6c-3.4,0-6.7,0-10.1,0c-0.3,0-0.7,0.4-1,0.6c0.3,0.2,0.7,0.7,1,0.7
		C68.8,84.5,70.5,84.5,72.1,84.5z"/>
</g>
</svg>
