<?xml version="1.0" encoding="utf-8"?>
<!-- Generator: Adobe Illustrator 20.0.0, SVG Export Plug-In . SVG Version: 6.00 Build 0)  -->
<!DOCTYPE svg PUBLIC "-//W3C//DTD SVG 1.1//EN" "http://www.w3.org/Graphics/SVG/1.1/DTD/svg11.dtd">
<svg version="1.1" id="Layer_1" xmlns="http://www.w3.org/2000/svg" xmlns:xlink="http://www.w3.org/1999/xlink" x="0px" y="0px"
	 viewBox="0 0 100 100" enable-background="new 0 0 100 100" xml:space="preserve">
<g opacity="0.6">
	<path fill="#676767" d="M81.1,61.8c-0.3-15-10.9-26.4-22-29.7c0,0.4-0.1,0.9-0.1,1.3c-0.4,1.9-1.8,3.2-3.8,3.2c-3.2,0-6.4,0-9.7,0
		c-2.4,0-4-1.6-4-4c0-0.3,0-0.7,0-1c-12.2,2.6-23.9,14.8-23.9,30.3c0.8,0,1.6,0,2.3,0c2.4,0,4,1.6,4,4c0,3.2,0,6.3,0,9.5
		c0,2.5-1.6,4-4.1,4.1c-3.1,0-6.2,0-9.4,0c-2.3,0-3.9-1.3-4-3.6c-0.1-3.5-0.1-7,0-10.4c0.1-2.1,1.8-3.4,3.9-3.5c0.8,0,1.6,0,2.4,0
		c0.7-14,7.1-24.4,19.1-31.6c-0.3,0-0.6-0.1-0.8-0.1c-4.6,0-9.2,0-13.7,0c-0.6,0-1,0.2-1.4,0.6c-1.3,1.5-3.3,2-5.2,1.3
		c-1.7-0.6-2.9-2.3-2.9-4.2c0-1.9,1.1-3.5,2.8-4.3c1.9-0.8,4-0.3,5.4,1.3c0.3,0.3,0.7,0.6,1.1,0.6c7.9,0,15.9,0,23.8,0
		c0.2,0,0.3,0,0.6-0.1c0-0.8,0-1.6,0-2.4c0-2.4,1.6-4,4-4c3.2,0,6.3,0,9.5,0c2.4,0,4,1.6,4,4c0,0.8,0,1.5,0,2.4c0.4,0,0.8,0,1.1,0
		c7.5,0,15.1,0,22.6,0c0.8,0,1.3-0.3,1.8-0.8c1.4-1.5,3.5-1.9,5.3-1.1c1.8,0.8,2.7,2.5,2.6,4.6c-0.1,1.8-1.4,3.4-3.2,3.9
		c-1.9,0.5-3.6,0.1-5-1.4c-0.3-0.3-0.7-0.6-1-0.6c-5.4,0-10.8,0-16.1,0c-0.1,0-0.2,0-0.4,0.1c12.1,7.1,18.4,17.6,19.1,31.6
		c0.8,0,1.6,0,2.5,0c2.4,0,3.9,1.6,3.9,4c0,3.1,0,6.2,0,9.4c0,2.6-1.6,4.2-4.3,4.2c-3,0-6,0-9.1,0c-2.6,0-4.2-1.6-4.2-4.1
		c0-3.1,0-6.2,0-9.3c0-2.5,1.6-4.1,4.1-4.1C79.6,61.8,80.3,61.8,81.1,61.8z M46.1,23.6c0,2.8,0,5.6,0,8.3c2.8,0,5.6,0,8.3,0
		c0-2.8,0-5.5,0-8.3C51.7,23.6,48.9,23.6,46.1,23.6z M11.1,74.8c2.9,0,5.6,0,8.4,0c0-2.8,0-5.6,0-8.3c-2.8,0-5.6,0-8.4,0
		C11.1,69.2,11.1,71.9,11.1,74.8z M87.8,66.4c-2.8,0-5.6,0-8.4,0c0,2.8,0,5.6,0,8.3c2.8,0,5.6,0,8.4,0C87.8,72,87.8,69.3,87.8,66.4z
		"/>
</g>
</svg>
