<?xml version="1.0" encoding="utf-8"?>
<!-- Generator: Adobe Illustrator 20.0.0, SVG Export Plug-In . SVG Version: 6.00 Build 0)  -->
<!DOCTYPE svg PUBLIC "-//W3C//DTD SVG 1.1//EN" "http://www.w3.org/Graphics/SVG/1.1/DTD/svg11.dtd">
<svg version="1.1" id="Layer_1" xmlns="http://www.w3.org/2000/svg" xmlns:xlink="http://www.w3.org/1999/xlink" x="0px" y="0px"
	 viewBox="0 0 100 100" enable-background="new 0 0 100 100" xml:space="preserve">
<g opacity="0.6">
	<path fill="#676767" d="M11.9,27c6.5,0,12.9,0,19.3,0c0-0.3,0-0.6,0-0.8c0-4.6,0-9.3,0-13.9c0-0.5,0.1-0.8,0.5-1
		c3.5-2.3,7-4.7,10.5-7C42.5,4.1,42.9,4,43.3,4c4.8,0,9.5,0,14.3,0c0.3,0,0.7,0.1,0.9,0.3c3.5,2.3,7.1,4.7,10.6,7
		c0.4,0.3,0.5,0.5,0.5,1c0,4.6,0,9.2,0,13.8c0,0.3,0,0.5,0,0.9c6.4,0,12.7,0,19,0c0,0.3,0,0.5,0,0.7c0,7.3,0,14.7,0,22
		c0,9.6,0,19.2,0,28.9c0,3.2,0,6.4,0,9.5c0,4.7-3.3,8-8,8c-20.3,0-40.6,0-60.9,0c-4,0-7.1-2.6-7.8-6.4C12,89.2,12,88.6,12,88
		c0-7.6,0-15.2,0-22.8c0-9.3,0-18.7,0-28c0-3.1,0-6.2,0-9.3C11.9,27.6,11.9,27.3,11.9,27z M84.8,30.9c-23.1,0-46.1,0-69.1,0
		c0,1.9,0,3.8,0,5.7c0,11.9,0,23.7,0,35.6c0,5.3,0,10.6,0,15.9c0,0.1,0,0.1,0,0.2c0.1,2.4,1.7,4,4.1,4c20.3,0,40.6,0,60.9,0
		c2.5,0,4.1-1.6,4.1-4.1c0-3.4,0-6.7,0-10.1c0-4.7,0-9.4,0-14.1c0-7.9,0-15.8,0-23.7c0-2.9,0-5.8,0-8.8
		C84.8,31.3,84.8,31.1,84.8,30.9z M58,27c0-3.9,0-7.7,0-11.5c-5.1,0-10.2,0-15.3,0c0,3.8,0,7.6,0,11.5C47.9,27,52.9,27,58,27z
		 M42.7,11.6c5.1,0,10.2,0,15.3,0c0-1.3,0-2.5,0-3.7c-5.1,0-10.2,0-15.3,0C42.7,9.1,42.7,10.3,42.7,11.6z M38.9,11.2
		c-1.2,0.8-2.2,1.5-3.3,2.2c-0.4,0.2-0.5,0.5-0.5,1c0,4,0,8,0,12c0,0.2,0,0.4,0,0.7c1.3,0,2.5,0,3.8,0
		C38.9,21.7,38.9,16.5,38.9,11.2z M62,11.2c0,5.3,0,10.6,0,15.8c1.3,0,2.5,0,3.7,0c0-0.1,0.1-0.2,0.1-0.2c0-4.2,0-8.5,0-12.7
		c0-0.2-0.1-0.4-0.2-0.4C64.4,12.8,63.2,12,62,11.2z"/>
	<path fill="#676767" d="M75.4,76.9c-16.7,0-33.2,0-49.9,0c4.8-8.1,9.5-16,14.3-24.1c1.9,3.3,3.8,6.4,5.7,9.7
		c3.6-6.5,7.2-12.9,10.9-19.4C62.7,54.4,69,65.6,75.4,76.9z M43.9,73.1c8.3,0,16.6,0,24.9,0c-4.2-7.4-8.3-14.7-12.4-22.1
		C52.2,58.4,48.1,65.7,43.9,73.1z M32.2,73.1c2.4,0,4.7,0,7,0c0.2,0,0.4-0.3,0.5-0.4c1.1-1.9,2.2-3.9,3.3-5.8c0.2-0.3,0.2-0.6,0-0.9
		c-1-1.7-2-3.4-3-5.1c-0.1-0.1-0.2-0.3-0.3-0.4C37.2,64.6,34.7,68.8,32.2,73.1z"/>
</g>
</svg>
