<?xml version="1.0" encoding="utf-8"?>
<!-- Generator: Adobe Illustrator 20.0.0, SVG Export Plug-In . SVG Version: 6.00 Build 0)  -->
<!DOCTYPE svg PUBLIC "-//W3C//DTD SVG 1.1//EN" "http://www.w3.org/Graphics/SVG/1.1/DTD/svg11.dtd">
<svg version="1.1" id="Layer_1" xmlns="http://www.w3.org/2000/svg" xmlns:xlink="http://www.w3.org/1999/xlink" x="0px" y="0px"
	 viewBox="0 0 100 100" enable-background="new 0 0 100 100" xml:space="preserve">
<g opacity="0.6">
	<path fill="#676767" stroke="#676767" stroke-width="1.2329" stroke-miterlimit="10" d="M75.7,37.5c0.6,0,1,0,1.4,0
		c4.7,0,9.4,0,14.1,0c2.3,0,3.6,1.2,3.6,3.5c0,9.7,0,19.5,0,29.2c0,2.3-1.2,3.5-3.6,3.5c-4.7,0-9.5,0-14.2,0c-0.4,0-0.8,0-1.3,0
		c0,0.5-0.1,0.8-0.1,1.2c0,2.6,0,5.2,0,7.9c0,1.4-0.3,1.7-1.7,1.7c-16,0-32,0-48,0c-1.4,0-1.7-0.3-1.7-1.7c0-3,0-5.9,0-9.1
		c-0.4,0-0.8,0-1.2,0c-4.7,0-9.4,0-14.1,0c-2.7,0-3.9-1.1-3.9-3.9c0-9.5,0.1-18.9,0-28.4c0-2.8,1.4-4.1,4-4.1c4.6,0.1,9.2,0,13.8,0
		c0.4,0,0.8,0,1.4,0c0-0.5,0-0.9,0-1.3c0-6.2,0-12.3,0-18.5c0-1.4,0.2-1.7,1.7-1.7c16,0,32,0,47.9,0c1.6,0,1.7,0.2,1.7,1.8
		c0,6.1,0,12.1,0,18.2C75.7,36.5,75.7,36.9,75.7,37.5z M92.6,61c0-0.3,0.1-0.4,0.1-0.6c0-6.4,0-12.9,0-19.3c0-1.2-0.4-1.5-1.7-1.5
		c-27.4,0-54.7,0-82.1,0c-1.5,0-1.8,0.3-1.8,1.8c0,6.2,0,12.3,0,18.5c0,0.3,0,0.7,0,1.1C35.7,61,64.1,61,92.6,61z M26.5,82.3
		c15.7,0,31.3,0,46.9,0c0-6.4,0-12.8,0-19.2c-15.6,0-31.2,0-46.9,0C26.5,69.5,26.5,75.9,26.5,82.3z M73.4,37.6c0-6.5,0-12.8,0-19.2
		c-15.7,0-31.2,0-46.8,0c0,6.4,0,12.8,0,19.2C42.2,37.6,57.8,37.6,73.4,37.6z M7.2,63.1c0,2.4,0,4.6,0,6.9c0,1.3,0.3,1.6,1.6,1.6
		c4.9,0,9.7,0,14.6,0c0.3,0,0.5,0,0.9,0c0-2.9,0-5.7,0-8.5C18.6,63.1,13,63.1,7.2,63.1z M75.8,71.6c1.2,0,2.4,0,3.5,0
		c4,0,7.9,0,11.9,0c0.8,0,1.4-0.2,1.4-1c0-2.5,0-4.9,0-7.5c-5.7,0-11.3,0-16.9,0C75.8,65.9,75.8,68.7,75.8,71.6z"/>
	<path fill="#676767" stroke="#676767" stroke-width="1.2329" stroke-miterlimit="10" d="M88.4,54.6c0,1.1-0.9,2.1-2.1,2.1
		c-1.1,0-2-0.9-2-2c0-1.2,0.9-2.1,2-2.1C87.4,52.5,88.4,53.5,88.4,54.6z"/>
	<path fill="#676767" stroke="#676767" stroke-width="1.2329" stroke-miterlimit="10" d="M75.8,54.5c0.1-1.1,1-2,2.1-1.9
		c1.1,0,2,1,2,2.2c0,1.1-1.1,2.1-2.2,2C76.5,56.6,75.7,55.6,75.8,54.5z"/>
	<path fill="#676767" stroke="#676767" stroke-width="1.2329" stroke-miterlimit="10" d="M47,26c4.2,0,8.4,0,12.7,0
		c0.8,0,1.3,0.2,1.3,1.1c0,0.9-0.5,1.3-1.3,1.3c-0.8,0-1.6,0-2.3,0c-7.5,0-15,0-22.5,0c-0.3,0-0.6,0-1,0c-0.8-0.1-1.3-0.4-1.3-1.3
		c0-0.9,0.6-1.1,1.4-1.1c3.1,0,6.2,0,9.4,0C44.5,26,45.8,26,47,26z"/>
	<path fill="#676767" stroke="#676767" stroke-width="1.2329" stroke-miterlimit="10" d="M42.8,31.7c2.9,0,5.7,0,8.6,0
		c0.8,0,1.2,0.3,1.3,1c0.1,0.8-0.3,1.2-1.1,1.3c-0.3,0.1-0.6,0-0.8,0c-5.4,0-10.8,0-16.2,0c-0.3,0-0.6,0-0.8,0
		c-0.7-0.1-1.1-0.5-1.1-1.2c0-0.7,0.5-1.1,1.2-1.1c1.3,0,2.5,0,3.8,0C39.3,31.7,41,31.7,42.8,31.7z"/>
</g>
</svg>
