<?xml version="1.0" encoding="utf-8"?>
<!-- Generator: Adobe Illustrator 20.0.0, SVG Export Plug-In . SVG Version: 6.00 Build 0)  -->
<!DOCTYPE svg PUBLIC "-//W3C//DTD SVG 1.1//EN" "http://www.w3.org/Graphics/SVG/1.1/DTD/svg11.dtd">
<svg version="1.1" id="Layer_1" xmlns="http://www.w3.org/2000/svg" xmlns:xlink="http://www.w3.org/1999/xlink" x="0px" y="0px"
	 viewBox="0 0 100 100" enable-background="new 0 0 100 100" xml:space="preserve">
<g opacity="0.6">
	<path fill="#676767" d="M51,1.5c1.7,0.6,3.2,1.5,3.9,3.2c0.5,1.1,1.1,1.6,2.2,1.9c2,0.6,3.6,1.9,4.8,3.6c0.3,0.5,0.6,0.6,1.2,0.6
		c4.4,0,8.9,0,13.3,0c2.6,0,4.6,2.1,4.6,4.7c0,21,0,42.1,0,63.1c0,2.7-2.1,4.8-4.8,4.8c-17.9,0-35.7,0-53.6,0c-2.7,0-4.7-2-4.8-4.9
		c0-0.2,0-0.3,0-0.5c0-20.7,0-41.4,0-62.1c0-1.4,0.3-2.7,1.2-3.7c0.9-1,2-1.5,3.3-1.6c4.5,0,8.9,0,13.4,0c0.5,0,0.8-0.1,1.2-0.6
		c1.4-2.1,3.4-3.4,5.9-4c0.2-0.1,0.5-0.3,0.6-0.5c0.7-2,2.1-3.4,4.1-4.1c0.1,0,0.1-0.1,0.2-0.1C48.7,1.5,49.9,1.5,51,1.5z M35.2,14
		c-0.2,0-0.4,0-0.6,0c-3.9,0-7.9,0-11.8,0c-1.3,0-1.8,0.6-1.8,1.8c0,20.9,0,41.8,0,62.7c0,1.2,0.6,1.8,1.9,1.8c17.7,0,35.4,0,53.1,0
		c1.3,0,1.9-0.6,1.9-1.8c0-20.9,0-41.8,0-62.7c0-1.3-0.6-1.9-1.8-1.9c-4,0-7.9,0-11.9,0c-0.2,0-0.4,0-0.6,0c0,1.6,0,3.1,0,4.7
		c-9.5,0-18.9,0-28.3,0C35.2,17.1,35.2,15.6,35.2,14z M38.3,15.5c7.4,0,14.7,0,22.1,0c0-0.2,0-0.4,0-0.6c-0.3-3-2.7-5.3-5.7-5.6
		c-0.7-0.1-1.4,0-2.1,0c0-0.6,0-1.1,0-1.6c-0.1-1.8-1.5-3.1-3.2-3.1c-1.7,0-3.1,1.4-3.1,3.2c0,0.5,0,1,0,1.5c-2-0.1-3.8,0.1-5.4,1.3
		C39.2,11.7,38.4,13.4,38.3,15.5z"/>
	<path fill="#676767" d="M15.1,93c2-1.5,3.8-2.9,5.7-4.3c0.9-0.7,1.8-1.6,2.8-2c1-0.3,2.2-0.1,3.3-0.1c16.8,0,33.6,0,50.4,0
		c2.4,0,4.1,1,4.9,3c0.1,0.3,0.2,0.6,0.2,0.8c0,1.7,0.2,3.3,0,5c-0.3,2.3-2.3,3.8-4.6,3.8c-17.9,0-35.8,0-53.7,0
		c-0.4,0-0.8-0.1-1-0.4c-2.4-1.8-4.9-3.6-7.3-5.5C15.6,93.3,15.4,93.2,15.1,93z M63.5,89.8c-12.1,0-24.2,0-36.3,0c0,2.1,0,4.1,0,6.2
		c12.1,0,24.2,0,36.3,0C63.5,94,63.5,91.9,63.5,89.8z M66.8,89.8c0,2.1,0,4.2,0,6.2c1.6,0,3.1,0,4.6,0c0-2.1,0-4.2,0-6.2
		C69.9,89.8,68.4,89.8,66.8,89.8z M74.7,89.8c0,2.1,0,4.2,0,6.3c1.1,0,2.2,0,3.3,0c0.8,0,1.4-0.6,1.4-1.5c0.1-1.1,0.1-2.2,0-3.3
		c0-0.9-0.7-1.5-1.6-1.5C76.8,89.8,75.8,89.8,74.7,89.8z M24,90.2c-1.3,1-2.4,1.8-3.7,2.7c1.2,0.9,2.4,1.8,3.7,2.8
		C24,93.8,24,92.1,24,90.2z"/>
	<path fill="#676767" d="M32,34.5c5.3,0,10.5,0,15.8,0c0-1.1,0-2.2,0-3.3c0-0.1-0.3-0.3-0.5-0.4C45,29.6,44,27,45,24.7
		c0.9-2.2,3.4-3.4,5.8-2.7c1.8,0.5,3.1,2.2,3.3,3.9c0.2,2-0.7,3.9-2.5,4.7c-0.6,0.3-0.7,0.6-0.7,1.2c0,0.8,0,1.7,0,2.6
		c5.3,0,10.5,0,15.8,0c0,0.3,0,0.6,0,0.8c0,2.2,0,4.5,0,6.7c0,0.4,0.1,0.7,0.5,0.9c2,1,3,3.2,2.5,5.3c-0.5,2.1-2.4,3.6-4.6,3.6
		c-2.2,0-4.1-1.5-4.6-3.6c-0.5-2.1,0.5-4.3,2.5-5.3c0.4-0.2,0.5-0.4,0.5-0.8c0-1.4,0-2.9,0-4.4c-4.2,0-8.4,0-12.6,0
		c0,0.2,0,0.3-0.1,0.5c0,0.8,0,1.6,0,2.5c-0.1,1.2,0,2,1.3,2.8c1.8,1.1,2.4,3.4,1.6,5.4C53,50.8,51,52,49,51.9
		c-2.2-0.2-3.9-1.7-4.3-3.7c-0.4-2.1,0.5-4.2,2.4-5.2c0.5-0.2,0.6-0.5,0.6-1c0-1.4,0-2.8,0-4.3c-4.2,0-8.4,0-12.6,0
		c0,1.6,0,3.1,0,4.7c0,0.2,0.3,0.4,0.5,0.5c2.6,1.4,3.4,4.6,1.8,7c-1.1,1.6-3.1,2.4-5,1.9c-2-0.5-3.4-2.1-3.6-4.1
		c-0.2-1.9,0.8-3.8,2.5-4.6c0.5-0.2,0.6-0.5,0.6-1C31.9,39.5,32,37.1,32,34.5z M35.1,47.1c0-0.9-0.7-1.6-1.5-1.6
		c-0.9,0-1.6,0.7-1.6,1.6c0,0.8,0.7,1.5,1.6,1.5C34.4,48.7,35.1,48,35.1,47.1z M49.3,25c-0.9,0-1.6,0.7-1.6,1.5
		c0,0.8,0.8,1.6,1.6,1.6c0.8,0,1.5-0.7,1.5-1.6C50.9,25.7,50.2,25,49.3,25z M49.4,48.7c0.9,0,1.5-0.7,1.5-1.6c0-0.9-0.7-1.6-1.5-1.6
		c-0.9,0-1.6,0.7-1.6,1.6C47.8,48,48.5,48.7,49.4,48.7z M65.2,45.6c-0.9,0-1.6,0.6-1.6,1.5c0,0.9,0.6,1.6,1.5,1.6
		c0.9,0,1.6-0.6,1.6-1.5C66.8,46.3,66.1,45.6,65.2,45.6z"/>
	<path fill="#676767" d="M61.9,75.5c-1,0-2,0-3.1,0c0-6.3,0-12.5,0-18.9c1,0,2,0,3.1,0C61.9,62.9,61.9,69.2,61.9,75.5z"/>
	<path fill="#676767" d="M51,59.8c1,0,2,0,3.1,0c0,5.2,0,10.4,0,15.7c-1,0-2,0-3.1,0C51,70.3,51,65.1,51,59.8z"/>
	<path fill="#676767" d="M43.1,62.9c1,0,2,0,3.1,0c0,4.2,0,8.3,0,12.6c-1,0-2,0-3.1,0C43.1,71.3,43.1,67.2,43.1,62.9z"/>
	<path fill="#676767" d="M38.2,75.5c-1,0-2,0-3.1,0c0-3.1,0-6.2,0-9.4c1,0,2,0,3.1,0C38.2,69.2,38.2,72.3,38.2,75.5z"/>
</g>
</svg>
