<?xml version="1.0" encoding="utf-8"?>
<!-- Generator: Adobe Illustrator 20.0.0, SVG Export Plug-In . SVG Version: 6.00 Build 0)  -->
<!DOCTYPE svg PUBLIC "-//W3C//DTD SVG 1.1//EN" "http://www.w3.org/Graphics/SVG/1.1/DTD/svg11.dtd">
<svg version="1.1" id="Layer_1" xmlns="http://www.w3.org/2000/svg" xmlns:xlink="http://www.w3.org/1999/xlink" x="0px" y="0px"
	 viewBox="0 0 140 140" style="enable-background:new 0 0 140 140;" xml:space="preserve">
<style type="text/css">
	.st0{fill:#F48023;}
	.st1{fill:#FFFFFF;}
</style>
<rect id="XMLID_238_" class="st0" width="140" height="140"/>
<g id="XMLID_195_">
	<g id="XMLID_342_">
		<g id="XMLID_146_">
			<g id="XMLID_156_">
				<g id="XMLID_157_">
					<path id="XMLID_158_" class="st1" d="M19.5,40.2c-1.7,0-2.4-1.2-2.4-2.6v-5.9h-1.2v-1.1h1.2v-2.9h1.4v2.9h2v1.1h-2v5.7
						c0,0.8,0.3,1.4,1.4,1.4h0.8v1.2C20.6,40.2,19.5,40.2,19.5,40.2z"/>
				</g>
			</g>
			<g id="XMLID_152_">
				<g id="XMLID_153_">
					<path id="XMLID_154_" class="st1" d="M31.3,40.2v-5.9c0-1.7-0.9-2.4-2.3-2.4c-1.4,0-2.3,0.8-2.3,2.4v5.9h-1.4V26.6h1.4v5.3
						c0.8-0.8,1.7-1.2,2.7-1.2c2.1,0,3.3,1.4,3.3,3.5v6H31.3L31.3,40.2z"/>
				</g>
			</g>
			<g id="XMLID_147_">
				<g id="XMLID_148_">
					<path id="XMLID_149_" class="st1" d="M37.5,35.8c0,2.1,0.9,3.3,2.9,3.3c1.1,0,1.8-0.3,2.4-1.1l0.9,0.8
						c-0.9,0.9-1.8,1.4-3.5,1.4c-2.4,0-4.1-1.5-4.1-4.8c0-3,1.5-4.8,3.9-4.8c2.4,0,3.9,1.8,3.9,4.5v0.6
						C43.9,35.8,37.5,35.8,37.5,35.8z M42.2,33.3c-0.3-0.8-1.2-1.4-2.3-1.4s-1.8,0.6-2.3,1.4c-0.3,0.5-0.3,0.8-0.3,1.5h5
						C42.4,34,42.4,33.7,42.2,33.3z"/>
				</g>
			</g>
		</g>
	</g>
	<g id="XMLID_329_">
		<path id="XMLID_340_" class="st1" d="M24.4,52.6v26.6h-6.7V52.6H24.4z"/>
		<path id="XMLID_337_" class="st1" d="M51.1,79.5V77c-1.8,2.1-3.8,2.9-6.5,2.9c-2.6,0-5-0.9-6.5-2.4c-2.9-2.7-2.9-7.3-2.9-11.3
			s0-8.5,2.7-11.2c1.5-1.5,3.9-2.4,6.5-2.4c2.7,0,4.8,0.8,6.5,2.7V43.1h6.7v36.4H51.1z M46.3,58.5c-3.9,0-4.5,3.3-4.5,7.6
			c0,4.4,0.5,7.7,4.5,7.7c3.9,0,4.5-3.3,4.5-7.7C50.8,61.8,50.4,58.5,46.3,58.5z"/>
		<path id="XMLID_334_" class="st1" d="M74.4,68.3c0,3.3,2.1,5.9,5.9,5.9c2.9,0,4.4-0.8,6-2.4l4.1,3.9C87.7,78.5,85,80,80.3,80
			c-6.3,0-12.4-2.9-12.4-13.8c0-8.6,4.7-13.6,11.6-13.6c7.6,0,11.6,5.4,11.6,12.7v3.2L74.4,68.3L74.4,68.3z M83.8,60.9
			c-0.8-1.7-2.3-2.9-4.4-2.9s-3.8,1.2-4.4,2.9c-0.3,0.9-0.6,1.7-0.6,2.9h10.1C84.4,62.4,84.2,61.8,83.8,60.9z"/>
		<path id="XMLID_331_" class="st1" d="M115.8,79.5v-2.3c-1.7,1.8-3.5,2.6-6.5,2.6c-3,0-5.3-0.8-6.8-2.3c-1.4-1.5-2.3-3.6-2.3-5.9
			c0-4.2,2.9-7.7,9.1-7.7h6.3v-1.5c0-2.9-1.4-4.2-5-4.2c-2.6,0-3.8,0.6-5.1,2.3l-4.1-4.1c2.6-2.9,5.1-3.8,9.5-3.8
			c7.6,0,11.3,3.2,11.3,9.5v17.5L115.8,79.5L115.8,79.5z M115.7,68.3h-5.3c-2.4,0-3.8,1.2-3.8,3s1.2,3,3.9,3c1.8,0,3-0.2,4.2-1.4
			c0.8-0.8,0.9-1.8,0.9-3.3V68.3z"/>
	</g>
	<g id="XMLID_196_">
		<path id="XMLID_321_" class="st1" d="M27.1,106.1c-0.8,0.8-2,1.2-3.3,1.2c-1.5,0-2.9-0.3-3.9-1.8v7.9h-2V93.3h2v1.7
			c1.2-1.5,2.4-1.8,3.9-1.8c1.4,0,2.7,0.5,3.3,1.2c1.4,1.4,1.8,3.8,1.8,5.9C28.8,102.4,28.4,104.8,27.1,106.1z M23.3,94.9
			c-3,0-3.5,2.6-3.5,5.3s0.5,5.4,3.5,5.4s3.5-2.6,3.5-5.4C26.8,97.5,26.3,94.9,23.3,94.9z"/>
		<path id="XMLID_313_" class="st1" d="M43,107.2v-1.4c-1.2,1.2-2.1,1.5-3.9,1.5s-3-0.3-3.9-1.4c-0.8-0.8-1.1-1.8-1.1-2.9
			c0-2.4,1.8-3.9,4.8-3.9h4.2v-1.4c0-2-1.1-3-3.6-3c-1.8,0-2.7,0.5-3.5,1.7l-1.4-1.4c1.4-1.7,2.7-2.1,5-2.1c3.8,0,5.6,1.7,5.6,4.7
			v9.5h-2v0H43z M43,100.8H39c-2.1,0-3.2,0.8-3.2,2.4c0,1.7,0.9,2.3,3.2,2.3c1.2,0,2.3-0.2,3.2-0.9c0.5-0.5,0.8-1.4,0.8-2.4V100.8z"
			/>
		<path id="XMLID_307_" class="st1" d="M59.6,96c-0.8-0.8-1.4-1.1-2.4-1.1c-2,0-3.3,1.7-3.3,3.8v8.5h-2V93.3h2v1.8
			c0.8-1.2,2.3-1.8,3.9-1.8c1.4,0,2.3,0.3,3.3,1.4L59.6,96z"/>
		<path id="XMLID_277_" class="st1" d="M70.8,107.2c-2.3,0-3.5-1.7-3.5-3.8v-8.5h-1.8v-1.5h1.8V89h2v4.4h3v1.5h-2.9v8.5
			c0,1.4,0.6,2,1.8,2h1.1v1.8H70.8z"/>
		<path id="XMLID_234_" class="st1" d="M88.5,107.2v-8.5c0-2.4-1.4-3.8-3.3-3.8s-3.5,1.4-3.5,3.8v8.5h-2V93.3h2v1.5
			c0.9-1.2,2.3-1.7,3.9-1.7c1.5,0,2.7,0.5,3.5,1.4c1.1,0.9,1.4,2.3,1.4,3.9v8.9h-2V107.2z"/>
		<path id="XMLID_205_" class="st1" d="M98.6,100.8c0,3,1.4,4.8,4.1,4.8c1.7,0,2.6-0.5,3.6-1.7l1.4,1.2c-1.4,1.4-2.7,2.1-5.1,2.1
			c-3.6,0-6-2.3-6-7.1c0-4.4,2.3-7.1,5.7-7.1c3.6,0,5.7,2.6,5.7,6.8v0.9L98.6,100.8L98.6,100.8z M105.6,96.9
			c-0.6-1.4-1.8-2.1-3.3-2.1s-2.7,0.8-3.3,2.1c-0.3,0.8-0.3,1.2-0.5,2.3h7.4C105.9,98.3,105.9,97.7,105.6,96.9z"/>
		<path id="XMLID_197_" class="st1" d="M122.5,96c-0.8-0.8-1.4-1.1-2.4-1.1c-2,0-3.3,1.7-3.3,3.8v8.5h-2V93.3h2v1.8
			c0.8-1.2,2.3-1.8,3.9-1.8c1.4,0,2.3,0.3,3.3,1.4L122.5,96z"/>
	</g>
</g>
</svg>
